Ubuntu-MI.ufo
<glyph name="exclam" format="2">
	<unicode hex="0021"/>
	<advance width="274"/>
	<outline>
		<contour>
			<point x="365" y="693" type="line"/>
			<point x="237" y="693" type="line"/>
			<point x="193" y="509" type="line" smooth="yes"/>
			<point x="167" y="400"/>
			<point x="155" y="311"/>
			<point x="145" y="218" type="curve"/>
			<point x="230" y="218" type="line"/>
			<point x="263" y="301"/>
			<point x="300" y="422"/>
			<point x="321" y="509" type="curve" smooth="yes"/>
		</contour>
		<contour>
			<point x="159" y="146" type="curve" smooth="yes"/>
			<point x="201" y="146"/>
			<point x="231" y="122"/>
			<point x="231" y="75" type="curve" smooth="yes"/>
			<point x="231" y="21"/>
			<point x="188" y="-13"/>
			<point x="145" y="-13" type="curve" smooth="yes"/>
			<point x="103" y="-13"/>
			<point x="74" y="10"/>
			<point x="74" y="57" type="curve" smooth="yes"/>
			<point x="74" y="112"/>
			<point x="115" y="146"/>
		</contour>
	</outline>
</glyph>
<glyph name="dollar" format="2">
	<unicode hex="0024"/>
	<advance width="568"/>
	<outline>
		<contour>
			<point x="285" y="112" type="qcurve"/>
			<point x="310" y="112"/>
			<point x="360" y="120"/>
			<point x="400" y="140"/>
			<point x="425" y="176"/>
			<point x="425" y="205" type="qcurve"/>
			<point x="425" y="241"/>
			<point x="368" y="284"/>
			<point x="325" y="304" type="qcurve"/>
			<point x="265" y="333"/>
			<point x="191" y="416"/>
			<point x="191" y="480" type="qcurve"/>
			<point x="191" y="514"/>
			<point x="215" y="577"/>
			<point x="265" y="626"/>
			<point x="339" y="659"/>
			<point x="389" y="665" type="qcurve"/>
			<point x="416" y="776" type="line"/>
			<point x="520" y="776" type="line"/>
			<point x="492" y="665" type="line"/>
			<point x="533" y="659"/>
			<point x="598" y="632"/>
			<point x="618" y="619" type="qcurve"/>
			<point x="567" y="532" type="line"/>
			<point x="545" y="548"/>
			<point x="476" y="569"/>
			<point x="434" y="569" type="qcurve"/>
			<point x="409" y="569"/>
			<point x="364" y="559"/>
			<point x="331" y="540"/>
			<point x="311" y="509"/>
			<point x="311" y="488" type="qcurve"/>
			<point x="311" y="470"/>
			<point x="321" y="445"/>
			<point x="344" y="423"/>
			<point x="379" y="402"/>
			<point x="404" y="389" type="qcurve"/>
			<point x="432" y="375"/>
			<point x="484" y="344"/>
			<point x="523" y="303"/>
			<point x="546" y="250"/>
			<point x="546" y="214" type="qcurve"/>
			<point x="546" y="169"/>
			<point x="516" y="99"/>
			<point x="461" y="50"/>
			<point x="384" y="20"/>
			<point x="337" y="15" type="qcurve"/>
			<point x="307" y="-109" type="line"/>
			<point x="204" y="-109" type="line"/>
			<point x="234" y="17" type="line"/>
			<point x="208" y="20"/>
			<point x="161" y="31"/>
			<point x="121" y="46"/>
			<point x="91" y="61"/>
			<point x="82" y="67" type="qcurve"/>
			<point x="134" y="158" type="line"/>
			<point x="144" y="151"/>
			<point x="175" y="135"/>
			<point x="214" y="121"/>
			<point x="260" y="112"/>
		</contour>
	</outline>
	<guideline x="248"/>
</glyph>
<glyph name="ampersand" format="2">
	<unicode hex="0026"/>
	<advance width="652"/>
	<outline>
		<contour>
			<point x="272" y="-9" type="qcurve"/>
			<point x="233" y="-9"/>
			<point x="161" y="10"/>
			<point x="107" y="50"/>
			<point x="75" y="113"/>
			<point x="75" y="157" type="qcurve"/>
			<point x="75" y="199"/>
			<point x="101" y="266"/>
			<point x="149" y="320"/>
			<point x="218" y="365"/>
			<point x="261" y="386" type="qcurve"/>
			<point x="242" y="416"/>
			<point x="221" y="480"/>
			<point x="221" y="515" type="qcurve"/>
			<point x="221" y="558"/>
			<point x="252" y="629"/>
			<point x="309" y="680"/>
			<point x="390" y="709"/>
			<point x="440" y="709" type="qcurve"/>
			<point x="512" y="709"/>
			<point x="597" y="633"/>
			<point x="597" y="572" type="qcurve"/>
			<point x="597" y="515"/>
			<point x="524" y="415"/>
			<point x="457" y="381" type="qcurve"/>
			<point x="446" y="375"/>
			<point x="423" y="364"/>
			<point x="412" y="359" type="qcurve"/>
			<point x="512" y="222" type="line"/>
			<point x="530" y="248"/>
			<point x="561" y="308"/>
			<point x="573" y="343" type="qcurve"/>
			<point x="679" y="330" type="line"/>
			<point x="661" y="281"/>
			<point x="608" y="184"/>
			<point x="573" y="141" type="qcurve"/>
			<point x="599" y="105"/>
			<point x="641" y="34"/>
			<point x="655" y="0" type="qcurve"/>
			<point x="532" y="0" type="line"/>
			<point x="525" y="15"/>
			<point x="506" y="48"/>
			<point x="495" y="65" type="qcurve"/>
			<point x="448" y="30"/>
			<point x="338" y="-9"/>
		</contour>
		<contour>
			<point x="285" y="87" type="qcurve"/>
			<point x="322" y="87"/>
			<point x="402" y="113"/>
			<point x="439" y="143" type="qcurve"/>
			<point x="312" y="315" type="line"/>
			<point x="261" y="294"/>
			<point x="194" y="223"/>
			<point x="194" y="174" type="qcurve"/>
			<point x="194" y="137"/>
			<point x="237" y="87"/>
		</contour>
		<contour>
			<point x="331" y="516" type="qcurve"/>
			<point x="331" y="496"/>
			<point x="348" y="452"/>
			<point x="362" y="428" type="qcurve"/>
			<point x="389" y="440"/>
			<point x="436" y="467"/>
			<point x="471" y="498"/>
			<point x="491" y="536"/>
			<point x="491" y="560" type="qcurve"/>
			<point x="491" y="586"/>
			<point x="459" y="619"/>
			<point x="427" y="619" type="qcurve"/>
			<point x="408" y="619"/>
			<point x="374" y="606"/>
			<point x="347" y="581"/>
			<point x="331" y="542"/>
		</contour>
	</outline>
</glyph>
<glyph name="quotesingle" format="2">
	<unicode hex="0027"/>
	<advance width="259"/>
	<outline>
		<contour>
			<point x="360" y="760" type="line"/>
			<point x="345" y="698" type="line"/>
			<point x="333" y="650"/>
			<point x="294" y="537"/>
			<point x="271" y="483" type="qcurve"/>
			<point x="194" y="483" type="line"/>
			<point x="195" y="506"/>
			<point x="201" y="561"/>
			<point x="208" y="618"/>
			<point x="218" y="674"/>
			<point x="224" y="699" type="qcurve"/>
			<point x="239" y="760" type="line"/>
		</contour>
	</outline>
</glyph>
<glyph name="parenleft" format="2">
	<unicode hex="0028"/>
	<advance width="330"/>
	<outline>
		<contour>
			<point x="507" y="727" type="line"/>
			<point x="447" y="665"/>
			<point x="349" y="526"/>
			<point x="279" y="376"/>
			<point x="241" y="218"/>
			<point x="241" y="137" type="qcurve"/>
			<point x="241" y="64"/>
			<point x="265" y="-67"/>
			<point x="292" y="-130" type="qcurve"/>
			<point x="202" y="-183" type="line"/>
			<point x="163" y="-115"/>
			<point x="123" y="44"/>
			<point x="123" y="129" type="qcurve"/>
			<point x="123" y="221"/>
			<point x="165" y="399"/>
			<point x="244" y="565"/>
			<point x="357" y="717"/>
			<point x="428" y="783" type="qcurve"/>
		</contour>
	</outline>
</glyph>
<glyph name="parenright" format="2">
	<unicode hex="0029"/>
	<advance width="330"/>
	<outline>
		<contour>
			<point x="-53" y="-129" type="line"/>
			<point x="7" y="-67"/>
			<point x="105" y="72"/>
			<point x="175" y="222"/>
			<point x="213" y="380"/>
			<point x="213" y="461" type="qcurve"/>
			<point x="213" y="534"/>
			<point x="189" y="665"/>
			<point x="162" y="728" type="qcurve"/>
			<point x="252" y="781" type="line"/>
			<point x="291" y="713"/>
			<point x="331" y="554"/>
			<point x="331" y="469" type="qcurve"/>
			<point x="331" y="377"/>
			<point x="289" y="199"/>
			<point x="210" y="32"/>
			<point x="97" y="-119"/>
			<point x="26" y="-185" type="qcurve"/>
		</contour>
	</outline>
</glyph>
<glyph name="asterisk" format="2">
	<unicode hex="002A"/>
	<advance width="471"/>
	<outline>
		<contour>
			<point x="374" y="530" type="curve"/>
			<point x="387" y="575"/>
			<point x="402" y="630"/>
			<point x="402" y="676" type="curve" smooth="yes"/>
			<point x="402" y="693" type="line"/>
			<point x="292" y="693" type="line"/>
			<point x="292" y="676" type="line" smooth="yes"/>
			<point x="292" y="630"/>
			<point x="307" y="575"/>
			<point x="320" y="530" type="curve"/>
			<point x="280" y="557"/>
			<point x="227" y="589"/>
			<point x="183" y="604" type="curve" smooth="yes"/>
			<point x="174" y="607" type="line"/>
			<point x="140" y="503" type="line"/>
			<point x="156" y="498" type="line" smooth="yes"/>
			<point x="207" y="482"/>
			<point x="257" y="481"/>
			<point x="304" y="480" type="curve"/>
			<point x="267" y="451"/>
			<point x="222" y="416"/>
			<point x="194" y="378" type="curve" smooth="yes"/>
			<point x="184" y="364" type="line"/>
			<point x="273" y="301" type="line"/>
			<point x="279" y="309" type="line" smooth="yes"/>
			<point x="306" y="345"/>
			<point x="329" y="406"/>
			<point x="347" y="449" type="curve"/>
			<point x="363" y="406"/>
			<point x="384" y="352"/>
			<point x="411" y="314" type="curve" smooth="yes"/>
			<point x="420" y="301" type="line"/>
			<point x="510" y="364" type="line"/>
			<point x="503" y="373" type="line" smooth="yes"/>
			<point x="474" y="410"/>
			<point x="432" y="449"/>
			<point x="389" y="480" type="curve"/>
			<point x="436" y="481"/>
			<point x="493" y="484"/>
			<point x="538" y="498" type="curve" smooth="yes"/>
			<point x="554" y="503" type="line"/>
			<point x="520" y="607" type="line"/>
			<point x="505" y="602" type="line" smooth="yes"/>
			<point x="461" y="587"/>
			<point x="412" y="555"/>
		</contour>
	</outline>
</glyph>
<glyph name="comma" format="2">
	<unicode hex="002C"/>
	<advance width="268"/>
	<outline>
		<contour>
			<point x="223" y="133" type="line"/>
			<point x="217" y="53"/>
			<point x="139" y="-98"/>
			<point x="86" y="-161" type="qcurve"/>
			<point x="0" y="-134" type="line"/>
			<point x="39" y="-73"/>
			<point x="91" y="67"/>
			<point x="96" y="133" type="qcurve"/>
		</contour>
	</outline>
	<guideline x="175"/>
</glyph>
<glyph name="hyphen" format="2">
	<unicode hex="002D"/>
	<advance width="319"/>
	<outline>
		<contour>
			<point x="83" y="230" type="line"/>
			<point x="349" y="230" type="line"/>
			<point x="375" y="341" type="line"/>
			<point x="109" y="341" type="line"/>
		</contour>
	</outline>
</glyph>
<glyph name="period" format="2">
	<unicode hex="002E"/>
	<advance width="265"/>
	<outline>
		<contour>
			<point x="150" y="146" type="qcurve"/>
			<point x="182" y="146"/>
			<point x="222" y="110"/>
			<point x="222" y="75" type="qcurve"/>
			<point x="222" y="55"/>
			<point x="207" y="22"/>
			<point x="183" y="-1"/>
			<point x="152" y="-13"/>
			<point x="136" y="-13" type="qcurve"/>
			<point x="104" y="-13"/>
			<point x="65" y="22"/>
			<point x="65" y="57" type="qcurve"/>
			<point x="65" y="99"/>
			<point x="117" y="146"/>
		</contour>
	</outline>
	<guideline y="-13"/>
	<guideline y="121"/>
</glyph>
<glyph name="slash" format="2">
	<unicode hex="002F"/>
	<advance width="399"/>
	<outline>
		<contour>
			<point x="612" y="783" type="line"/>
			<point x="490" y="783" type="line"/>
			<point x="-69" y="-185" type="line"/>
			<point x="53" y="-185" type="line"/>
		</contour>
	</outline>
</glyph>
<glyph name="zero" format="2">
	<unicode hex="0030"/>
	<advance width="568"/>
	<outline>
		<contour>
			<point x="295" y="90" type="qcurve"/>
			<point x="327" y="90"/>
			<point x="382" y="128"/>
			<point x="428" y="191"/>
			<point x="463" y="273"/>
			<point x="487" y="361"/>
			<point x="500" y="448"/>
			<point x="500" y="486" type="qcurve"/>
			<point x="500" y="549"/>
			<point x="466" y="605"/>
			<point x="427" y="605" type="qcurve"/>
			<point x="395" y="605"/>
			<point x="339" y="567"/>
			<point x="294" y="503"/>
			<point x="259" y="421"/>
			<point x="234" y="333"/>
			<point x="222" y="245"/>
			<point x="222" y="208" type="qcurve"/>
			<point x="222" y="145"/>
			<point x="256" y="90"/>
		</contour>
		<contour>
			<point x="278" y="-15" type="qcurve"/>
			<point x="232" y="-15"/>
			<point x="167" y="16"/>
			<point x="125" y="71"/>
			<point x="106" y="147"/>
			<point x="106" y="192" type="qcurve"/>
			<point x="106" y="286"/>
			<point x="151" y="471"/>
			<point x="237" y="618"/>
			<point x="363" y="709"/>
			<point x="443" y="709" type="qcurve"/>
			<point x="489" y="709"/>
			<point x="554" y="678"/>
			<point x="596" y="623"/>
			<point x="616" y="547"/>
			<point x="616" y="502" type="qcurve"/>
			<point x="616" y="408"/>
			<point x="571" y="223"/>
			<point x="484" y="76"/>
			<point x="359" y="-15"/>
		</contour>
	</outline>
	<guideline y="709"/>
</glyph>
<glyph name="one" format="2">
	<unicode hex="0031"/>
	<advance width="568"/>
	<outline>
		<contour>
			<point x="213" y="549" type="line"/>
			<point x="276" y="572"/>
			<point x="410" y="644"/>
			<point x="466" y="693" type="qcurve"/>
			<point x="552" y="693" type="line"/>
			<point x="385" y="0" type="line"/>
			<point x="264" y="0" type="line"/>
			<point x="391" y="527" type="line"/>
			<point x="359" y="506"/>
			<point x="272" y="467"/>
			<point x="230" y="453" type="qcurve"/>
		</contour>
	</outline>
	<guideline x="151"/>
</glyph>
<glyph name="two" format="2">
	<unicode hex="0032"/>
	<advance width="568"/>
	<outline>
		<contour>
			<point x="423" y="709" type="qcurve"/>
			<point x="467" y="709"/>
			<point x="536" y="682"/>
			<point x="583" y="638"/>
			<point x="607" y="579"/>
			<point x="607" y="548" type="qcurve"/>
			<point x="607" y="503"/>
			<point x="582" y="432"/>
			<point x="534" y="371"/>
			<point x="464" y="312"/>
			<point x="420" y="278" type="qcurve"/>
			<point x="394" y="258"/>
			<point x="338" y="217"/>
			<point x="287" y="174"/>
			<point x="243" y="127"/>
			<point x="228" y="101" type="qcurve"/>
			<point x="527" y="101" type="line"/>
			<point x="503" y="0" type="line"/>
			<point x="70" y="0" type="line"/>
			<point x="79" y="58"/>
			<point x="121" y="147"/>
			<point x="182" y="220"/>
			<point x="258" y="283"/>
			<point x="300" y="315" type="qcurve"/>
			<point x="342" y="347"/>
			<point x="410" y="400"/>
			<point x="458" y="450"/>
			<point x="484" y="500"/>
			<point x="484" y="529" type="qcurve"/>
			<point x="484" y="562"/>
			<point x="442" y="604"/>
			<point x="403" y="604" type="qcurve"/>
			<point x="354" y="604"/>
			<point x="273" y="562"/>
			<point x="241" y="536" type="qcurve"/>
			<point x="200" y="627" type="line"/>
			<point x="244" y="664"/>
			<point x="358" y="709"/>
		</contour>
	</outline>
</glyph>
<glyph name="three" format="2">
	<unicode hex="0033"/>
	<advance width="568"/>
	<outline>
		<contour>
			<point x="455" y="368" type="qcurve"/>
			<point x="493" y="351"/>
			<point x="547" y="273"/>
			<point x="547" y="218" type="qcurve"/>
			<point x="547" y="171"/>
			<point x="511" y="87"/>
			<point x="439" y="23"/>
			<point x="329" y="-15"/>
			<point x="254" y="-15" type="qcurve"/>
			<point x="191" y="-15"/>
			<point x="92" y="13"/>
			<point x="63" y="29" type="qcurve"/>
			<point x="107" y="128" type="line"/>
			<point x="129" y="114"/>
			<point x="207" y="86"/>
			<point x="260" y="86" type="qcurve"/>
			<point x="294" y="86"/>
			<point x="355" y="102"/>
			<point x="400" y="135"/>
			<point x="426" y="185"/>
			<point x="426" y="220" type="qcurve"/>
			<point x="426" y="270"/>
			<point x="349" y="318"/>
			<point x="283" y="318" type="qcurve"/>
			<point x="243" y="318" type="line"/>
			<point x="266" y="415" type="line"/>
			<point x="316" y="415" type="line"/>
			<point x="344" y="415"/>
			<point x="400" y="428"/>
			<point x="444" y="455"/>
			<point x="472" y="498"/>
			<point x="472" y="529" type="qcurve"/>
			<point x="472" y="567"/>
			<point x="422" y="606"/>
			<point x="379" y="606" type="qcurve"/>
			<point x="342" y="606"/>
			<point x="269" y="581"/>
			<point x="237" y="563" type="qcurve"/>
			<point x="207" y="655" type="line"/>
			<point x="245" y="678"/>
			<point x="345" y="709"/>
			<point x="399" y="709" type="qcurve"/>
			<point x="449" y="709"/>
			<point x="522" y="682"/>
			<point x="570" y="637"/>
			<point x="594" y="578"/>
			<point x="594" y="546" type="qcurve"/>
			<point x="594" y="487"/>
			<point x="521" y="393"/>
		</contour>
	</outline>
	<guideline x="112"/>
</glyph>
<glyph name="four" format="2">
	<unicode hex="0034"/>
	<advance width="568"/>
	<outline>
		<contour>
			<point x="404" y="264" type="line"/>
			<point x="218" y="264" type="line"/>
			<point x="287" y="365"/>
			<point x="390" y="474"/>
			<point x="472" y="547" type="curve"/>
		</contour>
		<contour>
			<point x="504" y="693" type="line"/>
			<point x="349" y="573"/>
			<point x="176" y="374"/>
			<point x="96" y="252" type="curve"/>
			<point x="76" y="166" type="line"/>
			<point x="378" y="166" type="line"/>
			<point x="339" y="0" type="line"/>
			<point x="455" y="0" type="line"/>
			<point x="495" y="166" type="line"/>
			<point x="572" y="166" type="line"/>
			<point x="596" y="264" type="line"/>
			<point x="519" y="264" type="line"/>
			<point x="622" y="693" type="line"/>
		</contour>
	</outline>
</glyph>
<glyph name="five" format="2">
	<unicode hex="0035"/>
	<advance width="568"/>
	<outline>
		<contour>
			<point x="114" y="128" type="line"/>
			<point x="139" y="114"/>
			<point x="213" y="89"/>
			<point x="259" y="89" type="qcurve"/>
			<point x="337" y="89"/>
			<point x="430" y="156"/>
			<point x="430" y="221" type="qcurve"/>
			<point x="430" y="256"/>
			<point x="392" y="302"/>
			<point x="326" y="329"/>
			<point x="235" y="341"/>
			<point x="182" y="342" type="qcurve"/>
			<point x="214" y="435"/>
			<point x="271" y="607"/>
			<point x="294" y="693" type="qcurve"/>
			<point x="641" y="693" type="line"/>
			<point x="617" y="592" type="line"/>
			<point x="373" y="592" type="line"/>
			<point x="367" y="573"/>
			<point x="353" y="528"/>
			<point x="339" y="484"/>
			<point x="326" y="444"/>
			<point x="321" y="430" type="qcurve"/>
			<point x="437" y="417"/>
			<point x="551" y="313"/>
			<point x="551" y="231" type="qcurve"/>
			<point x="551" y="177"/>
			<point x="515" y="87"/>
			<point x="442" y="22"/>
			<point x="332" y="-15"/>
			<point x="258" y="-15" type="qcurve"/>
			<point x="231" y="-15"/>
			<point x="176" y="-7"/>
			<point x="125" y="5"/>
			<point x="83" y="20"/>
			<point x="69" y="28" type="qcurve"/>
		</contour>
	</outline>
</glyph>
<glyph name="six" format="2">
	<unicode hex="0036"/>
	<advance width="568"/>
	<outline>
		<contour>
			<point x="463" y="246" type="qcurve"/>
			<point x="463" y="294"/>
			<point x="414" y="337"/>
			<point x="369" y="337" type="qcurve"/>
			<point x="307" y="337"/>
			<point x="249" y="311" type="qcurve"/>
			<point x="241" y="285"/>
			<point x="232" y="233"/>
			<point x="232" y="210" type="qcurve"/>
			<point x="232" y="155"/>
			<point x="277" y="85"/>
			<point x="328" y="85" type="qcurve"/>
			<point x="359" y="85"/>
			<point x="410" y="111"/>
			<point x="444" y="155"/>
			<point x="463" y="213"/>
		</contour>
		<contour>
			<point x="627" y="599" type="line"/>
			<point x="493" y="597"/>
			<point x="314" y="499"/>
			<point x="273" y="402" type="qcurve"/>
			<point x="300" y="415"/>
			<point x="370" y="432"/>
			<point x="405" y="432" type="qcurve"/>
			<point x="488" y="432"/>
			<point x="580" y="337"/>
			<point x="580" y="256" type="qcurve"/>
			<point x="580" y="199"/>
			<point x="544" y="100"/>
			<point x="475" y="27"/>
			<point x="377" y="-15"/>
			<point x="316" y="-15" type="qcurve"/>
			<point x="271" y="-15"/>
			<point x="197" y="15"/>
			<point x="144" y="72"/>
			<point x="115" y="154"/>
			<point x="115" y="207" type="qcurve"/>
			<point x="115" y="303"/>
			<point x="181" y="481"/>
			<point x="307" y="617"/>
			<point x="493" y="698"/>
			<point x="615" y="698" type="qcurve"/>
			<point x="620" y="698"/>
			<point x="634" y="698"/>
			<point x="642" y="697" type="qcurve"/>
		</contour>
	</outline>
</glyph>
<glyph name="seven" format="2">
	<unicode hex="0037"/>
	<advance width="568"/>
	<outline>
		<contour>
			<point x="142" y="0" type="line"/>
			<point x="163" y="77"/>
			<point x="242" y="245"/>
			<point x="340" y="404"/>
			<point x="447" y="542"/>
			<point x="496" y="589" type="qcurve"/>
			<point x="181" y="589" type="line"/>
			<point x="206" y="693" type="line"/>
			<point x="666" y="693" type="line"/>
			<point x="644" y="599" type="line"/>
			<point x="617" y="576"/>
			<point x="550" y="503"/>
			<point x="477" y="411"/>
			<point x="404" y="303"/>
			<point x="339" y="186"/>
			<point x="284" y="62"/>
			<point x="267" y="0" type="qcurve"/>
		</contour>
	</outline>
</glyph>
<glyph name="eight" format="2">
	<unicode hex="0038"/>
	<advance width="568"/>
	<outline>
		<contour>
			<point x="95" y="149" type="qcurve"/>
			<point x="95" y="215"/>
			<point x="173" y="321"/>
			<point x="251" y="365" type="qcurve"/>
			<point x="223" y="388"/>
			<point x="192" y="449"/>
			<point x="192" y="489" type="qcurve"/>
			<point x="192" y="531"/>
			<point x="223" y="610"/>
			<point x="285" y="672"/>
			<point x="375" y="709"/>
			<point x="435" y="709" type="qcurve"/>
			<point x="479" y="709"/>
			<point x="548" y="684"/>
			<point x="595" y="640"/>
			<point x="620" y="582"/>
			<point x="620" y="549" type="qcurve"/>
			<point x="620" y="492"/>
			<point x="556" y="389"/>
			<point x="477" y="350" type="qcurve"/>
			<point x="512" y="326"/>
			<point x="559" y="259"/>
			<point x="559" y="204" type="qcurve"/>
			<point x="559" y="160"/>
			<point x="525" y="80"/>
			<point x="458" y="20"/>
			<point x="359" y="-15"/>
			<point x="293" y="-15" type="qcurve"/>
			<point x="249" y="-15"/>
			<point x="177" y="8"/>
			<point x="124" y="50"/>
			<point x="95" y="111"/>
		</contour>
		<contour>
			<point x="441" y="198" type="qcurve"/>
			<point x="441" y="242"/>
			<point x="380" y="296"/>
			<point x="331" y="317" type="qcurve"/>
			<point x="272" y="291"/>
			<point x="212" y="209"/>
			<point x="212" y="166" type="qcurve"/>
			<point x="212" y="128"/>
			<point x="258" y="83"/>
			<point x="306" y="83" type="qcurve"/>
			<point x="333" y="83"/>
			<point x="382" y="100"/>
			<point x="419" y="130"/>
			<point x="441" y="172"/>
		</contour>
		<contour>
			<point x="306" y="498" type="qcurve"/>
			<point x="306" y="461"/>
			<point x="351" y="412"/>
			<point x="393" y="394" type="qcurve"/>
			<point x="447" y="420"/>
			<point x="505" y="489"/>
			<point x="505" y="533" type="qcurve"/>
			<point x="505" y="565"/>
			<point x="466" y="611"/>
			<point x="420" y="611" type="qcurve"/>
			<point x="395" y="611"/>
			<point x="353" y="594"/>
			<point x="323" y="563"/>
			<point x="306" y="522"/>
		</contour>
	</outline>
	<guideline x="60"/>
	<guideline x="279"/>
	<guideline x="499"/>
	<guideline y="172"/>
	<guideline y="526"/>
	<guideline x="278" y="0" angle="103.5"/>
</glyph>
<glyph name="nine" format="2">
	<unicode hex="0039"/>
	<advance width="568"/>
	<outline>
		<contour>
			<point x="264" y="449" type="qcurve"/>
			<point x="264" y="401"/>
			<point x="314" y="359"/>
			<point x="359" y="359" type="qcurve"/>
			<point x="419" y="359"/>
			<point x="479" y="385" type="qcurve"/>
			<point x="487" y="410"/>
			<point x="495" y="463"/>
			<point x="495" y="489" type="qcurve"/>
			<point x="495" y="540"/>
			<point x="449" y="609"/>
			<point x="399" y="609" type="qcurve"/>
			<point x="367" y="609"/>
			<point x="317" y="583"/>
			<point x="283" y="540"/>
			<point x="264" y="482"/>
		</contour>
		<contour>
			<point x="99" y="95" type="line"/>
			<point x="113" y="94"/>
			<point x="147" y="95"/>
			<point x="155" y="96" type="qcurve"/>
			<point x="273" y="107"/>
			<point x="417" y="203"/>
			<point x="455" y="294" type="qcurve"/>
			<point x="426" y="279"/>
			<point x="354" y="264"/>
			<point x="322" y="264" type="qcurve"/>
			<point x="239" y="264"/>
			<point x="147" y="359"/>
			<point x="147" y="439" type="qcurve"/>
			<point x="147" y="496"/>
			<point x="184" y="595"/>
			<point x="252" y="668"/>
			<point x="348" y="709"/>
			<point x="408" y="709" type="qcurve"/>
			<point x="501" y="709"/>
			<point x="612" y="593"/>
			<point x="612" y="487" type="qcurve"/>
			<point x="612" y="389"/>
			<point x="548" y="212"/>
			<point x="423" y="77"/>
			<point x="237" y="-3"/>
			<point x="115" y="-3" type="qcurve"/>
			<point x="108" y="-3"/>
			<point x="93" y="-3"/>
			<point x="82" y="-2" type="qcurve"/>
		</contour>
	</outline>
</glyph>
<glyph name="less" format="2">
	<unicode hex="003C"/>
	<advance width="568"/>
	<outline>
		<contour>
			<point x="129" y="337" type="line"/>
			<point x="600" y="519" type="line"/>
			<point x="608" y="416" type="line"/>
			<point x="244" y="283" type="line"/>
			<point x="542" y="145" type="line"/>
			<point x="489" y="53" type="line"/>
			<point x="106" y="239" type="line"/>
		</contour>
	</outline>
	<guideline x="43"/>
	<guideline x="492"/>
</glyph>
<glyph name="greater" format="2">
	<unicode hex="003E"/>
	<advance width="568"/>
	<outline>
		<contour>
			<point x="560" y="235" type="line"/>
			<point x="89" y="53" type="line"/>
			<point x="81" y="156" type="line"/>
			<point x="445" y="289" type="line"/>
			<point x="147" y="427" type="line"/>
			<point x="200" y="519" type="line"/>
			<point x="583" y="333" type="line"/>
		</contour>
	</outline>
	<guideline x="61" y="0" angle="103.5"/>
	<guideline x="510" y="0" angle="103.5"/>
</glyph>
<glyph name="question" format="2">
	<unicode hex="003F"/>
	<advance width="408"/>
	<outline>
		<contour>
			<point x="287" y="412" type="qcurve"/>
			<point x="306" y="427"/>
			<point x="344" y="457"/>
			<point x="375" y="490"/>
			<point x="394" y="527"/>
			<point x="394" y="549" type="qcurve"/>
			<point x="394" y="579"/>
			<point x="354" y="608"/>
			<point x="319" y="608" type="qcurve"/>
			<point x="277" y="608"/>
			<point x="205" y="584"/>
			<point x="183" y="572" type="qcurve"/>
			<point x="168" y="667" type="line"/>
			<point x="200" y="685"/>
			<point x="292" y="709"/>
			<point x="340" y="709" type="qcurve"/>
			<point x="423" y="709"/>
			<point x="515" y="631"/>
			<point x="515" y="565" type="qcurve"/>
			<point x="515" y="519"/>
			<point x="479" y="451"/>
			<point x="424" y="396"/>
			<point x="361" y="351"/>
			<point x="306" y="304"/>
			<point x="268" y="252"/>
			<point x="267" y="218" type="qcurve"/>
			<point x="161" y="218" type="line"/>
			<point x="162" y="252"/>
			<point x="181" y="305"/>
			<point x="214" y="349"/>
			<point x="260" y="390"/>
		</contour>
		<contour>
			<point x="200" y="146" type="qcurve"/>
			<point x="232" y="146"/>
			<point x="272" y="110"/>
			<point x="272" y="75" type="qcurve"/>
			<point x="272" y="55"/>
			<point x="257" y="22"/>
			<point x="233" y="-1"/>
			<point x="202" y="-13"/>
			<point x="186" y="-13" type="qcurve"/>
			<point x="154" y="-13"/>
			<point x="115" y="22"/>
			<point x="115" y="57" type="qcurve"/>
			<point x="115" y="99"/>
			<point x="167" y="146"/>
		</contour>
	</outline>
</glyph>
<glyph name="at" format="2">
	<unicode hex="0040"/>
	<advance width="942"/>
	<outline>
		<contour>
			<point x="628" y="-139" type="line"/>
			<point x="598" y="-147"/>
			<point x="507" y="-159"/>
			<point x="464" y="-159" type="qcurve"/>
			<point x="384" y="-159"/>
			<point x="253" y="-114"/>
			<point x="159" y="-29"/>
			<point x="108" y="94"/>
			<point x="108" y="173" type="qcurve"/>
			<point x="108" y="288"/>
			<point x="186" y="486"/>
			<point x="325" y="631"/>
			<point x="515" y="713"/>
			<point x="626" y="713" type="qcurve"/>
			<point x="701" y="713"/>
			<point x="827" y="673"/>
			<point x="919" y="592"/>
			<point x="971" y="472"/>
			<point x="971" y="391" type="qcurve"/>
			<point x="971" y="353"/>
			<point x="959" y="271"/>
			<point x="933" y="192"/>
			<point x="890" y="120"/>
			<point x="830" y="67"/>
			<point x="749" y="35"/>
			<point x="697" y="35" type="qcurve"/>
			<point x="637" y="35"/>
			<point x="609" y="72" type="qcurve"/>
			<point x="580" y="55"/>
			<point x="515" y="37"/>
			<point x="479" y="37" type="qcurve"/>
			<point x="402" y="37"/>
			<point x="313" y="132"/>
			<point x="313" y="217" type="qcurve"/>
			<point x="313" y="270"/>
			<point x="352" y="376"/>
			<point x="429" y="460"/>
			<point x="541" y="513"/>
			<point x="613" y="513" type="qcurve"/>
			<point x="668" y="513"/>
			<point x="746" y="494"/>
			<point x="770" y="484" type="qcurve"/>
			<point x="698" y="184" type="line"/>
			<point x="696" y="178"/>
			<point x="694" y="166"/>
			<point x="694" y="161" type="qcurve"/>
			<point x="694" y="130"/>
			<point x="730" y="130" type="qcurve"/>
			<point x="764" y="130"/>
			<point x="816" y="173"/>
			<point x="852" y="244"/>
			<point x="871" y="334"/>
			<point x="871" y="382" type="qcurve"/>
			<point x="871" y="500"/>
			<point x="739" y="626"/>
			<point x="613" y="626" type="qcurve"/>
			<point x="533" y="626"/>
			<point x="387" y="561"/>
			<point x="275" y="443"/>
			<point x="209" y="279"/>
			<point x="209" y="179" type="qcurve"/>
			<point x="209" y="110"/>
			<point x="251" y="15"/>
			<point x="324" y="-44"/>
			<point x="424" y="-71"/>
			<point x="482" y="-71" type="qcurve"/>
			<point x="529" y="-71"/>
			<point x="611" y="-58"/>
			<point x="634" y="-53" type="qcurve"/>
		</contour>
		<contour>
			<point x="584" y="149" type="qcurve"/>
			<point x="584" y="161"/>
			<point x="588" y="184"/>
			<point x="591" y="196" type="qcurve"/>
			<point x="644" y="416" type="line"/>
			<point x="627" y="421"/>
			<point x="594" y="421" type="qcurve"/>
			<point x="552" y="421"/>
			<point x="489" y="387"/>
			<point x="446" y="332"/>
			<point x="424" y="262"/>
			<point x="424" y="227" type="qcurve"/>
			<point x="424" y="129"/>
			<point x="503" y="129" type="qcurve"/>
			<point x="544" y="129"/>
		</contour>
	</outline>
</glyph>
<glyph name="A" format="2">
	<unicode hex="0041"/>
	<advance width="656"/>
	<outline>
		<contour>
			<point x="528" y="0" type="line"/>
			<point x="525" y="42"/>
			<point x="518" y="125"/>
			<point x="514" y="164" type="qcurve"/>
			<point x="233" y="164" type="line"/>
			<point x="210" y="125"/>
			<point x="165" y="44"/>
			<point x="142" y="0" type="qcurve"/>
			<point x="7" y="0" type="line"/>
			<point x="68" y="106"/>
			<point x="179" y="294"/>
			<point x="284" y="464"/>
			<point x="387" y="619"/>
			<point x="439" y="693" type="qcurve"/>
			<point x="556" y="693" type="line"/>
			<point x="588" y="544"/>
			<point x="634" y="191"/>
			<point x="655" y="0" type="qcurve"/>
		</contour>
		<contour>
			<point x="470" y="561" type="qcurve"/>
			<point x="432" y="502"/>
			<point x="339" y="355"/>
			<point x="287" y="264" type="qcurve"/>
			<point x="504" y="264" type="line"/>
			<point x="498" y="335"/>
			<point x="481" y="484"/>
		</contour>
	</outline>
	<guideline y="578"/>
</glyph>
<glyph name="B" format="2">
	<unicode hex="0042"/>
	<advance width="634"/>
	<outline>
		<contour>
			<point x="289" y="-8" type="curve" smooth="yes"/>
			<point x="518" y="-8"/>
			<point x="645" y="82"/>
			<point x="645" y="237" type="curve" smooth="yes"/>
			<point x="645" y="296"/>
			<point x="611" y="344"/>
			<point x="553" y="368" type="curve"/>
			<point x="646" y="406"/>
			<point x="682" y="474"/>
			<point x="682" y="544" type="curve" smooth="yes"/>
			<point x="682" y="673"/>
			<point x="550" y="700"/>
			<point x="438" y="700" type="curve" smooth="yes"/>
			<point x="371" y="700"/>
			<point x="302" y="695"/>
			<point x="242" y="682" type="curve"/>
			<point x="81" y="11" type="line"/>
			<point x="139" y="-2"/>
			<point x="222" y="-8"/>
		</contour>
		<contour>
			<point x="392" y="313" type="line" smooth="yes"/>
			<point x="481" y="313"/>
			<point x="517" y="277"/>
			<point x="517" y="226" type="curve" smooth="yes"/>
			<point x="516" y="116"/>
			<point x="404" y="95"/>
			<point x="315" y="95" type="curve" smooth="yes"/>
			<point x="278" y="95"/>
			<point x="245" y="97"/>
			<point x="227" y="100" type="curve"/>
			<point x="278" y="313" type="line"/>
		</contour>
		<contour>
			<point x="346" y="593" type="line"/>
			<point x="365" y="596"/>
			<point x="398" y="598"/>
			<point x="429" y="598" type="curve" smooth="yes"/>
			<point x="506" y="598"/>
			<point x="556" y="579"/>
			<point x="556" y="518" type="curve" smooth="yes"/>
			<point x="556" y="442"/>
			<point x="482" y="410"/>
			<point x="398" y="410" type="curve" smooth="yes"/>
			<point x="302" y="410" type="line"/>
		</contour>
	</outline>
	<guideline y="325"/>
	<guideline y="1000"/>
</glyph>
<glyph name="C" format="2">
	<unicode hex="0043"/>
	<advance width="606"/>
	<outline>
		<contour>
			<point x="585" y="136" type="line"/>
			<point x="545" y="117"/>
			<point x="490" y="95"/>
			<point x="411" y="95" type="curve" smooth="yes"/>
			<point x="307" y="95"/>
			<point x="252" y="154"/>
			<point x="252" y="277" type="curve" smooth="yes"/>
			<point x="252" y="438"/>
			<point x="355" y="600"/>
			<point x="523" y="600" type="curve" smooth="yes"/>
			<point x="584" y="600"/>
			<point x="631" y="585"/>
			<point x="674" y="560" type="curve"/>
			<point x="722" y="661" type="line"/>
			<point x="676" y="688"/>
			<point x="615" y="709"/>
			<point x="531" y="709" type="curve" smooth="yes"/>
			<point x="275" y="709"/>
			<point x="121" y="490"/>
			<point x="121" y="267" type="curve" smooth="yes"/>
			<point x="121" y="94"/>
			<point x="222" y="-15"/>
			<point x="392" y="-15" type="curve" smooth="yes"/>
			<point x="489" y="-15"/>
			<point x="556" y="7"/>
			<point x="600" y="30" type="curve"/>
		</contour>
	</outline>
</glyph>
<glyph name="D" format="2">
	<unicode hex="0044"/>
	<advance width="702"/>
	<outline>
		<contour>
			<point x="229" y="103" type="line"/>
			<point x="240" y="101"/>
			<point x="269" y="100"/>
			<point x="300" y="100" type="qcurve"/>
			<point x="372" y="100"/>
			<point x="488" y="146"/>
			<point x="569" y="231"/>
			<point x="613" y="350"/>
			<point x="613" y="423" type="qcurve"/>
			<point x="613" y="502"/>
			<point x="523" y="594"/>
			<point x="421" y="594" type="qcurve"/>
			<point x="395" y="594"/>
			<point x="364" y="592"/>
			<point x="346" y="590" type="qcurve"/>
		</contour>
		<contour>
			<point x="743" y="427" type="qcurve"/>
			<point x="743" y="334"/>
			<point x="683" y="174"/>
			<point x="565" y="58"/>
			<point x="388" y="-8"/>
			<point x="271" y="-8" type="qcurve"/>
			<point x="229" y="-8"/>
			<point x="125" y="1"/>
			<point x="81" y="11" type="qcurve"/>
			<point x="242" y="682" type="line"/>
			<point x="291" y="693"/>
			<point x="391" y="700"/>
			<point x="433" y="700" type="qcurve"/>
			<point x="509" y="700"/>
			<point x="625" y="661"/>
			<point x="703" y="590"/>
			<point x="743" y="489"/>
		</contour>
	</outline>
	<guideline y="75"/>
	<guideline y="618"/>
</glyph>
<glyph name="E" format="2">
	<unicode hex="0045"/>
	<advance width="572"/>
	<outline>
		<contour>
			<point x="532" y="0" type="line"/>
			<point x="557" y="105" type="line"/>
			<point x="229" y="105" type="line"/>
			<point x="279" y="311" type="line"/>
			<point x="548" y="311" type="line"/>
			<point x="573" y="414" type="line"/>
			<point x="303" y="414" type="line"/>
			<point x="344" y="588" type="line"/>
			<point x="649" y="588" type="line"/>
			<point x="674" y="693" type="line"/>
			<point x="244" y="693" type="line"/>
			<point x="78" y="0" type="line"/>
		</contour>
	</outline>
</glyph>
<glyph name="F" format="2">
	<unicode hex="0046"/>
	<advance width="540"/>
	<outline>
		<contour>
			<point x="204" y="0" type="line"/>
			<point x="277" y="304" type="line"/>
			<point x="543" y="304" type="line"/>
			<point x="568" y="408" type="line"/>
			<point x="301" y="408" type="line"/>
			<point x="344" y="588" type="line"/>
			<point x="646" y="588" type="line"/>
			<point x="671" y="693" type="line"/>
			<point x="244" y="693" type="line"/>
			<point x="78" y="0" type="line"/>
		</contour>
	</outline>
</glyph>
<glyph name="G" format="2">
	<unicode hex="0047"/>
	<advance width="655"/>
	<outline>
		<contour>
			<point x="412" y="94" type="qcurve"/>
			<point x="441" y="94"/>
			<point x="487" y="100"/>
			<point x="500" y="104" type="qcurve"/>
			<point x="559" y="352" type="line"/>
			<point x="684" y="352" type="line"/>
			<point x="604" y="20" type="line"/>
			<point x="578" y="8"/>
			<point x="467" y="-14"/>
			<point x="392" y="-14" type="qcurve"/>
			<point x="326" y="-14"/>
			<point x="224" y="25"/>
			<point x="156" y="98"/>
			<point x="121" y="202"/>
			<point x="121" y="267" type="qcurve"/>
			<point x="121" y="351"/>
			<point x="177" y="510"/>
			<point x="284" y="634"/>
			<point x="439" y="709"/>
			<point x="537" y="709" type="qcurve"/>
			<point x="607" y="709"/>
			<point x="706" y="675"/>
			<point x="736" y="655" type="qcurve"/>
			<point x="687" y="555" type="line"/>
			<point x="661" y="572"/>
			<point x="581" y="600"/>
			<point x="530" y="600" type="qcurve"/>
			<point x="464" y="600"/>
			<point x="361" y="544"/>
			<point x="289" y="453"/>
			<point x="252" y="337"/>
			<point x="252" y="277" type="qcurve"/>
			<point x="252" y="94"/>
		</contour>
	</outline>
</glyph>
<glyph name="H" format="2">
	<unicode hex="0048"/>
	<advance width="696"/>
	<outline>
		<contour>
			<point x="587" y="415" type="line"/>
			<point x="303" y="415" type="line"/>
			<point x="370" y="693" type="line"/>
			<point x="244" y="693" type="line"/>
			<point x="78" y="0" type="line"/>
			<point x="204" y="0" type="line"/>
			<point x="278" y="308" type="line"/>
			<point x="562" y="308" type="line"/>
			<point x="488" y="0" type="line"/>
			<point x="614" y="0" type="line"/>
			<point x="780" y="693" type="line"/>
			<point x="654" y="693" type="line"/>
		</contour>
	</outline>
</glyph>
<glyph name="J" format="2">
	<unicode hex="004A"/>
	<advance width="495"/>
	<outline>
		<contour>
			<point x="469" y="216" type="line"/>
			<point x="457" y="166"/>
			<point x="422" y="81"/>
			<point x="362" y="20"/>
			<point x="271" y="-15"/>
			<point x="202" y="-15" type="qcurve"/>
			<point x="141" y="-15"/>
			<point x="47" y="24"/>
			<point x="21" y="47" type="qcurve"/>
			<point x="79" y="142" type="line"/>
			<point x="99" y="125"/>
			<point x="159" y="94"/>
			<point x="204" y="94" type="qcurve"/>
			<point x="235" y="94"/>
			<point x="281" y="109"/>
			<point x="314" y="143"/>
			<point x="338" y="197"/>
			<point x="347" y="236" type="qcurve"/>
			<point x="456" y="693" type="line"/>
			<point x="583" y="693" type="line"/>
		</contour>
	</outline>
</glyph>
<glyph name="K" format="2">
	<unicode hex="004B"/>
	<advance width="634"/>
	<outline>
		<contour>
			<point x="494" y="0" type="line"/>
			<point x="474" y="40"/>
			<point x="425" y="127"/>
			<point x="370" y="210"/>
			<point x="309" y="284"/>
			<point x="279" y="312" type="qcurve"/>
			<point x="204" y="0" type="line"/>
			<point x="78" y="0" type="line"/>
			<point x="244" y="693" type="line"/>
			<point x="370" y="693" type="line"/>
			<point x="303" y="416" type="line"/>
			<point x="344" y="449"/>
			<point x="432" y="523"/>
			<point x="516" y="597"/>
			<point x="591" y="665"/>
			<point x="620" y="693" type="qcurve"/>
			<point x="773" y="693" type="line"/>
			<point x="732" y="655"/>
			<point x="639" y="571"/>
			<point x="542" y="484"/>
			<point x="443" y="399"/>
			<point x="395" y="361" type="qcurve"/>
			<point x="426" y="329"/>
			<point x="492" y="247"/>
			<point x="554" y="153"/>
			<point x="610" y="51"/>
			<point x="633" y="0" type="qcurve"/>
		</contour>
	</outline>
</glyph>
<glyph name="M" format="2">
	<unicode hex="004D"/>
	<advance width="862"/>
	<outline>
		<contour>
			<point x="396" y="693" type="line"/>
			<point x="405" y="658"/>
			<point x="428" y="547"/>
			<point x="451" y="421"/>
			<point x="474" y="293"/>
			<point x="483" y="241" type="qcurve"/>
			<point x="517" y="294"/>
			<point x="600" y="420"/>
			<point x="683" y="544"/>
			<point x="760" y="655"/>
			<point x="788" y="693" type="qcurve"/>
			<point x="907" y="693" type="line"/>
			<point x="899" y="617"/>
			<point x="877" y="445"/>
			<point x="848" y="265"/>
			<point x="816" y="84"/>
			<point x="800" y="0" type="qcurve"/>
			<point x="675" y="0" type="line"/>
			<point x="701" y="121"/>
			<point x="749" y="376"/>
			<point x="769" y="501" type="qcurve"/>
			<point x="752" y="477"/>
			<point x="708" y="409"/>
			<point x="658" y="334"/>
			<point x="606" y="254"/>
			<point x="557" y="179"/>
			<point x="515" y="115"/>
			<point x="500" y="92" type="qcurve"/>
			<point x="403" y="92" type="line"/>
			<point x="398" y="125"/>
			<point x="380" y="233"/>
			<point x="358" y="352"/>
			<point x="337" y="465"/>
			<point x="329" y="502" type="qcurve"/>
			<point x="288" y="377"/>
			<point x="217" y="120"/>
			<point x="185" y="0" type="qcurve"/>
			<point x="61" y="0" type="line"/>
			<point x="85" y="86"/>
			<point x="139" y="270"/>
			<point x="196" y="451"/>
			<point x="252" y="621"/>
			<point x="278" y="693" type="qcurve"/>
		</contour>
	</outline>
	<guideline y="149"/>
	<guideline y="536"/>
</glyph>
<glyph name="N" format="2">
	<unicode hex="004E"/>
	<advance width="719"/>
	<outline>
		<contour>
			<point x="535" y="0" type="line"/>
			<point x="516" y="58"/>
			<point x="467" y="192"/>
			<point x="412" y="326"/>
			<point x="353" y="453"/>
			<point x="323" y="506" type="qcurve"/>
			<point x="202" y="0" type="line"/>
			<point x="78" y="0" type="line"/>
			<point x="244" y="693" type="line"/>
			<point x="345" y="693" type="line"/>
			<point x="373" y="648"/>
			<point x="434" y="532"/>
			<point x="492" y="405"/>
			<point x="546" y="277"/>
			<point x="566" y="220" type="qcurve"/>
			<point x="677" y="693" type="line"/>
			<point x="802" y="693" type="line"/>
			<point x="636" y="0" type="line"/>
		</contour>
	</outline>
	<guideline x="173"/>
</glyph>
<glyph name="O" format="2">
	<unicode hex="004F"/>
	<advance width="742"/>
	<outline>
		<contour>
			<point x="505" y="600" type="qcurve"/>
			<point x="448" y="600"/>
			<point x="355" y="543"/>
			<point x="289" y="451"/>
			<point x="252" y="334"/>
			<point x="252" y="274" type="qcurve"/>
			<point x="252" y="192"/>
			<point x="322" y="94"/>
			<point x="399" y="94" type="qcurve"/>
			<point x="456" y="94"/>
			<point x="550" y="151"/>
			<point x="616" y="243"/>
			<point x="653" y="360"/>
			<point x="653" y="420" type="qcurve"/>
			<point x="653" y="502"/>
			<point x="582" y="600"/>
		</contour>
		<contour>
			<point x="386" y="-15" type="qcurve"/>
			<point x="328" y="-15"/>
			<point x="231" y="22"/>
			<point x="160" y="92"/>
			<point x="121" y="196"/>
			<point x="121" y="263" type="qcurve"/>
			<point x="121" y="343"/>
			<point x="173" y="503"/>
			<point x="274" y="630"/>
			<point x="422" y="709"/>
			<point x="518" y="709" type="qcurve"/>
			<point x="576" y="709"/>
			<point x="674" y="672"/>
			<point x="744" y="602"/>
			<point x="783" y="498"/>
			<point x="783" y="431" type="qcurve"/>
			<point x="783" y="351"/>
			<point x="731" y="191"/>
			<point x="631" y="64"/>
			<point x="482" y="-15"/>
		</contour>
	</outline>
	<guideline y="776"/>
	<guideline x="364" y="0" angle="103.5"/>
</glyph>
<glyph name="P" format="2">
	<unicode hex="0050"/>
	<advance width="605"/>
	<outline>
		<contour>
			<point x="427" y="700" type="qcurve"/>
			<point x="552" y="700"/>
			<point x="685" y="602"/>
			<point x="685" y="511" type="qcurve"/>
			<point x="685" y="439"/>
			<point x="630" y="338"/>
			<point x="533" y="274"/>
			<point x="398" y="245"/>
			<point x="317" y="245" type="qcurve"/>
			<point x="263" y="245" type="line"/>
			<point x="204" y="0" type="line"/>
			<point x="78" y="0" type="line"/>
			<point x="241" y="683" type="line"/>
			<point x="289" y="693"/>
			<point x="385" y="700"/>
		</contour>
		<contour>
			<point x="415" y="594" type="qcurve"/>
			<point x="396" y="594"/>
			<point x="362" y="592"/>
			<point x="345" y="590" type="qcurve"/>
			<point x="288" y="351" type="line"/>
			<point x="339" y="351" type="line"/>
			<point x="381" y="351"/>
			<point x="459" y="365"/>
			<point x="519" y="398"/>
			<point x="555" y="455"/>
			<point x="555" y="499" type="qcurve"/>
			<point x="555" y="550"/>
			<point x="480" y="594"/>
		</contour>
	</outline>
	<guideline x="552" y="0" angle="103.5"/>
</glyph>
<glyph name="Q" format="2">
	<unicode hex="0051"/>
	<advance width="742"/>
	<outline>
		<contour>
			<point x="634" y="-94" type="line"/>
			<point x="539" y="-86"/>
			<point x="451" y="-72"/>
			<point x="451" y="-17" type="curve"/>
			<point x="451" y="-14"/>
			<point x="451" y="-13"/>
			<point x="452" y="-9" type="curve"/>
			<point x="668" y="27"/>
			<point x="783" y="237"/>
			<point x="783" y="431" type="curve" smooth="yes"/>
			<point x="783" y="610"/>
			<point x="674" y="709"/>
			<point x="518" y="709" type="curve" smooth="yes"/>
			<point x="263" y="709"/>
			<point x="121" y="477"/>
			<point x="121" y="263" type="curve" smooth="yes"/>
			<point x="121" y="105"/>
			<point x="206" y="9"/>
			<point x="334" y="-10" type="curve"/>
			<point x="333" y="-16"/>
			<point x="333" y="-17"/>
			<point x="333" y="-20" type="curve" smooth="yes"/>
			<point x="333" y="-133"/>
			<point x="440" y="-176"/>
			<point x="594" y="-187" type="curve"/>
		</contour>
		<contour>
			<point x="505" y="600" type="curve" smooth="yes"/>
			<point x="608" y="600"/>
			<point x="653" y="529"/>
			<point x="653" y="420" type="curve" smooth="yes"/>
			<point x="653" y="259"/>
			<point x="551" y="94"/>
			<point x="399" y="94" type="curve" smooth="yes"/>
			<point x="296" y="94"/>
			<point x="252" y="165"/>
			<point x="252" y="274" type="curve" smooth="yes"/>
			<point x="252" y="435"/>
			<point x="354" y="600"/>
		</contour>
	</outline>
</glyph>
<glyph name="R" format="2">
	<unicode hex="0052"/>
	<advance width="624"/>
	<outline>
		<contour>
			<point x="429" y="700" type="qcurve"/>
			<point x="553" y="700"/>
			<point x="682" y="597"/>
			<point x="682" y="512" type="qcurve"/>
			<point x="682" y="474"/>
			<point x="661" y="405"/>
			<point x="616" y="346"/>
			<point x="545" y="300"/>
			<point x="495" y="285" type="qcurve"/>
			<point x="508" y="262"/>
			<point x="538" y="197"/>
			<point x="570" y="122"/>
			<point x="600" y="40"/>
			<point x="612" y="0" type="qcurve"/>
			<point x="479" y="0" type="line"/>
			<point x="467" y="36"/>
			<point x="441" y="110"/>
			<point x="413" y="179"/>
			<point x="384" y="240"/>
			<point x="370" y="264" type="qcurve"/>
			<point x="361" y="263"/>
			<point x="335" y="263"/>
			<point x="325" y="263" type="qcurve"/>
			<point x="267" y="263" type="line"/>
			<point x="204" y="0" type="line"/>
			<point x="78" y="0" type="line"/>
			<point x="241" y="683" type="line"/>
			<point x="289" y="693"/>
			<point x="388" y="700"/>
		</contour>
		<contour>
			<point x="554" y="498" type="qcurve"/>
			<point x="554" y="553"/>
			<point x="474" y="594"/>
			<point x="407" y="594" type="qcurve"/>
			<point x="393" y="594"/>
			<point x="361" y="592"/>
			<point x="345" y="590" type="qcurve"/>
			<point x="291" y="364" type="line"/>
			<point x="347" y="364" type="line"/>
			<point x="392" y="364"/>
			<point x="468" y="379"/>
			<point x="523" y="411"/>
			<point x="554" y="462"/>
		</contour>
	</outline>
</glyph>
<glyph name="S" format="2">
	<unicode hex="0053"/>
	<advance width="527"/>
	<outline>
		<contour>
			<point x="255" y="92" type="qcurve"/>
			<point x="282" y="92"/>
			<point x="335" y="102"/>
			<point x="378" y="126"/>
			<point x="404" y="167"/>
			<point x="404" y="198" type="qcurve"/>
			<point x="404" y="221"/>
			<point x="384" y="254"/>
			<point x="350" y="280"/>
			<point x="307" y="303"/>
			<point x="283" y="316" type="qcurve"/>
			<point x="257" y="329"/>
			<point x="210" y="362"/>
			<point x="174" y="404"/>
			<point x="153" y="460"/>
			<point x="153" y="498" type="qcurve"/>
			<point x="153" y="544"/>
			<point x="188" y="621"/>
			<point x="257" y="677"/>
			<point x="358" y="709"/>
			<point x="425" y="709" type="qcurve"/>
			<point x="456" y="709"/>
			<point x="513" y="699"/>
			<point x="563" y="684"/>
			<point x="601" y="666"/>
			<point x="612" y="658" type="qcurve"/>
			<point x="557" y="562" type="line"/>
			<point x="536" y="579"/>
			<point x="461" y="603"/>
			<point x="416" y="603" type="qcurve"/>
			<point x="389" y="603"/>
			<point x="340" y="592"/>
			<point x="303" y="569"/>
			<point x="282" y="532"/>
			<point x="282" y="507" type="qcurve"/>
			<point x="282" y="484"/>
			<point x="297" y="454"/>
			<point x="324" y="431"/>
			<point x="360" y="412"/>
			<point x="381" y="400" type="qcurve"/>
			<point x="412" y="383"/>
			<point x="467" y="349"/>
			<point x="509" y="305"/>
			<point x="534" y="248"/>
			<point x="534" y="208" type="qcurve"/>
			<point x="534" y="152"/>
			<point x="492" y="68"/>
			<point x="416" y="13"/>
			<point x="312" y="-15"/>
			<point x="250" y="-15" type="qcurve"/>
			<point x="209" y="-15"/>
			<point x="140" y="-3"/>
			<point x="86" y="15"/>
			<point x="47" y="35"/>
			<point x="36" y="43" type="qcurve"/>
			<point x="92" y="142" type="line"/>
			<point x="102" y="135"/>
			<point x="135" y="117"/>
			<point x="177" y="102"/>
			<point x="227" y="92"/>
		</contour>
	</outline>
</glyph>
<glyph name="U" format="2">
	<unicode hex="0055"/>
	<advance width="677"/>
	<outline>
		<contour>
			<point x="660" y="255" type="line"/>
			<point x="645" y="191"/>
			<point x="599" y="91"/>
			<point x="526" y="22"/>
			<point x="421" y="-15"/>
			<point x="347" y="-15" type="qcurve"/>
			<point x="289" y="-15"/>
			<point x="206" y="16"/>
			<point x="154" y="70"/>
			<point x="129" y="145"/>
			<point x="129" y="189" type="qcurve"/>
			<point x="129" y="212"/>
			<point x="136" y="268"/>
			<point x="143" y="294" type="qcurve"/>
			<point x="238" y="693" type="line"/>
			<point x="365" y="693" type="line"/>
			<point x="266" y="280" type="line"/>
			<point x="261" y="261"/>
			<point x="255" y="220"/>
			<point x="255" y="201" type="qcurve"/>
			<point x="255" y="179"/>
			<point x="266" y="140"/>
			<point x="292" y="112"/>
			<point x="334" y="95"/>
			<point x="365" y="95" type="qcurve"/>
			<point x="438" y="95"/>
			<point x="516" y="181"/>
			<point x="536" y="267" type="qcurve"/>
			<point x="638" y="693" type="line"/>
			<point x="765" y="693" type="line"/>
		</contour>
	</outline>
	<guideline x="335" y="0" angle="103.5"/>
</glyph>
<glyph name="V" format="2">
	<unicode hex="0056"/>
	<advance width="639"/>
	<outline>
		<contour>
			<point x="379" y="0" type="curve"/>
			<point x="259" y="0" type="line"/>
			<point x="218" y="214"/>
			<point x="186" y="447"/>
			<point x="163" y="693" type="curve"/>
			<point x="296" y="693" type="line"/>
			<point x="311" y="498"/>
			<point x="328" y="304"/>
			<point x="351" y="149" type="curve"/>
			<point x="449" y="299"/>
			<point x="567" y="506"/>
			<point x="657" y="693" type="curve"/>
			<point x="794" y="693" type="line"/>
			<point x="670" y="458"/>
			<point x="536" y="221"/>
		</contour>
	</outline>
</glyph>
<glyph name="W" format="2">
	<unicode hex="0057"/>
	<advance width="928"/>
	<outline>
		<contour>
			<point x="653" y="614" type="line"/>
			<point x="656" y="560"/>
			<point x="665" y="442"/>
			<point x="677" y="325"/>
			<point x="689" y="213"/>
			<point x="695" y="165" type="qcurve"/>
			<point x="723" y="218"/>
			<point x="783" y="345"/>
			<point x="843" y="481"/>
			<point x="901" y="624"/>
			<point x="928" y="693" type="qcurve"/>
			<point x="1062" y="693" type="line"/>
			<point x="983" y="500"/>
			<point x="822" y="156"/>
			<point x="732" y="0" type="qcurve"/>
			<point x="610" y="0" type="line"/>
			<point x="602" y="54"/>
			<point x="587" y="158"/>
			<point x="574" y="265"/>
			<point x="563" y="376"/>
			<point x="558" y="436" type="qcurve"/>
			<point x="496" y="321"/>
			<point x="375" y="106"/>
			<point x="307" y="0" type="qcurve"/>
			<point x="183" y="0" type="line"/>
			<point x="175" y="87"/>
			<point x="168" y="259"/>
			<point x="168" y="349" type="qcurve"/>
			<point x="168" y="513"/>
			<point x="180" y="693" type="qcurve"/>
			<point x="306" y="693" type="line"/>
			<point x="300" y="597"/>
			<point x="292" y="408"/>
			<point x="292" y="311" type="qcurve"/>
			<point x="292" y="275"/>
			<point x="292" y="202"/>
			<point x="294" y="165" type="qcurve"/>
			<point x="325" y="216"/>
			<point x="391" y="329"/>
			<point x="455" y="445"/>
			<point x="516" y="561"/>
			<point x="543" y="614" type="qcurve"/>
		</contour>
	</outline>
	<guideline x="449" y="0" angle="103.5"/>
</glyph>
<glyph name="X" format="2">
	<unicode hex="0058"/>
	<advance width="629"/>
	<outline>
		<contour>
			<point x="615" y="0" type="line"/>
			<point x="574" y="128"/>
			<point x="528" y="239"/>
			<point x="474" y="361" type="curve"/>
			<point x="564" y="463"/>
			<point x="667" y="584"/>
			<point x="744" y="693" type="curve"/>
			<point x="603" y="693" type="line"/>
			<point x="551" y="618"/>
			<point x="485" y="535"/>
			<point x="419" y="458" type="curve"/>
			<point x="325" y="693" type="line"/>
			<point x="186" y="693" type="line"/>
			<point x="327" y="373" type="line"/>
			<point x="10" y="0" type="line"/>
			<point x="156" y="0" type="line"/>
			<point x="379" y="267" type="line"/>
			<point x="419" y="180"/>
			<point x="448" y="104"/>
			<point x="481" y="0" type="curve"/>
		</contour>
	</outline>
	<guideline x="19"/>
	<guideline x="587"/>
</glyph>
<glyph name="Y" format="2">
	<unicode hex="0059"/>
	<advance width="595"/>
	<outline>
		<contour>
			<point x="382" y="387" type="qcurve"/>
			<point x="444" y="462"/>
			<point x="561" y="613"/>
			<point x="612" y="693" type="qcurve"/>
			<point x="754" y="693" type="line"/>
			<point x="715" y="638"/>
			<point x="637" y="534"/>
			<point x="556" y="431"/>
			<point x="470" y="329"/>
			<point x="424" y="276" type="qcurve"/>
			<point x="358" y="0" type="line"/>
			<point x="232" y="0" type="line"/>
			<point x="298" y="276" type="line"/>
			<point x="257" y="381"/>
			<point x="190" y="588"/>
			<point x="161" y="693" type="qcurve"/>
			<point x="295" y="693" type="line"/>
			<point x="312" y="616"/>
			<point x="356" y="462"/>
		</contour>
	</outline>
	<guideline y="283"/>
</glyph>
<glyph name="Z" format="2">
	<unicode hex="005A"/>
	<advance width="577"/>
	<outline>
		<contour>
			<point x="681" y="600" type="line"/>
			<point x="640" y="564"/>
			<point x="521" y="448"/>
			<point x="391" y="313"/>
			<point x="263" y="170"/>
			<point x="212" y="106" type="qcurve"/>
			<point x="571" y="106" type="line"/>
			<point x="546" y="0" type="line"/>
			<point x="32" y="0" type="line"/>
			<point x="51" y="79" type="line"/>
			<point x="79" y="116"/>
			<point x="150" y="203"/>
			<point x="229" y="295"/>
			<point x="314" y="388"/>
			<point x="398" y="476"/>
			<point x="477" y="555"/>
			<point x="511" y="587" type="qcurve"/>
			<point x="189" y="587" type="line"/>
			<point x="214" y="693" type="line"/>
			<point x="703" y="693" type="line"/>
		</contour>
	</outline>
	<guideline x="49"/>
	<guideline x="504"/>
</glyph>
<glyph name="bracketleft" format="2">
	<unicode hex="005B"/>
	<advance width="340"/>
	<outline>
		<contour>
			<point x="277" y="783" type="line"/>
			<point x="523" y="783" type="line"/>
			<point x="500" y="687" type="line"/>
			<point x="369" y="687" type="line"/>
			<point x="182" y="-89" type="line"/>
			<point x="314" y="-89" type="line"/>
			<point x="290" y="-185" type="line"/>
			<point x="45" y="-185" type="line"/>
		</contour>
	</outline>
</glyph>
<glyph name="bracketright" format="2">
	<unicode hex="005D"/>
	<advance width="340"/>
	<outline>
		<contour>
			<point x="202" y="-185" type="line"/>
			<point x="-44" y="-185" type="line"/>
			<point x="-21" y="-89" type="line"/>
			<point x="110" y="-89" type="line"/>
			<point x="297" y="687" type="line"/>
			<point x="165" y="687" type="line"/>
			<point x="189" y="783" type="line"/>
			<point x="434" y="783" type="line"/>
		</contour>
	</outline>
</glyph>
<glyph name="underscore" format="2">
	<unicode hex="005F"/>
	<advance width="500"/>
	<outline>
		<contour>
			<point x="-43" y="-185" type="line"/>
			<point x="456" y="-185" type="line"/>
			<point x="480" y="-84" type="line"/>
			<point x="-20" y="-84" type="line"/>
		</contour>
	</outline>
	<guideline x="495" y="0" angle="103.5"/>
</glyph>
<glyph name="grave" format="2">
	<unicode hex="0060"/>
	<advance width="313"/>
	<outline>
		<contour>
			<point x="224" y="789" type="line"/>
			<point x="372" y="632" type="line"/>
			<point x="316" y="576" type="line"/>
			<point x="150" y="710" type="line"/>
		</contour>
	</outline>
</glyph>
<glyph name="c" format="2">
	<unicode hex="0063"/>
	<advance width="459"/>
	<outline>
		<contour>
			<point x="97" y="198" type="qcurve"/>
			<point x="97" y="266"/>
			<point x="140" y="389"/>
			<point x="220" y="482"/>
			<point x="336" y="536"/>
			<point x="410" y="536" type="qcurve"/>
			<point x="449" y="536"/>
			<point x="514" y="523"/>
			<point x="543" y="510" type="qcurve"/>
			<point x="500" y="413" type="line"/>
			<point x="482" y="421"/>
			<point x="438" y="433"/>
			<point x="406" y="433" type="qcurve"/>
			<point x="363" y="433"/>
			<point x="294" y="398"/>
			<point x="246" y="338"/>
			<point x="220" y="256"/>
			<point x="220" y="210" type="qcurve"/>
			<point x="220" y="184"/>
			<point x="231" y="141"/>
			<point x="256" y="108"/>
			<point x="300" y="90"/>
			<point x="333" y="90" type="qcurve"/>
			<point x="367" y="90"/>
			<point x="430" y="108"/>
			<point x="447" y="117" type="qcurve"/>
			<point x="457" y="18" type="line"/>
			<point x="434" y="7"/>
			<point x="358" y="-14"/>
			<point x="310" y="-14" type="qcurve"/>
			<point x="255" y="-14"/>
			<point x="175" y="19"/>
			<point x="122" y="76"/>
			<point x="97" y="153"/>
		</contour>
	</outline>
	<guideline x="423"/>
</glyph>
<glyph name="d" format="2">
	<unicode hex="0064"/>
	<advance width="572"/>
	<outline>
		<contour>
			<point x="273" y="-14" type="qcurve"/>
			<point x="226" y="-14"/>
			<point x="158" y="17"/>
			<point x="115" y="71"/>
			<point x="95" y="145"/>
			<point x="95" y="188" type="qcurve"/>
			<point x="95" y="255"/>
			<point x="142" y="380"/>
			<point x="229" y="475"/>
			<point x="355" y="532"/>
			<point x="435" y="532" type="qcurve"/>
			<point x="445" y="532"/>
			<point x="473" y="530"/>
			<point x="490" y="526" type="qcurve"/>
			<point x="545" y="756" type="line"/>
			<point x="671" y="776" type="line"/>
			<point x="534" y="209" type="line"/>
			<point x="529" y="186"/>
			<point x="524" y="139"/>
			<point x="524" y="118" type="qcurve"/>
			<point x="524" y="91"/>
			<point x="534" y="37"/>
			<point x="545" y="8" type="qcurve"/>
			<point x="437" y="-8" type="line"/>
			<point x="426" y="13"/>
			<point x="418" y="43" type="qcurve"/>
			<point x="393" y="21"/>
			<point x="321" y="-14"/>
		</contour>
		<contour>
			<point x="466" y="428" type="line"/>
			<point x="447" y="432"/>
			<point x="420" y="432" type="qcurve"/>
			<point x="374" y="432"/>
			<point x="298" y="393"/>
			<point x="244" y="328"/>
			<point x="215" y="244"/>
			<point x="215" y="199" type="qcurve"/>
			<point x="215" y="176"/>
			<point x="224" y="136"/>
			<point x="244" y="106"/>
			<point x="277" y="88"/>
			<point x="301" y="88" type="qcurve"/>
			<point x="333" y="88"/>
			<point x="382" y="114"/>
			<point x="404" y="137" type="qcurve"/>
			<point x="405" y="158"/>
			<point x="412" y="204"/>
			<point x="417" y="226" type="qcurve"/>
		</contour>
	</outline>
	<guideline y="760"/>
</glyph>
<glyph name="e" format="2">
	<unicode hex="0065"/>
	<advance width="523"/>
	<outline>
		<contour>
			<point x="97" y="189" type="curve" smooth="yes"/>
			<point x="97" y="78"/>
			<point x="159" y="-14"/>
			<point x="308" y="-14" type="curve" smooth="yes"/>
			<point x="382" y="-14"/>
			<point x="444" y="4"/>
			<point x="476" y="19" type="curve"/>
			<point x="466" y="117" type="line"/>
			<point x="420" y="98"/>
			<point x="375" y="89"/>
			<point x="330" y="89" type="curve" smooth="yes"/>
			<point x="252" y="89"/>
			<point x="215" y="120"/>
			<point x="215" y="180" type="curve"/>
			<point x="215" y="182"/>
			<point x="215" y="186"/>
			<point x="216" y="194" type="curve"/>
			<point x="386" y="199"/>
			<point x="565" y="228"/>
			<point x="566" y="397" type="curve" smooth="yes"/>
			<point x="566" y="478"/>
			<point x="507" y="536"/>
			<point x="406" y="536" type="curve" smooth="yes"/>
			<point x="217" y="536"/>
			<point x="97" y="368"/>
		</contour>
		<contour>
			<point x="388" y="437" type="curve" smooth="yes"/>
			<point x="436" y="437"/>
			<point x="453" y="411"/>
			<point x="453" y="385" type="curve" smooth="yes"/>
			<point x="453" y="318"/>
			<point x="384" y="286"/>
			<point x="224" y="281" type="curve"/>
			<point x="244" y="368"/>
			<point x="307" y="437"/>
		</contour>
	</outline>
</glyph>
<glyph name="f" format="2">
	<unicode hex="0066"/>
	<advance width="388"/>
	<outline>
		<contour>
			<point x="322" y="523" type="line"/>
			<point x="497" y="523" type="line"/>
			<point x="473" y="423" type="line"/>
			<point x="298" y="423" type="line"/>
			<point x="223" y="110" type="line"/>
			<point x="210" y="56"/>
			<point x="187" y="-28"/>
			<point x="157" y="-98"/>
			<point x="116" y="-159"/>
			<point x="85" y="-189" type="qcurve"/>
			<point x="-20" y="-173" type="line"/>
			<point x="-1" y="-149"/>
			<point x="32" y="-100"/>
			<point x="59" y="-45"/>
			<point x="82" y="20"/>
			<point x="91" y="60" type="qcurve"/>
			<point x="210" y="560" type="line"/>
			<point x="222" y="611"/>
			<point x="263" y="692"/>
			<point x="324" y="747"/>
			<point x="409" y="776"/>
			<point x="465" y="776" type="qcurve"/>
			<point x="505" y="776"/>
			<point x="570" y="759"/>
			<point x="587" y="751" type="qcurve"/>
			<point x="543" y="656" type="line"/>
			<point x="530" y="662"/>
			<point x="487" y="673"/>
			<point x="458" y="673" type="qcurve"/>
			<point x="428" y="673"/>
			<point x="386" y="656"/>
			<point x="356" y="626"/>
			<point x="337" y="583"/>
			<point x="331" y="558" type="qcurve"/>
		</contour>
	</outline>
	<guideline x="359"/>
	<guideline y="-189"/>
	<guideline y="-171"/>
</glyph>
<glyph name="g" format="2">
	<unicode hex="0067"/>
	<advance width="569"/>
	<outline>
		<contour>
			<point x="220" y="-86" type="curve" smooth="yes"/>
			<point x="159" y="-86"/>
			<point x="112" y="-71"/>
			<point x="76" y="-50" type="curve"/>
			<point x="33" y="-148" type="line"/>
			<point x="76" y="-171"/>
			<point x="133" y="-188"/>
			<point x="203" y="-188" type="curve" smooth="yes"/>
			<point x="399" y="-188"/>
			<point x="469" y="-102"/>
			<point x="506" y="55" type="curve" smooth="yes"/>
			<point x="612" y="499" type="line"/>
			<point x="565" y="524"/>
			<point x="502" y="535"/>
			<point x="452" y="535" type="curve" smooth="yes"/>
			<point x="244" y="535"/>
			<point x="105" y="393"/>
			<point x="105" y="202" type="curve" smooth="yes"/>
			<point x="105" y="97"/>
			<point x="162" y="28"/>
			<point x="278" y="28" type="curve" smooth="yes"/>
			<point x="319" y="28"/>
			<point x="359" y="42"/>
			<point x="385" y="55" type="curve"/>
			<point x="382" y="41" type="line" smooth="yes"/>
			<point x="365" y="-37"/>
			<point x="318" y="-86"/>
		</contour>
		<contour>
			<point x="308" y="126" type="curve" smooth="yes"/>
			<point x="248" y="126"/>
			<point x="225" y="162"/>
			<point x="225" y="220" type="curve" smooth="yes"/>
			<point x="225" y="337"/>
			<point x="308" y="433"/>
			<point x="430" y="433" type="curve" smooth="yes"/>
			<point x="445" y="433"/>
			<point x="461" y="431"/>
			<point x="475" y="428" type="curve"/>
			<point x="411" y="161" type="line"/>
			<point x="386" y="141"/>
			<point x="344" y="126"/>
		</contour>
	</outline>
	<guideline y="531"/>
</glyph>
<glyph name="h" format="2">
	<unicode hex="0068"/>
	<advance width="563"/>
	<outline>
		<contour>
			<point x="73" y="0" type="line"/>
			<point x="254" y="756" type="line"/>
			<point x="380" y="776" type="line"/>
			<point x="318" y="519" type="line"/>
			<point x="338" y="524"/>
			<point x="385" y="533"/>
			<point x="408" y="533" type="qcurve"/>
			<point x="452" y="533"/>
			<point x="515" y="508"/>
			<point x="556" y="464"/>
			<point x="575" y="402"/>
			<point x="575" y="366" type="qcurve"/>
			<point x="575" y="323"/>
			<point x="563" y="275" type="qcurve"/>
			<point x="497" y="0" type="line"/>
			<point x="376" y="0" type="line"/>
			<point x="439" y="262" type="line"/>
			<point x="444" y="285"/>
			<point x="454" y="333"/>
			<point x="454" y="354" type="qcurve"/>
			<point x="454" y="387"/>
			<point x="419" y="432"/>
			<point x="370" y="432" type="qcurve"/>
			<point x="350" y="432"/>
			<point x="310" y="425"/>
			<point x="294" y="420" type="qcurve"/>
			<point x="194" y="0" type="line"/>
		</contour>
	</outline>
</glyph>
<glyph name="i" format="2">
	<unicode hex="0069"/>
	<advance width="271"/>
	<outline>
		<contour>
			<point x="319" y="523" type="line"/>
			<point x="198" y="523" type="line"/>
			<point x="73" y="0" type="line"/>
			<point x="193" y="0" type="line"/>
		</contour>
		<contour>
			<point x="283" y="602" type="curve" smooth="yes"/>
			<point x="327" y="602"/>
			<point x="368" y="637"/>
			<point x="368" y="686" type="curve" smooth="yes"/>
			<point x="368" y="728"/>
			<point x="336" y="751"/>
			<point x="300" y="751" type="curve" smooth="yes"/>
			<point x="256" y="751"/>
			<point x="216" y="715"/>
			<point x="216" y="666" type="curve" smooth="yes"/>
			<point x="216" y="624"/>
			<point x="247" y="602"/>
		</contour>
	</outline>
	<guideline y="614"/>
	<guideline y="736"/>
</glyph>
<glyph name="j" format="2">
	<unicode hex="006A"/>
	<advance width="276"/>
	<outline>
		<contour>
			<point x="289" y="602" type="qcurve"/>
			<point x="262" y="602"/>
			<point x="222" y="634"/>
			<point x="222" y="666" type="qcurve"/>
			<point x="222" y="703"/>
			<point x="273" y="751"/>
			<point x="306" y="751" type="qcurve"/>
			<point x="333" y="751"/>
			<point x="374" y="718"/>
			<point x="374" y="686" type="qcurve"/>
			<point x="374" y="649"/>
			<point x="322" y="602"/>
		</contour>
		<contour>
			<point x="203" y="19" type="line"/>
			<point x="190" y="-35"/>
			<point x="155" y="-113"/>
			<point x="104" y="-163"/>
			<point x="35" y="-187"/>
			<point x="-13" y="-187" type="qcurve"/>
			<point x="-36" y="-187"/>
			<point x="-85" y="-176"/>
			<point x="-102" y="-168" type="qcurve"/>
			<point x="-72" y="-71" type="line"/>
			<point x="-60" y="-76"/>
			<point x="-29" y="-84"/>
			<point x="-11" y="-84" type="qcurve"/>
			<point x="30" y="-84"/>
			<point x="72" y="-27"/>
			<point x="83" y="21" type="qcurve"/>
			<point x="203" y="523" type="line"/>
			<point x="324" y="523" type="line"/>
		</contour>
	</outline>
</glyph>
<glyph name="l" format="2">
	<unicode hex="006C"/>
	<advance width="298"/>
	<outline>
		<contour>
			<point x="273" y="-10" type="line"/>
			<point x="226" y="-9"/>
			<point x="161" y="13"/>
			<point x="122" y="51"/>
			<point x="105" y="103"/>
			<point x="105" y="134" type="qcurve"/>
			<point x="105" y="166"/>
			<point x="120" y="237"/>
			<point x="129" y="272" type="qcurve"/>
			<point x="245" y="756" type="line"/>
			<point x="371" y="776" type="line"/>
			<point x="340" y="645"/>
			<point x="278" y="386"/>
			<point x="246" y="255" type="qcurve"/>
			<point x="241" y="234"/>
			<point x="229" y="193"/>
			<point x="229" y="173" type="qcurve"/>
			<point x="229" y="156"/>
			<point x="230" y="127"/>
			<point x="245" y="106"/>
			<point x="275" y="92"/>
			<point x="299" y="90" type="qcurve"/>
		</contour>
	</outline>
	<guideline x="263" y="0" angle="103.5"/>
</glyph>
<glyph name="m" format="2">
	<unicode hex="006D"/>
	<advance width="842"/>
	<outline>
		<contour>
			<point x="193" y="501" type="line"/>
			<point x="233" y="513"/>
			<point x="333" y="534"/>
			<point x="393" y="534" type="qcurve"/>
			<point x="438" y="534"/>
			<point x="499" y="508"/>
			<point x="520" y="484" type="qcurve"/>
			<point x="549" y="501"/>
			<point x="632" y="534"/>
			<point x="685" y="534" type="qcurve"/>
			<point x="731" y="534"/>
			<point x="795" y="508"/>
			<point x="835" y="462"/>
			<point x="853" y="399"/>
			<point x="853" y="362" type="qcurve"/>
			<point x="853" y="321"/>
			<point x="842" y="275" type="qcurve"/>
			<point x="776" y="0" type="line"/>
			<point x="655" y="0" type="line"/>
			<point x="717" y="262" type="line"/>
			<point x="722" y="281"/>
			<point x="731" y="326"/>
			<point x="731" y="349" type="qcurve"/>
			<point x="731" y="365"/>
			<point x="724" y="396"/>
			<point x="706" y="418"/>
			<point x="675" y="432"/>
			<point x="651" y="432" type="qcurve"/>
			<point x="625" y="432"/>
			<point x="575" y="412"/>
			<point x="558" y="401" type="qcurve"/>
			<point x="562" y="382"/>
			<point x="562" y="360" type="qcurve"/>
			<point x="562" y="340"/>
			<point x="556" y="296"/>
			<point x="551" y="275" type="qcurve"/>
			<point x="485" y="0" type="line"/>
			<point x="364" y="0" type="line"/>
			<point x="426" y="262" type="line"/>
			<point x="431" y="280"/>
			<point x="440" y="327"/>
			<point x="440" y="350" type="qcurve"/>
			<point x="440" y="383"/>
			<point x="409" y="432"/>
			<point x="366" y="432" type="qcurve"/>
			<point x="346" y="432"/>
			<point x="310" y="427"/>
			<point x="295" y="423" type="qcurve"/>
			<point x="194" y="0" type="line"/>
			<point x="73" y="0" type="line"/>
		</contour>
	</outline>
	<guideline x="271"/>
	<guideline y="440"/>
</glyph>
<glyph name="n" format="2">
	<unicode hex="006E"/>
	<advance width="563"/>
	<outline>
		<contour>
			<point x="73" y="0" type="line"/>
			<point x="194" y="0" type="line"/>
			<point x="295" y="423" type="line"/>
			<point x="316" y="429"/>
			<point x="342" y="432"/>
			<point x="369" y="432" type="curve" smooth="yes"/>
			<point x="437" y="432"/>
			<point x="455" y="397"/>
			<point x="454" y="351" type="curve" smooth="yes"/>
			<point x="453" y="323"/>
			<point x="445" y="291"/>
			<point x="438" y="262" type="curve" smooth="yes"/>
			<point x="376" y="0" type="line"/>
			<point x="497" y="0" type="line"/>
			<point x="563" y="275" type="line" smooth="yes"/>
			<point x="570" y="308"/>
			<point x="575" y="340"/>
			<point x="575" y="368" type="curve" smooth="yes"/>
			<point x="575" y="469"/>
			<point x="519" y="534"/>
			<point x="397" y="534" type="curve" smooth="yes"/>
			<point x="316" y="534"/>
			<point x="246" y="517"/>
			<point x="193" y="501" type="curve"/>
		</contour>
	</outline>
	<guideline x="484"/>
</glyph>
<glyph name="o" format="2">
	<unicode hex="006F"/>
	<advance width="563"/>
	<outline>
		<contour>
			<point x="288" y="-14" type="qcurve"/>
			<point x="195" y="-14"/>
			<point x="97" y="96"/>
			<point x="97" y="186" type="qcurve"/>
			<point x="97" y="244"/>
			<point x="133" y="368"/>
			<point x="207" y="470"/>
			<point x="319" y="536"/>
			<point x="395" y="536" type="qcurve"/>
			<point x="488" y="536"/>
			<point x="586" y="427"/>
			<point x="586" y="337" type="qcurve"/>
			<point x="586" y="278"/>
			<point x="551" y="154"/>
			<point x="478" y="52"/>
			<point x="365" y="-14"/>
		</contour>
		<contour>
			<point x="380" y="434" type="qcurve"/>
			<point x="341" y="434"/>
			<point x="280" y="389"/>
			<point x="239" y="319"/>
			<point x="217" y="236"/>
			<point x="217" y="197" type="qcurve"/>
			<point x="217" y="147"/>
			<point x="255" y="89"/>
			<point x="303" y="89" type="qcurve"/>
			<point x="342" y="89"/>
			<point x="403" y="134"/>
			<point x="444" y="203"/>
			<point x="466" y="287"/>
			<point x="466" y="325" type="qcurve"/>
			<point x="466" y="375"/>
			<point x="428" y="434"/>
		</contour>
	</outline>
	<guideline y="-13"/>
	<guideline y="66"/>
	<guideline y="454"/>
	<guideline y="533"/>
</glyph>
<glyph name="q" format="2">
	<unicode hex="0071"/>
	<advance width="565"/>
	<outline>
		<contour>
			<point x="95" y="189" type="qcurve"/>
			<point x="95" y="261"/>
			<point x="144" y="387"/>
			<point x="235" y="480"/>
			<point x="366" y="534"/>
			<point x="447" y="534" type="qcurve"/>
			<point x="484" y="534"/>
			<point x="568" y="518"/>
			<point x="608" y="500" type="qcurve"/>
			<point x="444" y="-185" type="line"/>
			<point x="323" y="-185" type="line"/>
			<point x="370" y="12" type="line"/>
			<point x="347" y="1"/>
			<point x="295" y="-12"/>
			<point x="268" y="-12" type="qcurve"/>
			<point x="185" y="-12"/>
			<point x="95" y="97"/>
		</contour>
		<contour>
			<point x="470" y="428" type="line"/>
			<point x="461" y="430"/>
			<point x="437" y="433"/>
			<point x="426" y="433" type="qcurve"/>
			<point x="377" y="433"/>
			<point x="299" y="395"/>
			<point x="244" y="331"/>
			<point x="215" y="246"/>
			<point x="215" y="199" type="qcurve"/>
			<point x="215" y="149"/>
			<point x="254" y="90"/>
			<point x="301" y="90" type="qcurve"/>
			<point x="325" y="90"/>
			<point x="373" y="104"/>
			<point x="396" y="121" type="qcurve"/>
		</contour>
	</outline>
</glyph>
<glyph name="r" format="2">
	<unicode hex="0072"/>
	<advance width="399"/>
	<outline>
		<contour>
			<point x="460" y="416" type="line"/>
			<point x="440" y="423"/>
			<point x="394" y="431"/>
			<point x="363" y="431" type="qcurve"/>
			<point x="346" y="431"/>
			<point x="308" y="426"/>
			<point x="295" y="422" type="qcurve"/>
			<point x="194" y="0" type="line"/>
			<point x="73" y="0" type="line"/>
			<point x="193" y="499" type="line"/>
			<point x="235" y="513"/>
			<point x="333" y="534"/>
			<point x="390" y="534" type="qcurve"/>
			<point x="402" y="534"/>
			<point x="432" y="531"/>
			<point x="461" y="527"/>
			<point x="486" y="521"/>
			<point x="495" y="517" type="qcurve"/>
		</contour>
	</outline>
</glyph>
<glyph name="s" format="2">
	<unicode hex="0073"/>
	<advance width="438"/>
	<outline>
		<contour>
			<point x="224" y="85" type="qcurve"/>
			<point x="272" y="85"/>
			<point x="328" y="116"/>
			<point x="328" y="148" type="qcurve"/>
			<point x="328" y="174"/>
			<point x="292" y="205"/>
			<point x="247" y="226" type="qcurve"/>
			<point x="223" y="237"/>
			<point x="182" y="261"/>
			<point x="152" y="293"/>
			<point x="134" y="336"/>
			<point x="134" y="366" type="qcurve"/>
			<point x="134" y="444"/>
			<point x="248" y="536"/>
			<point x="356" y="536" type="qcurve"/>
			<point x="406" y="536"/>
			<point x="485" y="515"/>
			<point x="505" y="504" type="qcurve"/>
			<point x="462" y="410" type="line"/>
			<point x="445" y="420"/>
			<point x="381" y="439"/>
			<point x="346" y="439" type="qcurve"/>
			<point x="329" y="439"/>
			<point x="296" y="433"/>
			<point x="270" y="419"/>
			<point x="253" y="394"/>
			<point x="253" y="376" type="qcurve"/>
			<point x="253" y="353"/>
			<point x="290" y="324"/>
			<point x="325" y="308" type="qcurve"/>
			<point x="358" y="293"/>
			<point x="404" y="265"/>
			<point x="434" y="230"/>
			<point x="448" y="187"/>
			<point x="448" y="157" type="qcurve"/>
			<point x="448" y="120"/>
			<point x="418" y="57"/>
			<point x="361" y="12"/>
			<point x="277" y="-14"/>
			<point x="223" y="-14" type="qcurve"/>
			<point x="186" y="-14"/>
			<point x="127" y="-4"/>
			<point x="83" y="9"/>
			<point x="53" y="23"/>
			<point x="45" y="28" type="qcurve"/>
			<point x="88" y="123" type="line"/>
			<point x="95" y="119"/>
			<point x="122" y="106"/>
			<point x="157" y="94"/>
			<point x="200" y="85"/>
		</contour>
	</outline>
	<guideline x="386"/>
</glyph>
<glyph name="t" format="2">
	<unicode hex="0074"/>
	<advance width="401"/>
	<outline>
		<contour>
			<point x="218" y="661" type="line"/>
			<point x="344" y="681" type="line"/>
			<point x="306" y="523" type="line"/>
			<point x="477" y="523" type="line"/>
			<point x="453" y="423" type="line"/>
			<point x="282" y="423" type="line"/>
			<point x="232" y="216" type="line"/>
			<point x="227" y="194"/>
			<point x="223" y="165"/>
			<point x="223" y="153" type="qcurve"/>
			<point x="223" y="141"/>
			<point x="228" y="118"/>
			<point x="243" y="101"/>
			<point x="272" y="90"/>
			<point x="297" y="90" type="qcurve"/>
			<point x="324" y="90"/>
			<point x="374" y="104"/>
			<point x="393" y="112" type="qcurve"/>
			<point x="402" y="15" type="line"/>
			<point x="379" y="5"/>
			<point x="309" y="-13"/>
			<point x="262" y="-13" type="qcurve"/>
			<point x="176" y="-13"/>
			<point x="102" y="62"/>
			<point x="102" y="127" type="qcurve"/>
			<point x="102" y="151"/>
			<point x="109" y="202"/>
			<point x="116" y="231" type="qcurve"/>
		</contour>
	</outline>
	<guideline x="345"/>
	<guideline y="153"/>
	<guideline y="442"/>
	<guideline y="681"/>
	<guideline x="352" y="0" angle="103.5"/>
</glyph>
<glyph name="v" format="2">
	<unicode hex="0076"/>
	<advance width="511"/>
	<outline>
		<contour>
			<point x="299" y="0" type="line"/>
			<point x="406" y="123"/>
			<point x="544" y="340"/>
			<point x="608" y="523" type="curve"/>
			<point x="482" y="523" type="line"/>
			<point x="446" y="405"/>
			<point x="350" y="230"/>
			<point x="280" y="139" type="curve"/>
			<point x="262" y="242"/>
			<point x="250" y="406"/>
			<point x="248" y="523" type="curve"/>
			<point x="124" y="523" type="line"/>
			<point x="132" y="321"/>
			<point x="162" y="135"/>
			<point x="195" y="0" type="curve"/>
		</contour>
	</outline>
</glyph>
<glyph name="w" format="2">
	<unicode hex="0077"/>
	<advance width="811"/>
	<outline>
		<contour>
			<point x="488" y="331" type="qcurve"/>
			<point x="469" y="288"/>
			<point x="421" y="197"/>
			<point x="369" y="110"/>
			<point x="317" y="31"/>
			<point x="295" y="0" type="qcurve"/>
			<point x="195" y="0" type="line"/>
			<point x="186" y="46"/>
			<point x="169" y="164"/>
			<point x="155" y="298"/>
			<point x="144" y="446"/>
			<point x="142" y="523" type="qcurve"/>
			<point x="262" y="523" type="line"/>
			<point x="262" y="481"/>
			<point x="264" y="384"/>
			<point x="269" y="283"/>
			<point x="276" y="185"/>
			<point x="282" y="142" type="qcurve"/>
			<point x="310" y="185"/>
			<point x="365" y="282"/>
			<point x="415" y="381"/>
			<point x="458" y="479"/>
			<point x="474" y="523" type="qcurve"/>
			<point x="578" y="523" type="line"/>
			<point x="578" y="482"/>
			<point x="580" y="390"/>
			<point x="585" y="292"/>
			<point x="592" y="191"/>
			<point x="598" y="142" type="qcurve"/>
			<point x="624" y="180"/>
			<point x="678" y="278"/>
			<point x="728" y="381"/>
			<point x="769" y="482"/>
			<point x="782" y="523" type="qcurve"/>
			<point x="908" y="523" type="line"/>
			<point x="887" y="463"/>
			<point x="826" y="328"/>
			<point x="750" y="190"/>
			<point x="663" y="57"/>
			<point x="616" y="0" type="qcurve"/>
			<point x="516" y="0" type="line"/>
			<point x="505" y="84"/>
			<point x="490" y="247"/>
		</contour>
	</outline>
	<guideline y="405"/>
</glyph>
<glyph name="x" format="2">
	<unicode hex="0078"/>
	<advance width="499"/>
	<outline>
		<contour>
			<point x="246" y="523" type="line"/>
			<point x="329" y="347" type="line"/>
			<point x="367" y="393"/>
			<point x="433" y="481"/>
			<point x="460" y="523" type="qcurve"/>
			<point x="585" y="523" type="line"/>
			<point x="543" y="461"/>
			<point x="441" y="332"/>
			<point x="381" y="266" type="qcurve"/>
			<point x="417" y="197"/>
			<point x="477" y="66"/>
			<point x="500" y="0" type="qcurve"/>
			<point x="378" y="0" type="line"/>
			<point x="362" y="47"/>
			<point x="321" y="141"/>
			<point x="300" y="183" type="qcurve"/>
			<point x="141" y="0" type="line"/>
			<point x="9" y="0" type="line"/>
			<point x="248" y="268" type="line"/>
			<point x="119" y="523" type="line"/>
		</contour>
	</outline>
	<guideline x="-10"/>
</glyph>
<glyph name="y" format="2">
	<unicode hex="0079"/>
	<advance width="494"/>
	<outline>
		<contour>
			<point x="583" y="523" type="line"/>
			<point x="563" y="466"/>
			<point x="515" y="343"/>
			<point x="456" y="219"/>
			<point x="388" y="96"/>
			<point x="349" y="38" type="qcurve"/>
			<point x="320" y="-6"/>
			<point x="258" y="-87"/>
			<point x="185" y="-149"/>
			<point x="97" y="-187"/>
			<point x="41" y="-187" type="qcurve"/>
			<point x="10" y="-187"/>
			<point x="-39" y="-173"/>
			<point x="-56" y="-164" type="qcurve"/>
			<point x="-17" y="-67" type="line"/>
			<point x="-3" y="-75"/>
			<point x="32" y="-85"/>
			<point x="53" y="-85" type="qcurve"/>
			<point x="100" y="-85"/>
			<point x="171" y="-36"/>
			<point x="200" y="6" type="qcurve"/>
			<point x="168" y="117"/>
			<point x="124" y="377"/>
			<point x="117" y="523" type="qcurve"/>
			<point x="239" y="523" type="line"/>
			<point x="240" y="481"/>
			<point x="247" y="379"/>
			<point x="258" y="272"/>
			<point x="274" y="168"/>
			<point x="284" y="124" type="qcurve"/>
			<point x="314" y="172"/>
			<point x="366" y="278"/>
			<point x="410" y="383"/>
			<point x="443" y="482"/>
			<point x="455" y="523" type="qcurve"/>
		</contour>
	</outline>
</glyph>
<glyph name="z" format="2">
	<unicode hex="007A"/>
	<advance width="468"/>
	<outline>
		<contour>
			<point x="537" y="440" type="line"/>
			<point x="520" y="425"/>
			<point x="469" y="378"/>
			<point x="409" y="320"/>
			<point x="343" y="255"/>
			<point x="279" y="189"/>
			<point x="221" y="126"/>
			<point x="199" y="100" type="qcurve"/>
			<point x="460" y="100" type="line"/>
			<point x="436" y="0" type="line"/>
			<point x="30" y="0" type="line"/>
			<point x="48" y="73" type="line"/>
			<point x="78" y="113"/>
			<point x="161" y="209"/>
			<point x="251" y="304"/>
			<point x="340" y="391"/>
			<point x="375" y="423" type="qcurve"/>
			<point x="143" y="423" type="line"/>
			<point x="167" y="523" type="line"/>
			<point x="557" y="523" type="line"/>
		</contour>
	</outline>
	<guideline x="13"/>
	<guideline y="442"/>
</glyph>
<glyph name="braceleft" format="2">
	<unicode hex="007B"/>
	<advance width="356"/>
	<outline>
		<contour>
			<point x="122" y="346" type="line"/>
			<point x="152" y="346"/>
			<point x="194" y="365"/>
			<point x="223" y="396"/>
			<point x="240" y="436"/>
			<point x="245" y="457" type="qcurve"/>
			<point x="278" y="592" type="line"/>
			<point x="290" y="642"/>
			<point x="326" y="714"/>
			<point x="385" y="761"/>
			<point x="471" y="783"/>
			<point x="533" y="783" type="qcurve"/>
			<point x="540" y="783" type="line"/>
			<point x="516" y="687" type="line"/>
			<point x="486" y="687"/>
			<point x="444" y="679"/>
			<point x="416" y="659"/>
			<point x="398" y="624"/>
			<point x="391" y="596" type="qcurve"/>
			<point x="353" y="436" type="line"/>
			<point x="340" y="383"/>
			<point x="291" y="318"/>
			<point x="243" y="299" type="qcurve"/>
			<point x="270" y="282"/>
			<point x="291" y="237"/>
			<point x="291" y="209" type="qcurve"/>
			<point x="291" y="194"/>
			<point x="286" y="162"/>
			<point x="282" y="145" type="qcurve"/>
			<point x="248" y="1" type="line"/>
			<point x="242" y="-25"/>
			<point x="242" y="-41" type="qcurve"/>
			<point x="242" y="-71"/>
			<point x="282" y="-89"/>
			<point x="329" y="-89" type="qcurve"/>
			<point x="305" y="-185" type="line"/>
			<point x="262" y="-185"/>
			<point x="196" y="-174"/>
			<point x="151" y="-147"/>
			<point x="127" y="-101"/>
			<point x="127" y="-66" type="qcurve"/>
			<point x="127" y="-47"/>
			<point x="132" y="-24" type="qcurve"/>
			<point x="168" y="122" type="line"/>
			<point x="176" y="159"/>
			<point x="176" y="184" type="qcurve"/>
			<point x="176" y="219"/>
			<point x="137" y="249"/>
			<point x="99" y="251" type="qcurve"/>
		</contour>
	</outline>
	<guideline x="153"/>
	<guideline x="48" y="0" angle="103.5"/>
</glyph>
<glyph name="bar" format="2">
	<unicode hex="007C"/>
	<advance width="297"/>
	<outline>
		<contour>
			<point x="278" y="783" type="line"/>
			<point x="391" y="783" type="line"/>
			<point x="158" y="-185" type="line"/>
			<point x="45" y="-185" type="line"/>
		</contour>
	</outline>
	<guideline x="95"/>
</glyph>
<glyph name="braceright" format="2">
	<unicode hex="007D"/>
	<advance width="356"/>
	<outline>
		<contour>
			<point x="373" y="252" type="line"/>
			<point x="343" y="252"/>
			<point x="301" y="233"/>
			<point x="272" y="202"/>
			<point x="255" y="162"/>
			<point x="250" y="141" type="qcurve"/>
			<point x="217" y="6" type="line"/>
			<point x="205" y="-44"/>
			<point x="169" y="-117"/>
			<point x="110" y="-163"/>
			<point x="24" y="-185"/>
			<point x="-38" y="-185" type="qcurve"/>
			<point x="-45" y="-185" type="line"/>
			<point x="-21" y="-89" type="line"/>
			<point x="9" y="-89"/>
			<point x="50" y="-81"/>
			<point x="79" y="-61"/>
			<point x="97" y="-26"/>
			<point x="104" y="2" type="qcurve"/>
			<point x="142" y="162" type="line"/>
			<point x="155" y="215"/>
			<point x="204" y="280"/>
			<point x="252" y="299" type="qcurve"/>
			<point x="225" y="316"/>
			<point x="204" y="361"/>
			<point x="204" y="389" type="qcurve"/>
			<point x="204" y="404"/>
			<point x="209" y="436"/>
			<point x="213" y="453" type="qcurve"/>
			<point x="247" y="597" type="line"/>
			<point x="253" y="622"/>
			<point x="253" y="639" type="qcurve"/>
			<point x="253" y="669"/>
			<point x="213" y="687"/>
			<point x="166" y="687" type="qcurve"/>
			<point x="190" y="783" type="line"/>
			<point x="233" y="783"/>
			<point x="299" y="772"/>
			<point x="344" y="745"/>
			<point x="368" y="699"/>
			<point x="368" y="664" type="qcurve"/>
			<point x="368" y="645"/>
			<point x="363" y="622" type="qcurve"/>
			<point x="327" y="476" type="line"/>
			<point x="319" y="439"/>
			<point x="319" y="414" type="qcurve"/>
			<point x="319" y="379"/>
			<point x="358" y="349"/>
			<point x="396" y="347" type="qcurve"/>
		</contour>
	</outline>
</glyph>
<glyph name="asciitilde" format="2">
	<unicode hex="007E"/>
	<advance width="568"/>
	<outline>
		<contour>
			<point x="435" y="202" type="qcurve"/>
			<point x="401" y="202"/>
			<point x="353" y="227"/>
			<point x="313" y="257"/>
			<point x="276" y="282"/>
			<point x="252" y="282" type="qcurve"/>
			<point x="226" y="282"/>
			<point x="192" y="243"/>
			<point x="174" y="206" type="qcurve"/>
			<point x="95" y="230" type="line"/>
			<point x="104" y="258"/>
			<point x="134" y="315"/>
			<point x="178" y="360"/>
			<point x="235" y="388"/>
			<point x="271" y="388" type="qcurve"/>
			<point x="305" y="388"/>
			<point x="353" y="363"/>
			<point x="393" y="333"/>
			<point x="430" y="308"/>
			<point x="454" y="308" type="qcurve"/>
			<point x="480" y="308"/>
			<point x="514" y="347"/>
			<point x="532" y="384" type="qcurve"/>
			<point x="611" y="360" type="line"/>
			<point x="600" y="330"/>
			<point x="570" y="274"/>
			<point x="528" y="229"/>
			<point x="471" y="202"/>
		</contour>
	</outline>
	<guideline y="204"/>
	<guideline y="369"/>
	<guideline x="52" y="0" angle="103.5"/>
</glyph>
<glyph name="exclamdown" format="2">
	<unicode hex="00A1"/>
	<advance width="266"/>
	<outline>
		<contour>
			<point x="227" y="366" type="qcurve"/>
			<point x="195" y="366"/>
			<point x="156" y="401"/>
			<point x="156" y="436" type="qcurve"/>
			<point x="156" y="478"/>
			<point x="209" y="525"/>
			<point x="242" y="525" type="qcurve"/>
			<point x="274" y="525"/>
			<point x="313" y="489"/>
			<point x="313" y="454" type="qcurve"/>
			<point x="313" y="434"/>
			<point x="298" y="401"/>
			<point x="274" y="378"/>
			<point x="243" y="366"/>
		</contour>
		<contour>
			<point x="70" y="4" type="line"/>
			<point x="78" y="37"/>
			<point x="99" y="112"/>
			<point x="123" y="190"/>
			<point x="149" y="264"/>
			<point x="161" y="295" type="qcurve"/>
			<point x="246" y="295" type="line"/>
			<point x="238" y="225"/>
			<point x="218" y="86"/>
			<point x="198" y="4" type="qcurve"/>
			<point x="154" y="-180" type="line"/>
			<point x="26" y="-180" type="line"/>
		</contour>
	</outline>
</glyph>
<glyph name="cent" format="2">
	<unicode hex="00A2"/>
	<advance width="568"/>
	<outline>
		<contour>
			<point x="509" y="62" type="line"/>
			<point x="486" y="51"/>
			<point x="420" y="32"/>
			<point x="383" y="30" type="qcurve"/>
			<point x="350" y="-109" type="line"/>
			<point x="238" y="-109" type="line"/>
			<point x="274" y="40" type="line"/>
			<point x="217" y="58"/>
			<point x="154" y="151"/>
			<point x="154" y="229" type="qcurve"/>
			<point x="154" y="288"/>
			<point x="189" y="394"/>
			<point x="252" y="478"/>
			<point x="341" y="537"/>
			<point x="396" y="549" type="qcurve"/>
			<point x="430" y="693" type="line"/>
			<point x="542" y="693" type="line"/>
			<point x="508" y="553" type="line"/>
			<point x="531" y="550"/>
			<point x="574" y="537"/>
			<point x="595" y="526" type="qcurve"/>
			<point x="553" y="431" type="line"/>
			<point x="513" y="454"/>
			<point x="459" y="454" type="qcurve"/>
			<point x="418" y="454"/>
			<point x="351" y="420"/>
			<point x="303" y="360"/>
			<point x="277" y="279"/>
			<point x="277" y="233" type="qcurve"/>
			<point x="277" y="183"/>
			<point x="327" y="131"/>
			<point x="379" y="131" type="qcurve"/>
			<point x="413" y="131"/>
			<point x="480" y="150"/>
			<point x="500" y="160" type="qcurve"/>
		</contour>
	</outline>
</glyph>
<glyph name="sterling" format="2">
	<unicode hex="00A3"/>
	<advance width="568"/>
	<outline>
		<contour>
			<point x="375" y="458" type="line" smooth="yes"/>
			<point x="403" y="573"/>
			<point x="452" y="603"/>
			<point x="519" y="603" type="curve" smooth="yes"/>
			<point x="555" y="603"/>
			<point x="587" y="594"/>
			<point x="618" y="579" type="curve"/>
			<point x="669" y="671" type="line"/>
			<point x="637" y="689"/>
			<point x="585" y="706"/>
			<point x="526" y="706" type="curve" smooth="yes"/>
			<point x="400" y="706"/>
			<point x="306" y="653"/>
			<point x="261" y="473" type="curve" smooth="yes"/>
			<point x="238" y="383" type="line"/>
			<point x="148" y="383" type="line"/>
			<point x="125" y="285" type="line"/>
			<point x="215" y="285" type="line"/>
			<point x="196" y="199"/>
			<point x="160" y="101"/>
			<point x="117" y="0" type="curve"/>
			<point x="531" y="0" type="line"/>
			<point x="556" y="102" type="line"/>
			<point x="275" y="102" type="line"/>
			<point x="294" y="150"/>
			<point x="313" y="206"/>
			<point x="326" y="256" type="curve" smooth="yes"/>
			<point x="334" y="285" type="line"/>
			<point x="516" y="285" type="line"/>
			<point x="540" y="383" type="line"/>
			<point x="357" y="383" type="line"/>
		</contour>
	</outline>
</glyph>
<glyph name="currency" format="2">
	<unicode hex="00A4"/>
	<advance width="568"/>
	<outline>
		<contour>
			<point x="360" y="541" type="qcurve"/>
			<point x="416" y="541"/>
			<point x="459" y="518" type="qcurve"/>
			<point x="533" y="591" type="line"/>
			<point x="609" y="516" type="line"/>
			<point x="536" y="445" type="line"/>
			<point x="561" y="401"/>
			<point x="561" y="347" type="qcurve"/>
			<point x="561" y="291"/>
			<point x="536" y="249" type="qcurve"/>
			<point x="609" y="177" type="line"/>
			<point x="533" y="102" type="line"/>
			<point x="458" y="175" type="line"/>
			<point x="414" y="152"/>
			<point x="360" y="152" type="qcurve"/>
			<point x="304" y="152"/>
			<point x="261" y="175" type="qcurve"/>
			<point x="187" y="103" type="line"/>
			<point x="112" y="177" type="line"/>
			<point x="184" y="248" type="line"/>
			<point x="160" y="290"/>
			<point x="160" y="347" type="qcurve"/>
			<point x="160" y="403"/>
			<point x="184" y="445" type="qcurve"/>
			<point x="112" y="516" type="line"/>
			<point x="188" y="591" type="line"/>
			<point x="262" y="518" type="line"/>
			<point x="304" y="541"/>
		</contour>
		<contour>
			<point x="360" y="241" type="qcurve"/>
			<point x="402" y="241"/>
			<point x="460" y="296"/>
			<point x="460" y="347" type="qcurve"/>
			<point x="460" y="397"/>
			<point x="402" y="452"/>
			<point x="360" y="452" type="qcurve"/>
			<point x="318" y="452"/>
			<point x="260" y="397"/>
			<point x="260" y="347" type="qcurve"/>
			<point x="260" y="296"/>
			<point x="318" y="241"/>
		</contour>
	</outline>
</glyph>
<glyph name="yen" format="2">
	<unicode hex="00A5"/>
	<advance width="568"/>
	<outline>
		<contour>
			<point x="517" y="108" type="line"/>
			<point x="363" y="108" type="line"/>
			<point x="337" y="0" type="line"/>
			<point x="214" y="0" type="line"/>
			<point x="240" y="108" type="line"/>
			<point x="86" y="108" type="line"/>
			<point x="106" y="191" type="line"/>
			<point x="260" y="191" type="line"/>
			<point x="280" y="277" type="line"/>
			<point x="127" y="277" type="line"/>
			<point x="147" y="360" type="line"/>
			<point x="274" y="360" type="line"/>
			<point x="241" y="445"/>
			<point x="184" y="617"/>
			<point x="166" y="693" type="qcurve"/>
			<point x="290" y="693" type="line"/>
			<point x="305" y="622"/>
			<point x="346" y="480"/>
			<point x="373" y="408" type="qcurve"/>
			<point x="429" y="474"/>
			<point x="535" y="618"/>
			<point x="583" y="693" type="qcurve"/>
			<point x="716" y="693" type="line"/>
			<point x="658" y="608"/>
			<point x="528" y="440"/>
			<point x="459" y="360" type="qcurve"/>
			<point x="577" y="360" type="line"/>
			<point x="557" y="277" type="line"/>
			<point x="403" y="277" type="line"/>
			<point x="383" y="191" type="line"/>
			<point x="537" y="191" type="line"/>
		</contour>
	</outline>
</glyph>
<glyph name="brokenbar" format="2">
	<unicode hex="00A6"/>
	<advance width="297"/>
	<outline>
		<contour>
			<point x="45" y="-185" type="line"/>
			<point x="158" y="-185" type="line"/>
			<point x="252" y="205" type="line"/>
			<point x="139" y="205" type="line"/>
		</contour>
		<contour>
			<point x="184" y="393" type="line"/>
			<point x="297" y="393" type="line"/>
			<point x="391" y="783" type="line"/>
			<point x="278" y="783" type="line"/>
		</contour>
	</outline>
	<guideline x="99"/>
	<guideline y="198"/>
</glyph>
<glyph name="section" format="2">
	<unicode hex="00A7"/>
	<advance width="492"/>
	<outline>
		<contour>
			<point x="107" y="286" type="qcurve"/>
			<point x="107" y="337"/>
			<point x="175" y="429"/>
			<point x="229" y="458" type="qcurve"/>
			<point x="215" y="474"/>
			<point x="199" y="517"/>
			<point x="199" y="540" type="qcurve"/>
			<point x="199" y="576"/>
			<point x="230" y="638"/>
			<point x="288" y="683"/>
			<point x="372" y="709"/>
			<point x="425" y="709" type="qcurve"/>
			<point x="472" y="709"/>
			<point x="551" y="689"/>
			<point x="581" y="673" type="qcurve"/>
			<point x="538" y="584" type="line"/>
			<point x="514" y="596"/>
			<point x="456" y="613"/>
			<point x="421" y="613" type="qcurve"/>
			<point x="403" y="613"/>
			<point x="366" y="606"/>
			<point x="336" y="590"/>
			<point x="317" y="564"/>
			<point x="317" y="544" type="qcurve"/>
			<point x="317" y="530"/>
			<point x="331" y="510"/>
			<point x="353" y="494"/>
			<point x="380" y="482"/>
			<point x="393" y="476" type="qcurve"/>
			<point x="424" y="463"/>
			<point x="474" y="436"/>
			<point x="508" y="401"/>
			<point x="526" y="357"/>
			<point x="526" y="327" type="qcurve"/>
			<point x="526" y="281"/>
			<point x="472" y="199"/>
			<point x="430" y="170" type="qcurve"/>
			<point x="424" y="165"/>
			<point x="411" y="158"/>
			<point x="404" y="154" type="qcurve"/>
			<point x="419" y="137"/>
			<point x="439" y="94"/>
			<point x="439" y="65" type="qcurve"/>
			<point x="439" y="30"/>
			<point x="409" y="-33"/>
			<point x="350" y="-81"/>
			<point x="261" y="-110"/>
			<point x="201" y="-110" type="qcurve"/>
			<point x="151" y="-110"/>
			<point x="61" y="-89"/>
			<point x="29" y="-70" type="qcurve"/>
			<point x="72" y="19" type="line"/>
			<point x="97" y="5"/>
			<point x="164" y="-14"/>
			<point x="203" y="-14" type="qcurve"/>
			<point x="264" y="-14"/>
			<point x="323" y="28"/>
			<point x="323" y="58" type="qcurve"/>
			<point x="323" y="98"/>
			<point x="283" y="117" type="qcurve"/>
			<point x="243" y="137"/>
			<point x="178" y="167"/>
			<point x="132" y="202"/>
			<point x="107" y="249"/>
		</contour>
		<contour>
			<point x="216" y="303" type="qcurve"/>
			<point x="216" y="283"/>
			<point x="234" y="258"/>
			<point x="266" y="237"/>
			<point x="311" y="217"/>
			<point x="337" y="202" type="qcurve"/>
			<point x="369" y="220"/>
			<point x="416" y="275"/>
			<point x="416" y="309" type="qcurve"/>
			<point x="416" y="329"/>
			<point x="398" y="356"/>
			<point x="365" y="377"/>
			<point x="321" y="397"/>
			<point x="295" y="411" type="qcurve"/>
			<point x="265" y="394"/>
			<point x="216" y="337"/>
		</contour>
	</outline>
</glyph>
<glyph name="dieresis" format="2">
	<unicode hex="00A8"/>
	<advance width="458"/>
	<outline>
		<contour>
			<point x="451" y="609" type="qcurve"/>
			<point x="425" y="609"/>
			<point x="391" y="641"/>
			<point x="391" y="667" type="qcurve"/>
			<point x="391" y="684"/>
			<point x="404" y="713"/>
			<point x="424" y="733"/>
			<point x="450" y="744"/>
			<point x="463" y="744" type="qcurve"/>
			<point x="489" y="744"/>
			<point x="524" y="711"/>
			<point x="524" y="683" type="qcurve"/>
			<point x="524" y="667"/>
			<point x="511" y="640"/>
			<point x="490" y="620"/>
			<point x="464" y="609"/>
		</contour>
		<contour>
			<point x="245" y="609" type="qcurve"/>
			<point x="219" y="609"/>
			<point x="185" y="641"/>
			<point x="185" y="667" type="qcurve"/>
			<point x="185" y="684"/>
			<point x="198" y="713"/>
			<point x="218" y="733"/>
			<point x="244" y="744"/>
			<point x="257" y="744" type="qcurve"/>
			<point x="283" y="744"/>
			<point x="318" y="711"/>
			<point x="318" y="683" type="qcurve"/>
			<point x="318" y="667"/>
			<point x="305" y="640"/>
			<point x="284" y="620"/>
			<point x="258" y="609"/>
		</contour>
	</outline>
	<guideline y="616"/>
</glyph>
<glyph name="copyright" format="2">
	<unicode hex="00A9"/>
	<advance width="814"/>
	<outline>
		<contour>
			<point x="829" y="347" type="qcurve"/>
			<point x="829" y="262"/>
			<point x="773" y="127"/>
			<point x="678" y="34"/>
			<point x="553" y="-15"/>
			<point x="484" y="-15" type="qcurve"/>
			<point x="415" y="-15"/>
			<point x="290" y="34"/>
			<point x="195" y="127"/>
			<point x="139" y="262"/>
			<point x="139" y="347" type="qcurve"/>
			<point x="139" y="432"/>
			<point x="195" y="567"/>
			<point x="290" y="660"/>
			<point x="415" y="709"/>
			<point x="484" y="709" type="qcurve"/>
			<point x="553" y="709"/>
			<point x="678" y="660"/>
			<point x="773" y="567"/>
			<point x="829" y="432"/>
		</contour>
		<contour>
			<point x="741" y="347" type="qcurve"/>
			<point x="741" y="410"/>
			<point x="703" y="513"/>
			<point x="635" y="587"/>
			<point x="541" y="627"/>
			<point x="484" y="627" type="qcurve"/>
			<point x="427" y="627"/>
			<point x="333" y="587"/>
			<point x="264" y="513"/>
			<point x="226" y="410"/>
			<point x="226" y="347" type="qcurve"/>
			<point x="226" y="284"/>
			<point x="264" y="180"/>
			<point x="333" y="106"/>
			<point x="427" y="66"/>
			<point x="484" y="66" type="qcurve"/>
			<point x="541" y="66"/>
			<point x="635" y="106"/>
			<point x="703" y="180"/>
			<point x="741" y="284"/>
		</contour>
		<contour>
			<point x="498" y="150" type="qcurve"/>
			<point x="410" y="150"/>
			<point x="310" y="253"/>
			<point x="310" y="348" type="qcurve"/>
			<point x="310" y="394"/>
			<point x="339" y="468"/>
			<point x="389" y="518"/>
			<point x="457" y="545"/>
			<point x="496" y="545" type="qcurve"/>
			<point x="547" y="545"/>
			<point x="609" y="518"/>
			<point x="618" y="512" type="qcurve"/>
			<point x="591" y="438" type="line"/>
			<point x="578" y="446"/>
			<point x="534" y="461"/>
			<point x="502" y="461" type="qcurve"/>
			<point x="460" y="461"/>
			<point x="406" y="404"/>
			<point x="406" y="350" type="qcurve"/>
			<point x="406" y="326"/>
			<point x="417" y="284"/>
			<point x="441" y="252"/>
			<point x="478" y="234"/>
			<point x="504" y="234" type="qcurve"/>
			<point x="539" y="234"/>
			<point x="585" y="249"/>
			<point x="599" y="256" type="qcurve"/>
			<point x="622" y="180" type="line"/>
			<point x="611" y="173"/>
			<point x="544" y="150"/>
		</contour>
	</outline>
	<guideline x="416"/>
	<guideline y="347"/>
</glyph>
<glyph name="ordfeminine" format="2">
	<unicode hex="00AA"/>
	<advance width="430"/>
	<outline>
		<contour>
			<point x="420" y="625" type="line"/>
			<point x="416" y="627"/>
			<point x="402" y="628"/>
			<point x="396" y="628" type="qcurve"/>
			<point x="363" y="628"/>
			<point x="308" y="604"/>
			<point x="267" y="562"/>
			<point x="244" y="506"/>
			<point x="244" y="473" type="qcurve"/>
			<point x="244" y="444"/>
			<point x="272" y="398"/>
			<point x="309" y="398" type="qcurve"/>
			<point x="346" y="398"/>
			<point x="377" y="421" type="qcurve"/>
			<point x="376" y="425"/>
			<point x="376" y="434"/>
			<point x="376" y="438" type="qcurve"/>
			<point x="376" y="452"/>
			<point x="384" y="491"/>
			<point x="389" y="510" type="qcurve"/>
		</contour>
		<contour>
			<point x="526" y="690" type="qcurve"/>
			<point x="518" y="664"/>
			<point x="498" y="594"/>
			<point x="479" y="519"/>
			<point x="466" y="447"/>
			<point x="466" y="419" type="qcurve"/>
			<point x="466" y="398"/>
			<point x="474" y="355"/>
			<point x="485" y="332" type="qcurve"/>
			<point x="409" y="321" type="line"/>
			<point x="405" y="326"/>
			<point x="397" y="344"/>
			<point x="395" y="352" type="qcurve"/>
			<point x="372" y="337"/>
			<point x="317" y="317"/>
			<point x="287" y="317" type="qcurve"/>
			<point x="253" y="317"/>
			<point x="204" y="340"/>
			<point x="171" y="380"/>
			<point x="155" y="433"/>
			<point x="155" y="464" type="qcurve"/>
			<point x="155" y="519"/>
			<point x="195" y="609"/>
			<point x="265" y="672"/>
			<point x="359" y="707"/>
			<point x="414" y="707" type="qcurve"/>
			<point x="441" y="707"/>
			<point x="503" y="697"/>
		</contour>
	</outline>
	<guideline y="333"/>
	<guideline y="710"/>
</glyph>
<glyph name="logicalnot" format="2">
	<unicode hex="00AC"/>
	<advance width="568"/>
	<outline>
		<contour>
			<point x="600" y="397" type="line"/>
			<point x="516" y="47" type="line"/>
			<point x="406" y="47" type="line"/>
			<point x="466" y="295" type="line"/>
			<point x="116" y="295" type="line"/>
			<point x="141" y="397" type="line"/>
		</contour>
	</outline>
</glyph>
<glyph name="registered" format="2">
	<unicode hex="00AE"/>
	<advance width="814"/>
	<outline>
		<contour>
			<point x="829" y="347" type="qcurve"/>
			<point x="829" y="261"/>
			<point x="773" y="127"/>
			<point x="678" y="34"/>
			<point x="553" y="-15"/>
			<point x="484" y="-15" type="qcurve"/>
			<point x="416" y="-15"/>
			<point x="291" y="34"/>
			<point x="196" y="127"/>
			<point x="139" y="261"/>
			<point x="139" y="347" type="qcurve"/>
			<point x="139" y="432"/>
			<point x="196" y="567"/>
			<point x="291" y="660"/>
			<point x="416" y="709"/>
			<point x="484" y="709" type="qcurve"/>
			<point x="553" y="709"/>
			<point x="678" y="660"/>
			<point x="773" y="567"/>
			<point x="829" y="432"/>
		</contour>
		<contour>
			<point x="742" y="347" type="qcurve"/>
			<point x="742" y="410"/>
			<point x="704" y="513"/>
			<point x="635" y="587"/>
			<point x="541" y="627"/>
			<point x="484" y="627" type="qcurve"/>
			<point x="427" y="627"/>
			<point x="333" y="587"/>
			<point x="265" y="513"/>
			<point x="227" y="410"/>
			<point x="227" y="347" type="qcurve"/>
			<point x="227" y="284"/>
			<point x="265" y="180"/>
			<point x="333" y="106"/>
			<point x="427" y="66"/>
			<point x="484" y="66" type="qcurve"/>
			<point x="541" y="66"/>
			<point x="635" y="106"/>
			<point x="704" y="180"/>
			<point x="742" y="284"/>
		</contour>
		<contour>
			<point x="564" y="162" type="line"/>
			<point x="544" y="204"/>
			<point x="504" y="273"/>
			<point x="486" y="296" type="qcurve"/>
			<point x="432" y="296" type="line"/>
			<point x="432" y="162" type="line"/>
			<point x="348" y="162" type="line"/>
			<point x="348" y="527" type="line"/>
			<point x="379" y="535"/>
			<point x="439" y="541"/>
			<point x="462" y="541" type="qcurve"/>
			<point x="545" y="541"/>
			<point x="630" y="479"/>
			<point x="630" y="416" type="qcurve"/>
			<point x="630" y="382"/>
			<point x="597" y="331"/>
			<point x="566" y="317" type="qcurve"/>
			<point x="586" y="288"/>
			<point x="632" y="212"/>
			<point x="654" y="162" type="qcurve"/>
		</contour>
		<contour>
			<point x="432" y="364" type="line"/>
			<point x="460" y="364" type="line"/>
			<point x="499" y="364"/>
			<point x="545" y="385"/>
			<point x="545" y="417" type="qcurve"/>
			<point x="545" y="445"/>
			<point x="502" y="468"/>
			<point x="469" y="468" type="qcurve"/>
			<point x="460" y="468"/>
			<point x="443" y="468"/>
			<point x="432" y="466" type="qcurve"/>
		</contour>
	</outline>
	<guideline x="276"/>
	<guideline y="229"/>
</glyph>
<glyph name="macron" format="2">
	<unicode hex="00AF"/>
	<advance width="365"/>
	<outline>
		<contour>
			<point x="168" y="631" type="line"/>
			<point x="189" y="718" type="line"/>
			<point x="490" y="718" type="line"/>
			<point x="469" y="631" type="line"/>
		</contour>
	</outline>
	<guideline x="330" y="0" angle="103.5"/>
</glyph>
<glyph name="degree" format="2">
	<unicode hex="00B0"/>
	<advance width="359"/>
	<outline>
		<contour>
			<point x="307" y="778" type="qcurve"/>
			<point x="337" y="778"/>
			<point x="392" y="758"/>
			<point x="434" y="720"/>
			<point x="458" y="665"/>
			<point x="458" y="631" type="qcurve"/>
			<point x="458" y="597"/>
			<point x="434" y="542"/>
			<point x="392" y="504"/>
			<point x="337" y="484"/>
			<point x="307" y="484" type="qcurve"/>
			<point x="277" y="484"/>
			<point x="223" y="504"/>
			<point x="181" y="542"/>
			<point x="157" y="597"/>
			<point x="157" y="631" type="qcurve"/>
			<point x="157" y="665"/>
			<point x="181" y="720"/>
			<point x="223" y="758"/>
			<point x="277" y="778"/>
		</contour>
		<contour>
			<point x="307" y="565" type="qcurve"/>
			<point x="333" y="565"/>
			<point x="371" y="600"/>
			<point x="371" y="631" type="qcurve"/>
			<point x="371" y="662"/>
			<point x="333" y="698"/>
			<point x="307" y="698" type="qcurve"/>
			<point x="281" y="698"/>
			<point x="243" y="662"/>
			<point x="243" y="631" type="qcurve"/>
			<point x="243" y="600"/>
			<point x="281" y="565"/>
		</contour>
	</outline>
</glyph>
<glyph name="twosuperior" format="2">
	<unicode hex="00B2"/>
	<advance width="363"/>
	<outline>
		<contour>
			<point x="230" y="385" type="curve"/>
			<point x="408" y="385" type="line"/>
			<point x="391" y="308" type="line"/>
			<point x="116" y="308" type="line"/>
			<point x="122" y="398"/>
			<point x="162" y="446"/>
			<point x="252" y="499" type="curve" smooth="yes"/>
			<point x="325" y="542"/>
			<point x="347" y="560"/>
			<point x="347" y="596" type="curve" smooth="yes"/>
			<point x="347" y="619"/>
			<point x="329" y="631"/>
			<point x="304" y="631" type="curve" smooth="yes"/>
			<point x="264" y="631"/>
			<point x="227" y="610"/>
			<point x="201" y="587" type="curve"/>
			<point x="171" y="651" type="line"/>
			<point x="206" y="684"/>
			<point x="259" y="709"/>
			<point x="318" y="709" type="curve" smooth="yes"/>
			<point x="389" y="709"/>
			<point x="436" y="674"/>
			<point x="436" y="608" type="curve" smooth="yes"/>
			<point x="436" y="528"/>
			<point x="372" y="489"/>
			<point x="287" y="434" type="curve" smooth="yes"/>
			<point x="264" y="419"/>
			<point x="238" y="404"/>
		</contour>
	</outline>
	<guideline x="163"/>
</glyph>
<glyph name="threesuperior" format="2">
	<unicode hex="00B3"/>
	<advance width="363"/>
	<outline>
		<contour>
			<point x="147" y="400" type="line"/>
			<point x="165" y="389"/>
			<point x="219" y="375"/>
			<point x="246" y="375" type="qcurve"/>
			<point x="264" y="375"/>
			<point x="298" y="381"/>
			<point x="324" y="395"/>
			<point x="340" y="418"/>
			<point x="340" y="435" type="qcurve"/>
			<point x="340" y="479"/>
			<point x="261" y="479" type="qcurve"/>
			<point x="225" y="479" type="line"/>
			<point x="242" y="546" type="line"/>
			<point x="277" y="546" type="line"/>
			<point x="292" y="546"/>
			<point x="322" y="553"/>
			<point x="346" y="567"/>
			<point x="361" y="587"/>
			<point x="361" y="599" type="qcurve"/>
			<point x="361" y="634"/>
			<point x="310" y="634" type="qcurve"/>
			<point x="284" y="634"/>
			<point x="232" y="618"/>
			<point x="214" y="609" type="qcurve"/>
			<point x="197" y="675" type="line"/>
			<point x="218" y="687"/>
			<point x="295" y="709"/>
			<point x="331" y="709" type="qcurve"/>
			<point x="385" y="709"/>
			<point x="445" y="665"/>
			<point x="445" y="620" type="qcurve"/>
			<point x="445" y="585"/>
			<point x="407" y="533"/>
			<point x="373" y="518" type="qcurve"/>
			<point x="396" y="507"/>
			<point x="425" y="466"/>
			<point x="425" y="436" type="qcurve"/>
			<point x="425" y="401"/>
			<point x="396" y="350"/>
			<point x="346" y="316"/>
			<point x="279" y="300"/>
			<point x="242" y="300" type="qcurve"/>
			<point x="202" y="300"/>
			<point x="136" y="316"/>
			<point x="113" y="330" type="qcurve"/>
		</contour>
	</outline>
</glyph>
<glyph name="mu" format="2">
	<unicode hex="00B5"/>
	<advance width="589"/>
	<outline>
		<contour>
			<point x="503" y="523" type="line"/>
			<point x="434" y="236" type="line" smooth="yes"/>
			<point x="426" y="203"/>
			<point x="421" y="166"/>
			<point x="420" y="133" type="curve"/>
			<point x="383" y="100"/>
			<point x="348" y="89"/>
			<point x="314" y="89" type="curve" smooth="yes"/>
			<point x="253" y="89"/>
			<point x="238" y="124"/>
			<point x="238" y="165" type="curve" smooth="yes"/>
			<point x="238" y="197"/>
			<point x="248" y="233"/>
			<point x="254" y="259" type="curve" smooth="yes"/>
			<point x="317" y="523" type="line"/>
			<point x="196" y="523" type="line"/>
			<point x="29" y="-176" type="line"/>
			<point x="149" y="-176" type="line"/>
			<point x="171" y="-86" type="line"/>
			<point x="182" y="-41"/>
			<point x="189" y="-6"/>
			<point x="191" y="26" type="curve"/>
			<point x="212" y="1"/>
			<point x="247" y="-11"/>
			<point x="282" y="-11" type="curve" smooth="yes"/>
			<point x="338" y="-11"/>
			<point x="393" y="7"/>
			<point x="439" y="42" type="curve"/>
			<point x="458" y="11"/>
			<point x="494" y="-9"/>
			<point x="563" y="-10" type="curve"/>
			<point x="598" y="89" type="line"/>
			<point x="553" y="93"/>
			<point x="539" y="113"/>
			<point x="539" y="146" type="curve" smooth="yes"/>
			<point x="539" y="166"/>
			<point x="545" y="190"/>
			<point x="551" y="219" type="curve" smooth="yes"/>
			<point x="624" y="523" type="line"/>
		</contour>
	</outline>
</glyph>
<glyph name="paragraph" format="2">
	<unicode hex="00B6"/>
	<advance width="674"/>
	<outline>
		<contour>
			<point x="320" y="260" type="line"/>
			<point x="234" y="268"/>
			<point x="150" y="356"/>
			<point x="150" y="430" type="qcurve"/>
			<point x="150" y="500"/>
			<point x="214" y="602"/>
			<point x="323" y="668"/>
			<point x="468" y="700"/>
			<point x="550" y="700" type="qcurve"/>
			<point x="595" y="700"/>
			<point x="690" y="692"/>
			<point x="735" y="683" type="qcurve"/>
			<point x="527" y="-185" type="line"/>
			<point x="417" y="-185" type="line"/>
			<point x="606" y="600" type="line"/>
			<point x="599" y="602"/>
			<point x="567" y="605"/>
			<point x="550" y="605" type="qcurve"/>
			<point x="543" y="605"/>
			<point x="521" y="605"/>
			<point x="513" y="604" type="qcurve"/>
			<point x="323" y="-185" type="line"/>
			<point x="213" y="-185" type="line"/>
		</contour>
	</outline>
</glyph>
<glyph name="cedilla" format="2">
	<unicode hex="00B8"/>
	<advance width="353"/>
	<outline>
		<contour>
			<point x="206" y="-41" type="qcurve"/>
			<point x="248" y="-62"/>
			<point x="248" y="-105" type="qcurve"/>
			<point x="248" y="-131"/>
			<point x="228" y="-168"/>
			<point x="193" y="-193"/>
			<point x="147" y="-205"/>
			<point x="121" y="-205" type="qcurve"/>
			<point x="66" y="-205"/>
			<point x="30" y="-186" type="qcurve"/>
			<point x="60" y="-118" type="line"/>
			<point x="71" y="-123"/>
			<point x="100" y="-130"/>
			<point x="117" y="-130" type="qcurve"/>
			<point x="135" y="-130"/>
			<point x="156" y="-118"/>
			<point x="156" y="-106" type="qcurve"/>
			<point x="156" y="-94"/>
			<point x="141" y="-81"/>
			<point x="124" y="-73" type="qcurve"/>
			<point x="111" y="-67" type="line"/>
			<point x="117" y="-57"/>
			<point x="134" y="-31"/>
			<point x="152" y="-6"/>
			<point x="168" y="15"/>
			<point x="171" y="20" type="qcurve"/>
			<point x="250" y="20" type="line"/>
			<point x="242" y="9"/>
			<point x="214" y="-29"/>
		</contour>
	</outline>
</glyph>
<glyph name="onesuperior" format="2">
	<unicode hex="00B9"/>
	<advance width="363"/>
	<outline>
		<contour>
			<point x="188" y="547" type="qcurve"/>
			<point x="178" y="619" type="line"/>
			<point x="225" y="635"/>
			<point x="310" y="677"/>
			<point x="342" y="701" type="qcurve"/>
			<point x="411" y="701" type="line"/>
			<point x="317" y="308" type="line"/>
			<point x="224" y="308" type="line"/>
			<point x="291" y="588" type="line"/>
			<point x="268" y="576"/>
			<point x="214" y="555"/>
		</contour>
	</outline>
</glyph>
<glyph name="ordmasculine" format="2">
	<unicode hex="00BA"/>
	<advance width="454"/>
	<outline>
		<contour>
			<point x="160" y="452" type="curve" smooth="yes"/>
			<point x="160" y="368"/>
			<point x="209" y="317"/>
			<point x="300" y="317" type="curve" smooth="yes"/>
			<point x="456" y="317"/>
			<point x="526" y="454"/>
			<point x="526" y="574" type="curve" smooth="yes"/>
			<point x="526" y="657"/>
			<point x="477" y="709"/>
			<point x="386" y="709" type="curve"/>
			<point x="230" y="709"/>
			<point x="160" y="572"/>
		</contour>
		<contour>
			<point x="250" y="459" type="curve" smooth="yes"/>
			<point x="250" y="545"/>
			<point x="302" y="633"/>
			<point x="374" y="633" type="curve" smooth="yes"/>
			<point x="412" y="633"/>
			<point x="436" y="613"/>
			<point x="436" y="567" type="curve" smooth="yes"/>
			<point x="436" y="481"/>
			<point x="384" y="393"/>
			<point x="312" y="393" type="curve" smooth="yes"/>
			<point x="274" y="393"/>
			<point x="250" y="412"/>
		</contour>
	</outline>
</glyph>
<glyph name="questiondown" format="2">
	<unicode hex="00BF"/>
	<advance width="414"/>
	<outline>
		<contour>
			<point x="260" y="101" type="qcurve"/>
			<point x="220" y="70"/>
			<point x="170" y="17"/>
			<point x="157" y="-15"/>
			<point x="157" y="-30" type="qcurve"/>
			<point x="157" y="-43"/>
			<point x="167" y="-69"/>
			<point x="200" y="-91"/>
			<point x="232" y="-91" type="qcurve"/>
			<point x="274" y="-91"/>
			<point x="346" y="-67"/>
			<point x="368" y="-55" type="qcurve"/>
			<point x="383" y="-150" type="line"/>
			<point x="351" y="-168"/>
			<point x="259" y="-192"/>
			<point x="211" y="-192" type="qcurve"/>
			<point x="128" y="-192"/>
			<point x="36" y="-115"/>
			<point x="36" y="-51" type="qcurve"/>
			<point x="36" y="-17"/>
			<point x="55" y="38"/>
			<point x="88" y="83"/>
			<point x="132" y="122"/>
			<point x="156" y="141" type="qcurve"/>
			<point x="190" y="168" type="line"/>
			<point x="221" y="193"/>
			<point x="275" y="254"/>
			<point x="276" y="291" type="qcurve"/>
			<point x="383" y="291" type="line"/>
			<point x="382" y="258"/>
			<point x="361" y="204"/>
			<point x="328" y="159"/>
			<point x="284" y="120"/>
		</contour>
		<contour>
			<point x="342" y="364" type="qcurve"/>
			<point x="310" y="364"/>
			<point x="271" y="399"/>
			<point x="271" y="434" type="qcurve"/>
			<point x="271" y="476"/>
			<point x="323" y="523"/>
			<point x="356" y="523" type="qcurve"/>
			<point x="388" y="523"/>
			<point x="428" y="487"/>
			<point x="428" y="452" type="qcurve"/>
			<point x="428" y="432"/>
			<point x="413" y="399"/>
			<point x="389" y="376"/>
			<point x="358" y="364"/>
		</contour>
	</outline>
</glyph>
<glyph name="Aring" format="2">
	<unicode hex="00C5"/>
	<advance width="656"/>
	<outline>
		<contour>
			<point x="615" y="752" type="qcurve"/>
			<point x="615" y="719"/>
			<point x="586" y="671"/>
			<point x="563" y="658" type="qcurve"/>
			<point x="592" y="514"/>
			<point x="635" y="180"/>
			<point x="655" y="0" type="qcurve"/>
			<point x="528" y="0" type="line"/>
			<point x="525" y="42"/>
			<point x="518" y="125"/>
			<point x="514" y="164" type="qcurve"/>
			<point x="233" y="164" type="line"/>
			<point x="210" y="125"/>
			<point x="165" y="44"/>
			<point x="142" y="0" type="qcurve"/>
			<point x="7" y="0" type="line"/>
			<point x="65" y="102"/>
			<point x="173" y="285"/>
			<point x="275" y="450"/>
			<point x="375" y="601"/>
			<point x="425" y="673" type="qcurve"/>
			<point x="411" y="687"/>
			<point x="394" y="726"/>
			<point x="394" y="752" type="qcurve"/>
			<point x="394" y="777"/>
			<point x="412" y="818"/>
			<point x="442" y="845"/>
			<point x="482" y="860"/>
			<point x="504" y="860" type="qcurve"/>
			<point x="526" y="860"/>
			<point x="566" y="845"/>
			<point x="597" y="818"/>
			<point x="615" y="777"/>
		</contour>
		<contour>
			<point x="470" y="561" type="qcurve"/>
			<point x="432" y="502"/>
			<point x="339" y="355"/>
			<point x="287" y="264" type="qcurve"/>
			<point x="504" y="264" type="line"/>
			<point x="498" y="335"/>
			<point x="481" y="484"/>
		</contour>
		<contour>
			<point x="553" y="752" type="qcurve"/>
			<point x="553" y="776"/>
			<point x="524" y="803"/>
			<point x="504" y="803" type="qcurve"/>
			<point x="484" y="803"/>
			<point x="455" y="776"/>
			<point x="455" y="752" type="qcurve"/>
			<point x="455" y="728"/>
			<point x="484" y="701"/>
			<point x="504" y="701" type="qcurve"/>
			<point x="524" y="701"/>
			<point x="553" y="728"/>
		</contour>
	</outline>
</glyph>
<glyph name="AE" format="2">
	<unicode hex="00C6"/>
	<advance width="951"/>
	<outline>
		<contour>
			<point x="510" y="171" type="line"/>
			<point x="265" y="171" type="line"/>
			<point x="233" y="129"/>
			<point x="167" y="41"/>
			<point x="138" y="0" type="qcurve"/>
			<point x="2" y="0" type="line"/>
			<point x="84" y="108"/>
			<point x="231" y="295"/>
			<point x="371" y="463"/>
			<point x="509" y="618"/>
			<point x="583" y="693" type="qcurve"/>
			<point x="1053" y="693" type="line"/>
			<point x="1027" y="587" type="line"/>
			<point x="730" y="587" type="line"/>
			<point x="689" y="414" type="line"/>
			<point x="951" y="414" type="line"/>
			<point x="926" y="311" type="line"/>
			<point x="665" y="311" type="line"/>
			<point x="615" y="106" type="line"/>
			<point x="935" y="106" type="line"/>
			<point x="910" y="0" type="line"/>
			<point x="469" y="0" type="line"/>
		</contour>
		<contour>
			<point x="608" y="579" type="line"/>
			<point x="578" y="547"/>
			<point x="510" y="472"/>
			<point x="441" y="391"/>
			<point x="373" y="310"/>
			<point x="342" y="272" type="qcurve"/>
			<point x="534" y="272" type="line"/>
		</contour>
	</outline>
	<guideline y="612"/>
</glyph>
<glyph name="Ccedilla" format="2">
	<unicode hex="00C7"/>
	<advance width="606"/>
	<outline>
		<contour>
			<point x="381" y="-41" type="qcurve"/>
			<point x="423" y="-62"/>
			<point x="423" y="-105" type="qcurve"/>
			<point x="423" y="-131"/>
			<point x="403" y="-168"/>
			<point x="368" y="-193"/>
			<point x="322" y="-205"/>
			<point x="296" y="-205" type="qcurve"/>
			<point x="241" y="-205"/>
			<point x="205" y="-186" type="qcurve"/>
			<point x="235" y="-118" type="line"/>
			<point x="246" y="-123"/>
			<point x="275" y="-130"/>
			<point x="292" y="-130" type="qcurve"/>
			<point x="310" y="-130"/>
			<point x="331" y="-118"/>
			<point x="331" y="-106" type="qcurve"/>
			<point x="331" y="-94"/>
			<point x="316" y="-81"/>
			<point x="299" y="-73" type="qcurve"/>
			<point x="286" y="-67" type="line"/>
			<point x="293" y="-55"/>
			<point x="314" y="-23"/>
			<point x="324" y="-9" type="qcurve"/>
			<point x="227" y="10"/>
			<point x="121" y="155"/>
			<point x="121" y="267" type="qcurve"/>
			<point x="121" y="351"/>
			<point x="177" y="510"/>
			<point x="283" y="634"/>
			<point x="435" y="709"/>
			<point x="531" y="709" type="qcurve"/>
			<point x="594" y="709"/>
			<point x="687" y="681"/>
			<point x="722" y="661" type="qcurve"/>
			<point x="674" y="560" type="line"/>
			<point x="642" y="579"/>
			<point x="569" y="600"/>
			<point x="523" y="600" type="qcurve"/>
			<point x="460" y="600"/>
			<point x="360" y="544"/>
			<point x="289" y="453"/>
			<point x="252" y="337"/>
			<point x="252" y="277" type="qcurve"/>
			<point x="252" y="184"/>
			<point x="333" y="95"/>
			<point x="411" y="95" type="qcurve"/>
			<point x="471" y="95"/>
			<point x="555" y="122"/>
			<point x="585" y="136" type="qcurve"/>
			<point x="600" y="30" type="line"/>
			<point x="568" y="13"/>
			<point x="469" y="-14"/>
			<point x="399" y="-15" type="qcurve"/>
			<point x="387" y="-30"/>
		</contour>
	</outline>
</glyph>
<glyph name="Eth" format="2">
	<unicode hex="00D0"/>
	<advance width="723"/>
	<outline>
		<contour>
			<point x="116" y="408" type="line"/>
			<point x="197" y="408" type="line"/>
			<point x="263" y="682" type="line"/>
			<point x="312" y="693"/>
			<point x="412" y="700"/>
			<point x="454" y="700" type="qcurve"/>
			<point x="530" y="700"/>
			<point x="646" y="661"/>
			<point x="724" y="590"/>
			<point x="764" y="489"/>
			<point x="764" y="427" type="qcurve"/>
			<point x="764" y="334"/>
			<point x="704" y="174"/>
			<point x="586" y="58"/>
			<point x="409" y="-8"/>
			<point x="292" y="-8" type="qcurve"/>
			<point x="250" y="-8"/>
			<point x="146" y="1"/>
			<point x="102" y="11" type="qcurve"/>
			<point x="174" y="313" type="line"/>
			<point x="94" y="313" type="line"/>
		</contour>
		<contour>
			<point x="323" y="408" type="line"/>
			<point x="451" y="408" type="line"/>
			<point x="428" y="313" type="line"/>
			<point x="300" y="313" type="line"/>
			<point x="250" y="103" type="line"/>
			<point x="261" y="101"/>
			<point x="290" y="100"/>
			<point x="321" y="100" type="qcurve"/>
			<point x="393" y="100"/>
			<point x="509" y="146"/>
			<point x="590" y="231"/>
			<point x="634" y="350"/>
			<point x="634" y="423" type="qcurve"/>
			<point x="634" y="502"/>
			<point x="544" y="594"/>
			<point x="442" y="594" type="qcurve"/>
			<point x="416" y="594"/>
			<point x="385" y="592"/>
			<point x="367" y="590" type="qcurve"/>
		</contour>
	</outline>
	<guideline x="12" y="0" angle="103.5"/>
</glyph>
<glyph name="multiply" format="2">
	<unicode hex="00D7"/>
	<advance width="568"/>
	<outline>
		<contour>
			<point x="540" y="509" type="line"/>
			<point x="598" y="433" type="line"/>
			<point x="422" y="290" type="line"/>
			<point x="527" y="151" type="line"/>
			<point x="445" y="84" type="line"/>
			<point x="340" y="224" type="line"/>
			<point x="164" y="81" type="line"/>
			<point x="105" y="157" type="line"/>
			<point x="282" y="299" type="line"/>
			<point x="176" y="439" type="line"/>
			<point x="259" y="505" type="line"/>
			<point x="364" y="366" type="line"/>
		</contour>
	</outline>
	<guideline y="92"/>
	<guideline y="143"/>
	<guideline y="496"/>
	<guideline y="548"/>
	<guideline x="87" y="0" angle="103.5"/>
</glyph>
<glyph name="Oslash" format="2">
	<unicode hex="00D8"/>
	<advance width="742"/>
	<outline>
		<contour>
			<point x="390" y="-15" type="qcurve"/>
			<point x="298" y="-15"/>
			<point x="233" y="29" type="qcurve"/>
			<point x="172" y="-41" type="line"/>
			<point x="104" y="12" type="line"/>
			<point x="172" y="89" type="line"/>
			<point x="149" y="123"/>
			<point x="125" y="209"/>
			<point x="125" y="263" type="qcurve"/>
			<point x="125" y="343"/>
			<point x="177" y="503"/>
			<point x="278" y="630"/>
			<point x="426" y="709"/>
			<point x="522" y="709" type="qcurve"/>
			<point x="567" y="709"/>
			<point x="646" y="686"/>
			<point x="678" y="665" type="qcurve"/>
			<point x="739" y="734" type="line"/>
			<point x="806" y="681" type="line"/>
			<point x="739" y="605" type="line"/>
			<point x="762" y="571"/>
			<point x="787" y="485"/>
			<point x="787" y="431" type="qcurve"/>
			<point x="787" y="351"/>
			<point x="735" y="191"/>
			<point x="635" y="64"/>
			<point x="486" y="-15"/>
		</contour>
		<contour>
			<point x="657" y="420" type="qcurve"/>
			<point x="657" y="466"/>
			<point x="647" y="499" type="qcurve"/>
			<point x="313" y="120" type="line"/>
			<point x="348" y="94"/>
			<point x="403" y="94" type="qcurve"/>
			<point x="460" y="94"/>
			<point x="554" y="151"/>
			<point x="620" y="243"/>
			<point x="657" y="360"/>
		</contour>
		<contour>
			<point x="509" y="600" type="qcurve"/>
			<point x="452" y="600"/>
			<point x="359" y="543"/>
			<point x="293" y="451"/>
			<point x="256" y="334"/>
			<point x="256" y="274" type="qcurve"/>
			<point x="256" y="228"/>
			<point x="266" y="195" type="qcurve"/>
			<point x="598" y="574" type="line"/>
			<point x="564" y="600"/>
		</contour>
	</outline>
</glyph>
<glyph name="Thorn" format="2">
	<unicode hex="00DE"/>
	<advance width="628"/>
	<outline>
		<contour>
			<point x="370" y="693" type="line"/>
			<point x="344" y="586" type="line"/>
			<point x="361" y="588"/>
			<point x="407" y="589"/>
			<point x="424" y="589" type="qcurve"/>
			<point x="485" y="589"/>
			<point x="576" y="561"/>
			<point x="636" y="512"/>
			<point x="665" y="443"/>
			<point x="665" y="403" type="qcurve"/>
			<point x="665" y="346"/>
			<point x="620" y="248"/>
			<point x="529" y="176"/>
			<point x="394" y="135"/>
			<point x="304" y="135" type="qcurve"/>
			<point x="235" y="135" type="line"/>
			<point x="203" y="0" type="line"/>
			<point x="77" y="0" type="line"/>
			<point x="243" y="693" type="line"/>
		</contour>
		<contour>
			<point x="392" y="482" type="qcurve"/>
			<point x="365" y="482"/>
			<point x="329" y="480"/>
			<point x="318" y="478" type="qcurve"/>
			<point x="261" y="242" type="line"/>
			<point x="317" y="242" type="line"/>
			<point x="359" y="242"/>
			<point x="438" y="255"/>
			<point x="498" y="290"/>
			<point x="535" y="349"/>
			<point x="535" y="394" type="qcurve"/>
			<point x="535" y="443"/>
			<point x="458" y="482"/>
		</contour>
	</outline>
</glyph>
<glyph name="germandbls" format="2">
	<unicode hex="00DF"/>
	<advance width="621"/>
	<outline>
		<contour>
			<point x="209" y="561" type="line"/>
			<point x="223" y="619"/>
			<point x="273" y="700"/>
			<point x="340" y="752"/>
			<point x="424" y="776"/>
			<point x="472" y="776" type="qcurve"/>
			<point x="512" y="776"/>
			<point x="579" y="755"/>
			<point x="628" y="717"/>
			<point x="655" y="665"/>
			<point x="655" y="634" type="qcurve"/>
			<point x="655" y="588"/>
			<point x="613" y="521"/>
			<point x="570" y="482" type="qcurve"/>
			<point x="539" y="454"/>
			<point x="496" y="411"/>
			<point x="496" y="380" type="qcurve"/>
			<point x="496" y="359"/>
			<point x="532" y="329"/>
			<point x="558" y="311" type="qcurve"/>
			<point x="594" y="285"/>
			<point x="640" y="224"/>
			<point x="640" y="176" type="qcurve"/>
			<point x="640" y="128"/>
			<point x="604" y="58"/>
			<point x="542" y="11"/>
			<point x="460" y="-12"/>
			<point x="414" y="-12" type="qcurve"/>
			<point x="369" y="-12"/>
			<point x="289" y="10"/>
			<point x="267" y="23" type="qcurve"/>
			<point x="311" y="119" type="line"/>
			<point x="331" y="107"/>
			<point x="387" y="88"/>
			<point x="421" y="88" type="qcurve"/>
			<point x="464" y="88"/>
			<point x="519" y="128"/>
			<point x="519" y="165" type="qcurve"/>
			<point x="519" y="186"/>
			<point x="494" y="220"/>
			<point x="465" y="240" type="qcurve"/>
			<point x="435" y="259"/>
			<point x="399" y="290"/>
			<point x="380" y="320"/>
			<point x="373" y="350"/>
			<point x="373" y="367" type="qcurve"/>
			<point x="373" y="406"/>
			<point x="416" y="464"/>
			<point x="471" y="516"/>
			<point x="522" y="565"/>
			<point x="532" y="600"/>
			<point x="532" y="620" type="qcurve"/>
			<point x="532" y="641"/>
			<point x="499" y="673"/>
			<point x="461" y="673" type="qcurve"/>
			<point x="412" y="673"/>
			<point x="341" y="614"/>
			<point x="326" y="550" type="qcurve"/>
			<point x="221" y="110" type="line"/>
			<point x="208" y="56"/>
			<point x="185" y="-28"/>
			<point x="155" y="-98"/>
			<point x="114" y="-159"/>
			<point x="83" y="-189" type="qcurve"/>
			<point x="-22" y="-173" type="line"/>
			<point x="-3" y="-149"/>
			<point x="30" y="-100"/>
			<point x="57" y="-45"/>
			<point x="80" y="20"/>
			<point x="89" y="60" type="qcurve"/>
		</contour>
	</outline>
</glyph>
<glyph name="ae" format="2">
	<unicode hex="00E6"/>
	<advance width="841"/>
	<outline>
		<contour>
			<point x="626" y="-14" type="qcurve"/>
			<point x="557" y="-14"/>
			<point x="469" y="38"/>
			<point x="445" y="79" type="qcurve"/>
			<point x="406" y="34"/>
			<point x="299" y="-21"/>
			<point x="234" y="-21" type="qcurve"/>
			<point x="158" y="-21"/>
			<point x="74" y="57"/>
			<point x="74" y="118" type="qcurve"/>
			<point x="74" y="183"/>
			<point x="137" y="263"/>
			<point x="237" y="308"/>
			<point x="362" y="324"/>
			<point x="426" y="325" type="qcurve"/>
			<point x="427" y="331"/>
			<point x="427" y="339" type="qcurve"/>
			<point x="427" y="426"/>
			<point x="312" y="426" type="qcurve"/>
			<point x="244" y="426"/>
			<point x="176" y="398" type="qcurve"/>
			<point x="166" y="496" type="line"/>
			<point x="190" y="507"/>
			<point x="278" y="529"/>
			<point x="334" y="529" type="qcurve"/>
			<point x="400" y="529"/>
			<point x="488" y="478"/>
			<point x="511" y="438" type="qcurve"/>
			<point x="551" y="483"/>
			<point x="658" y="536"/>
			<point x="724" y="536" type="qcurve"/>
			<point x="800" y="536"/>
			<point x="884" y="458"/>
			<point x="884" y="397" type="qcurve"/>
			<point x="884" y="334"/>
			<point x="822" y="256"/>
			<point x="723" y="212"/>
			<point x="598" y="196"/>
			<point x="534" y="194" type="qcurve"/>
			<point x="533" y="188"/>
			<point x="533" y="180" type="qcurve"/>
			<point x="533" y="89"/>
			<point x="648" y="89" type="qcurve"/>
			<point x="716" y="89"/>
			<point x="784" y="117" type="qcurve"/>
			<point x="794" y="19" type="line"/>
			<point x="770" y="8"/>
			<point x="682" y="-14"/>
		</contour>
		<contour>
			<point x="252" y="78" type="qcurve"/>
			<point x="282" y="78"/>
			<point x="337" y="102"/>
			<point x="381" y="145"/>
			<point x="412" y="204"/>
			<point x="418" y="239" type="qcurve"/>
			<point x="297" y="237"/>
			<point x="187" y="184"/>
			<point x="187" y="130" type="qcurve"/>
			<point x="187" y="110"/>
			<point x="216" y="78"/>
		</contour>
		<contour>
			<point x="706" y="437" type="qcurve"/>
			<point x="676" y="437"/>
			<point x="622" y="413"/>
			<point x="580" y="371"/>
			<point x="549" y="314"/>
			<point x="542" y="281" type="qcurve"/>
			<point x="662" y="285"/>
			<point x="771" y="335"/>
			<point x="771" y="385" type="qcurve"/>
			<point x="771" y="405"/>
			<point x="742" y="437"/>
		</contour>
	</outline>
</glyph>
<glyph name="ccedilla" format="2">
	<unicode hex="00E7"/>
	<advance width="459"/>
	<outline>
		<contour>
			<point x="341" y="-105" type="qcurve"/>
			<point x="341" y="-131"/>
			<point x="321" y="-168"/>
			<point x="286" y="-193"/>
			<point x="240" y="-205"/>
			<point x="214" y="-205" type="qcurve"/>
			<point x="159" y="-205"/>
			<point x="123" y="-186" type="qcurve"/>
			<point x="153" y="-118" type="line"/>
			<point x="164" y="-123"/>
			<point x="193" y="-130"/>
			<point x="210" y="-130" type="qcurve"/>
			<point x="228" y="-130"/>
			<point x="249" y="-118"/>
			<point x="249" y="-106" type="qcurve"/>
			<point x="249" y="-94"/>
			<point x="234" y="-81"/>
			<point x="217" y="-73" type="qcurve"/>
			<point x="204" y="-67" type="line"/>
			<point x="211" y="-55"/>
			<point x="233" y="-21"/>
			<point x="244" y="-7" type="qcurve"/>
			<point x="168" y="11"/>
			<point x="97" y="123"/>
			<point x="97" y="198" type="qcurve"/>
			<point x="97" y="266"/>
			<point x="140" y="389"/>
			<point x="220" y="482"/>
			<point x="336" y="536"/>
			<point x="410" y="536" type="qcurve"/>
			<point x="449" y="536"/>
			<point x="514" y="523"/>
			<point x="543" y="510" type="qcurve"/>
			<point x="500" y="413" type="line"/>
			<point x="482" y="421"/>
			<point x="438" y="433"/>
			<point x="406" y="433" type="qcurve"/>
			<point x="363" y="433"/>
			<point x="294" y="398"/>
			<point x="246" y="338"/>
			<point x="220" y="256"/>
			<point x="220" y="210" type="qcurve"/>
			<point x="220" y="184"/>
			<point x="231" y="141"/>
			<point x="256" y="108"/>
			<point x="300" y="90"/>
			<point x="333" y="90" type="qcurve"/>
			<point x="367" y="90"/>
			<point x="430" y="108"/>
			<point x="447" y="117" type="qcurve"/>
			<point x="457" y="18" type="line"/>
			<point x="434" y="7"/>
			<point x="363" y="-12"/>
			<point x="318" y="-14" type="qcurve"/>
			<point x="299" y="-41" type="line"/>
			<point x="341" y="-62"/>
		</contour>
	</outline>
</glyph>
<glyph name="eth" format="2">
	<unicode hex="00F0"/>
	<advance width="579"/>
	<outline>
		<contour>
			<point x="567" y="616" type="line"/>
			<point x="586" y="572"/>
			<point x="606" y="470"/>
			<point x="606" y="412" type="qcurve"/>
			<point x="606" y="369"/>
			<point x="593" y="272"/>
			<point x="563" y="177"/>
			<point x="515" y="91"/>
			<point x="445" y="25"/>
			<point x="351" y="-14"/>
			<point x="290" y="-14" type="qcurve"/>
			<point x="246" y="-14"/>
			<point x="175" y="16"/>
			<point x="124" y="68"/>
			<point x="97" y="141"/>
			<point x="97" y="184" type="qcurve"/>
			<point x="97" y="259"/>
			<point x="140" y="373"/>
			<point x="216" y="450"/>
			<point x="318" y="489"/>
			<point x="377" y="489" type="qcurve"/>
			<point x="411" y="489"/>
			<point x="468" y="473"/>
			<point x="489" y="462" type="qcurve"/>
			<point x="487" y="494"/>
			<point x="474" y="553"/>
			<point x="461" y="582" type="qcurve"/>
			<point x="337" y="543" type="line"/>
			<point x="328" y="616" type="line"/>
			<point x="425" y="647" type="line"/>
			<point x="410" y="668"/>
			<point x="374" y="702"/>
			<point x="353" y="719" type="qcurve"/>
			<point x="438" y="776" type="line"/>
			<point x="462" y="759"/>
			<point x="510" y="711"/>
			<point x="530" y="680" type="qcurve"/>
			<point x="667" y="725" type="line"/>
			<point x="676" y="651" type="line"/>
		</contour>
		<contour>
			<point x="306" y="91" type="qcurve"/>
			<point x="347" y="91"/>
			<point x="409" y="138"/>
			<point x="452" y="214"/>
			<point x="477" y="309"/>
			<point x="481" y="358" type="qcurve"/>
			<point x="454" y="375"/>
			<point x="400" y="390"/>
			<point x="375" y="390" type="qcurve"/>
			<point x="337" y="390"/>
			<point x="278" y="361"/>
			<point x="238" y="308"/>
			<point x="218" y="234"/>
			<point x="218" y="190" type="qcurve"/>
			<point x="218" y="145"/>
			<point x="262" y="91"/>
		</contour>
	</outline>
</glyph>
<glyph name="divide" format="2">
	<unicode hex="00F7"/>
	<advance width="568"/>
	<outline>
		<contour>
			<point x="131" y="337" type="line"/>
			<point x="590" y="337" type="line"/>
			<point x="565" y="235" type="line"/>
			<point x="106" y="235" type="line"/>
		</contour>
		<contour>
			<point x="310" y="162" type="qcurve"/>
			<point x="337" y="162"/>
			<point x="372" y="131"/>
			<point x="372" y="102" type="qcurve"/>
			<point x="372" y="65"/>
			<point x="323" y="15"/>
			<point x="288" y="15" type="qcurve"/>
			<point x="261" y="15"/>
			<point x="226" y="47"/>
			<point x="226" y="76" type="qcurve"/>
			<point x="226" y="113"/>
			<point x="275" y="162"/>
		</contour>
		<contour>
			<point x="405" y="556" type="qcurve"/>
			<point x="432" y="556"/>
			<point x="467" y="525"/>
			<point x="467" y="496" type="qcurve"/>
			<point x="467" y="459"/>
			<point x="418" y="409"/>
			<point x="383" y="409" type="qcurve"/>
			<point x="356" y="409"/>
			<point x="321" y="441"/>
			<point x="321" y="470" type="qcurve"/>
			<point x="321" y="507"/>
			<point x="370" y="556"/>
		</contour>
	</outline>
</glyph>
<glyph name="oslash" format="2">
	<unicode hex="00F8"/>
	<advance width="563"/>
	<outline>
		<contour>
			<point x="288" y="-14" type="curve" smooth="yes"/>
			<point x="494" y="-14"/>
			<point x="586" y="180"/>
			<point x="586" y="337" type="curve" smooth="yes"/>
			<point x="586" y="383"/>
			<point x="576" y="422"/>
			<point x="557" y="454" type="curve"/>
			<point x="610" y="515" type="line"/>
			<point x="552" y="560" type="line"/>
			<point x="506" y="507" type="line"/>
			<point x="476" y="526"/>
			<point x="439" y="536"/>
			<point x="395" y="536" type="curve" smooth="yes"/>
			<point x="192" y="536"/>
			<point x="97" y="342"/>
			<point x="97" y="186" type="curve" smooth="yes"/>
			<point x="97" y="141"/>
			<point x="106" y="103"/>
			<point x="123" y="71" type="curve"/>
			<point x="67" y="7" type="line"/>
			<point x="125" y="-38" type="line"/>
			<point x="173" y="17" type="line"/>
			<point x="203" y="-3"/>
			<point x="242" y="-14"/>
		</contour>
		<contour>
			<point x="466" y="325" type="curve" smooth="yes"/>
			<point x="466" y="223"/>
			<point x="407" y="89"/>
			<point x="303" y="89" type="curve" smooth="yes"/>
			<point x="280" y="89"/>
			<point x="263" y="94"/>
			<point x="250" y="104" type="curve"/>
			<point x="465" y="349" type="line"/>
			<point x="466" y="341"/>
			<point x="466" y="333"/>
		</contour>
		<contour>
			<point x="380" y="434" type="curve" smooth="yes"/>
			<point x="401" y="434"/>
			<point x="417" y="429"/>
			<point x="430" y="420" type="curve"/>
			<point x="217" y="178" type="line"/>
			<point x="217" y="197" type="line" smooth="yes"/>
			<point x="217" y="300"/>
			<point x="276" y="434"/>
		</contour>
	</outline>
	<guideline x="221"/>
	<guideline x="339"/>
</glyph>
<glyph name="thorn" format="2">
	<unicode hex="00FE"/>
	<advance width="564"/>
	<outline>
		<contour>
			<point x="589" y="335" type="curve" smooth="yes"/>
			<point x="589" y="447"/>
			<point x="527" y="535"/>
			<point x="387" y="535" type="curve" smooth="yes"/>
			<point x="365" y="535"/>
			<point x="343" y="532"/>
			<point x="321" y="528" type="curve"/>
			<point x="381" y="776" type="line"/>
			<point x="255" y="756" type="line"/>
			<point x="29" y="-185" type="line"/>
			<point x="150" y="-185" type="line"/>
			<point x="194" y="-5" type="line"/>
			<point x="212" y="-8"/>
			<point x="233" y="-10"/>
			<point x="251" y="-10" type="curve" smooth="yes"/>
			<point x="466" y="-10"/>
			<point x="589" y="146"/>
		</contour>
		<contour>
			<point x="296" y="424" type="line"/>
			<point x="314" y="429"/>
			<point x="339" y="433"/>
			<point x="366" y="433" type="curve" smooth="yes"/>
			<point x="445" y="433"/>
			<point x="468" y="382"/>
			<point x="468" y="324" type="curve" smooth="yes"/>
			<point x="468" y="195"/>
			<point x="388" y="91"/>
			<point x="260" y="91" type="curve" smooth="yes"/>
			<point x="246" y="91"/>
			<point x="230" y="92"/>
			<point x="217" y="94" type="curve"/>
		</contour>
	</outline>
</glyph>
<glyph name="Aogonek" format="2">
	<unicode hex="0104"/>
	<advance width="656"/>
	<outline>
		<contour>
			<point x="624" y="-189" type="line"/>
			<point x="608" y="-196"/>
			<point x="569" y="-204"/>
			<point x="547" y="-204" type="qcurve"/>
			<point x="498" y="-204"/>
			<point x="443" y="-168"/>
			<point x="443" y="-130" type="qcurve"/>
			<point x="443" y="-113"/>
			<point x="457" y="-79"/>
			<point x="481" y="-47"/>
			<point x="512" y="-17"/>
			<point x="528" y="-4" type="qcurve"/>
			<point x="525" y="36"/>
			<point x="518" y="126"/>
			<point x="514" y="164" type="qcurve"/>
			<point x="233" y="164" type="line"/>
			<point x="210" y="125"/>
			<point x="165" y="44"/>
			<point x="142" y="0" type="qcurve"/>
			<point x="7" y="0" type="line"/>
			<point x="68" y="106"/>
			<point x="179" y="294"/>
			<point x="284" y="464"/>
			<point x="387" y="619"/>
			<point x="439" y="693" type="qcurve"/>
			<point x="556" y="693" type="line"/>
			<point x="588" y="544"/>
			<point x="634" y="195"/>
			<point x="655" y="4" type="qcurve"/>
			<point x="647" y="-1"/>
			<point x="615" y="-20"/>
			<point x="594" y="-36" type="qcurve"/>
			<point x="570" y="-54"/>
			<point x="550" y="-84"/>
			<point x="550" y="-95" type="qcurve"/>
			<point x="550" y="-106"/>
			<point x="572" y="-118"/>
			<point x="586" y="-118" type="qcurve"/>
			<point x="598" y="-118"/>
			<point x="625" y="-112"/>
			<point x="633" y="-109" type="qcurve"/>
		</contour>
		<contour>
			<point x="470" y="561" type="qcurve"/>
			<point x="432" y="502"/>
			<point x="339" y="355"/>
			<point x="287" y="264" type="qcurve"/>
			<point x="504" y="264" type="line"/>
			<point x="498" y="335"/>
			<point x="481" y="484"/>
		</contour>
	</outline>
</glyph>
<glyph name="aogonek" format="2">
	<unicode hex="0105"/>
	<advance width="558"/>
	<outline>
		<contour>
			<point x="530" y="203" type="line"/>
			<point x="527" y="192"/>
			<point x="521" y="142"/>
			<point x="521" y="120" type="qcurve"/>
			<point x="521" y="91"/>
			<point x="531" y="34"/>
			<point x="543" y="6" type="qcurve"/>
			<point x="535" y="1"/>
			<point x="525" y="-8"/>
			<point x="512" y="-18" type="qcurve"/>
			<point x="480" y="-41"/>
			<point x="443" y="-82"/>
			<point x="443" y="-99" type="qcurve"/>
			<point x="443" y="-118"/>
			<point x="474" y="-118" type="qcurve"/>
			<point x="486" y="-118"/>
			<point x="513" y="-112"/>
			<point x="521" y="-109" type="qcurve"/>
			<point x="512" y="-189" type="line"/>
			<point x="496" y="-196"/>
			<point x="457" y="-204"/>
			<point x="435" y="-204" type="qcurve"/>
			<point x="386" y="-204"/>
			<point x="331" y="-168"/>
			<point x="331" y="-130" type="qcurve"/>
			<point x="331" y="-108"/>
			<point x="350" y="-71"/>
			<point x="379" y="-40"/>
			<point x="415" y="-14"/>
			<point x="432" y="-3" type="qcurve"/>
			<point x="421" y="17"/>
			<point x="415" y="43" type="qcurve"/>
			<point x="390" y="21"/>
			<point x="317" y="-14"/>
			<point x="271" y="-14" type="qcurve"/>
			<point x="224" y="-14"/>
			<point x="157" y="17"/>
			<point x="115" y="72"/>
			<point x="95" y="146"/>
			<point x="95" y="189" type="qcurve"/>
			<point x="95" y="262"/>
			<point x="147" y="388"/>
			<point x="240" y="480"/>
			<point x="368" y="533"/>
			<point x="444" y="533" type="qcurve"/>
			<point x="483" y="533"/>
			<point x="562" y="520"/>
			<point x="602" y="502" type="qcurve"/>
		</contour>
		<contour>
			<point x="464" y="429" type="line"/>
			<point x="445" y="433"/>
			<point x="421" y="433" type="qcurve"/>
			<point x="376" y="433"/>
			<point x="300" y="394"/>
			<point x="245" y="329"/>
			<point x="215" y="245"/>
			<point x="215" y="199" type="qcurve"/>
			<point x="215" y="176"/>
			<point x="223" y="136"/>
			<point x="242" y="106"/>
			<point x="274" y="88"/>
			<point x="299" y="88" type="qcurve"/>
			<point x="331" y="88"/>
			<point x="380" y="115"/>
			<point x="401" y="138" type="qcurve"/>
			<point x="402" y="164"/>
			<point x="409" y="210"/>
			<point x="415" y="233" type="qcurve"/>
		</contour>
	</outline>
</glyph>
<glyph name="Eogonek" format="2">
	<unicode hex="0118"/>
	<advance width="572"/>
	<outline>
		<contour>
			<point x="509" y="-109" type="line"/>
			<point x="498" y="-113"/>
			<point x="478" y="-118"/>
			<point x="462" y="-118" type="curve" smooth="yes"/>
			<point x="441" y="-118"/>
			<point x="431" y="-111"/>
			<point x="431" y="-99" type="curve" smooth="yes"/>
			<point x="431" y="-66"/>
			<point x="502" y="-20"/>
			<point x="533" y="3" type="curve"/>
			<point x="557" y="105" type="line"/>
			<point x="229" y="105" type="line"/>
			<point x="279" y="311" type="line"/>
			<point x="548" y="311" type="line"/>
			<point x="573" y="414" type="line"/>
			<point x="303" y="414" type="line"/>
			<point x="344" y="588" type="line"/>
			<point x="649" y="588" type="line"/>
			<point x="674" y="693" type="line"/>
			<point x="244" y="693" type="line"/>
			<point x="78" y="0" type="line"/>
			<point x="423" y="0" type="line"/>
			<point x="344" y="-50"/>
			<point x="319" y="-92"/>
			<point x="319" y="-130" type="curve" smooth="yes"/>
			<point x="319" y="-180"/>
			<point x="358" y="-204"/>
			<point x="423" y="-204" type="curve" smooth="yes"/>
			<point x="452" y="-204"/>
			<point x="479" y="-198"/>
			<point x="500" y="-189" type="curve"/>
		</contour>
	</outline>
	<guideline x="516" y="0" angle="103.5"/>
</glyph>
<glyph name="eogonek" format="2">
	<unicode hex="0119"/>
	<advance width="523"/>
	<outline>
		<contour>
			<point x="97" y="189" type="qcurve"/>
			<point x="97" y="256"/>
			<point x="140" y="381"/>
			<point x="221" y="478"/>
			<point x="335" y="536"/>
			<point x="406" y="536" type="qcurve"/>
			<point x="482" y="536"/>
			<point x="566" y="458"/>
			<point x="566" y="397" type="qcurve"/>
			<point x="566" y="334"/>
			<point x="504" y="256"/>
			<point x="405" y="212"/>
			<point x="280" y="196"/>
			<point x="216" y="194" type="qcurve"/>
			<point x="215" y="188"/>
			<point x="215" y="180" type="qcurve"/>
			<point x="215" y="89"/>
			<point x="330" y="89" type="qcurve"/>
			<point x="398" y="89"/>
			<point x="466" y="117" type="qcurve"/>
			<point x="476" y="16" type="line"/>
			<point x="466" y="10"/>
			<point x="434" y="-11"/>
			<point x="421" y="-21" type="qcurve"/>
			<point x="389" y="-44"/>
			<point x="353" y="-82"/>
			<point x="353" y="-99" type="qcurve"/>
			<point x="353" y="-118"/>
			<point x="384" y="-118" type="qcurve"/>
			<point x="396" y="-118"/>
			<point x="423" y="-112"/>
			<point x="431" y="-109" type="qcurve"/>
			<point x="422" y="-189" type="line"/>
			<point x="406" y="-196"/>
			<point x="367" y="-204"/>
			<point x="345" y="-204" type="qcurve"/>
			<point x="296" y="-204"/>
			<point x="241" y="-168"/>
			<point x="241" y="-130" type="qcurve"/>
			<point x="241" y="-101"/>
			<point x="290" y="-39"/>
			<point x="332" y="-11" type="qcurve"/>
			<point x="326" y="-12"/>
			<point x="310" y="-12"/>
			<point x="308" y="-12" type="qcurve"/>
			<point x="252" y="-12"/>
			<point x="172" y="20"/>
			<point x="121" y="74"/>
			<point x="97" y="147"/>
		</contour>
		<contour>
			<point x="388" y="437" type="qcurve"/>
			<point x="358" y="437"/>
			<point x="304" y="413"/>
			<point x="262" y="371"/>
			<point x="231" y="314"/>
			<point x="224" y="281" type="qcurve"/>
			<point x="344" y="285"/>
			<point x="453" y="335"/>
			<point x="453" y="385" type="qcurve"/>
			<point x="453" y="405"/>
			<point x="424" y="437"/>
		</contour>
	</outline>
</glyph>
<glyph name="hbar" format="2">
	<unicode hex="0127"/>
	<advance width="563"/>
	<outline>
		<contour>
			<point x="195" y="0" type="line"/>
			<point x="294" y="412" type="line"/>
			<point x="315" y="419"/>
			<point x="343" y="424"/>
			<point x="370" y="424" type="curve" smooth="yes"/>
			<point x="436" y="424"/>
			<point x="454" y="390"/>
			<point x="454" y="346" type="curve" smooth="yes"/>
			<point x="454" y="318"/>
			<point x="447" y="292"/>
			<point x="440" y="262" type="curve" smooth="yes"/>
			<point x="377" y="0" type="line"/>
			<point x="498" y="0" type="line"/>
			<point x="564" y="275" type="line" smooth="yes"/>
			<point x="572" y="307"/>
			<point x="575" y="330"/>
			<point x="575" y="358" type="curve" smooth="yes"/>
			<point x="575" y="455"/>
			<point x="526" y="525"/>
			<point x="408" y="525" type="curve" smooth="yes"/>
			<point x="378" y="525"/>
			<point x="343" y="518"/>
			<point x="317" y="511" type="curve"/>
			<point x="339" y="605" type="line"/>
			<point x="490" y="605" type="line"/>
			<point x="509" y="686" type="line"/>
			<point x="359" y="686" type="line"/>
			<point x="381" y="776" type="line"/>
			<point x="255" y="756" type="line"/>
			<point x="238" y="686" type="line"/>
			<point x="170" y="686" type="line"/>
			<point x="151" y="605" type="line"/>
			<point x="219" y="605" type="line"/>
			<point x="74" y="0" type="line"/>
		</contour>
	</outline>
	<guideline x="330" y="0" angle="103.5"/>
</glyph>
<glyph name="Iogonek" format="2">
	<unicode hex="012E"/>
	<advance width="286"/>
	<outline>
		<contour>
			<point x="78" y="0" type="line"/>
			<point x="102" y="0" type="line"/>
			<point x="35" y="-40"/>
			<point x="-8" y="-89"/>
			<point x="-8" y="-134" type="curve" smooth="yes"/>
			<point x="-8" y="-175"/>
			<point x="24" y="-204"/>
			<point x="92" y="-204" type="curve" smooth="yes"/>
			<point x="118" y="-204"/>
			<point x="151" y="-199"/>
			<point x="172" y="-191" type="curve"/>
			<point x="182" y="-111" type="line"/>
			<point x="164" y="-116"/>
			<point x="148" y="-118"/>
			<point x="136" y="-118" type="curve" smooth="yes"/>
			<point x="113" y="-118"/>
			<point x="105" y="-110"/>
			<point x="105" y="-99" type="curve" smooth="yes"/>
			<point x="105" y="-61"/>
			<point x="177" y="-17"/>
			<point x="204" y="0" type="curve"/>
			<point x="370" y="693" type="line"/>
			<point x="244" y="693" type="line"/>
		</contour>
	</outline>
</glyph>
<glyph name="iogonek" format="2">
	<unicode hex="012F"/>
	<advance width="271"/>
	<outline>
		<contour>
			<point x="193" y="0" type="line"/>
			<point x="182" y="-8"/>
			<point x="149" y="-30"/>
			<point x="118" y="-56"/>
			<point x="96" y="-85"/>
			<point x="96" y="-99" type="qcurve"/>
			<point x="96" y="-107"/>
			<point x="110" y="-118"/>
			<point x="127" y="-118" type="qcurve"/>
			<point x="136" y="-118"/>
			<point x="159" y="-115"/>
			<point x="173" y="-111" type="qcurve"/>
			<point x="163" y="-191" type="line"/>
			<point x="147" y="-197"/>
			<point x="103" y="-204"/>
			<point x="83" y="-204" type="qcurve"/>
			<point x="32" y="-204"/>
			<point x="-17" y="-165"/>
			<point x="-17" y="-134" type="qcurve"/>
			<point x="-17" y="-100"/>
			<point x="42" y="-34"/>
			<point x="90" y="0" type="qcurve"/>
			<point x="73" y="0" type="line"/>
			<point x="198" y="523" type="line"/>
			<point x="319" y="523" type="line"/>
		</contour>
		<contour>
			<point x="283" y="602" type="qcurve"/>
			<point x="256" y="602"/>
			<point x="216" y="634"/>
			<point x="216" y="666" type="qcurve"/>
			<point x="216" y="703"/>
			<point x="267" y="751"/>
			<point x="300" y="751" type="qcurve"/>
			<point x="327" y="751"/>
			<point x="368" y="718"/>
			<point x="368" y="686" type="qcurve"/>
			<point x="368" y="649"/>
			<point x="316" y="602"/>
		</contour>
	</outline>
</glyph>
<glyph name="lslash" format="2">
	<unicode hex="0142"/>
	<advance width="355"/>
	<outline>
		<contour>
			<point x="65" y="374" type="line"/>
			<point x="191" y="430" type="line"/>
			<point x="269" y="756" type="line"/>
			<point x="395" y="776" type="line"/>
			<point x="327" y="489" type="line"/>
			<point x="407" y="526" type="line"/>
			<point x="426" y="445" type="line"/>
			<point x="303" y="389" type="line"/>
			<point x="270" y="255" type="line"/>
			<point x="264" y="232"/>
			<point x="252" y="182"/>
			<point x="252" y="153" type="qcurve"/>
			<point x="252" y="127"/>
			<point x="281" y="94"/>
			<point x="323" y="90" type="qcurve"/>
			<point x="297" y="-10" type="line"/>
			<point x="250" y="-9"/>
			<point x="185" y="13"/>
			<point x="146" y="51"/>
			<point x="129" y="103"/>
			<point x="129" y="134" type="qcurve"/>
			<point x="129" y="166"/>
			<point x="144" y="237"/>
			<point x="153" y="272" type="qcurve"/>
			<point x="167" y="330" type="line"/>
			<point x="84" y="293" type="line"/>
		</contour>
	</outline>
	<guideline y="-13"/>
	<guideline x="29" y="0" angle="103.5"/>
</glyph>
<glyph name="Eng" format="2">
	<unicode hex="014A"/>
	<advance width="719"/>
	<outline>
		<contour>
			<point x="522" y="39" type="qcurve"/>
			<point x="503" y="94"/>
			<point x="457" y="218"/>
			<point x="405" y="341"/>
			<point x="350" y="458"/>
			<point x="323" y="506" type="qcurve"/>
			<point x="202" y="0" type="line"/>
			<point x="78" y="0" type="line"/>
			<point x="244" y="693" type="line"/>
			<point x="345" y="693" type="line"/>
			<point x="374" y="646"/>
			<point x="437" y="526"/>
			<point x="495" y="398"/>
			<point x="547" y="272"/>
			<point x="566" y="220" type="qcurve"/>
			<point x="677" y="693" type="line"/>
			<point x="802" y="693" type="line"/>
			<point x="638" y="8" type="line"/>
			<point x="627" y="-39"/>
			<point x="596" y="-111"/>
			<point x="550" y="-161"/>
			<point x="485" y="-187"/>
			<point x="439" y="-187" type="qcurve"/>
			<point x="420" y="-187"/>
			<point x="375" y="-179"/>
			<point x="356" y="-172" type="qcurve"/>
			<point x="392" y="-78" type="line"/>
			<point x="401" y="-82"/>
			<point x="422" y="-87"/>
			<point x="434" y="-87" type="qcurve"/>
			<point x="455" y="-87"/>
			<point x="483" y="-69"/>
			<point x="502" y="-36"/>
			<point x="515" y="10"/>
		</contour>
	</outline>
	<guideline y="17"/>
</glyph>
<glyph name="eng" format="2">
	<unicode hex="014B"/>
	<advance width="563"/>
	<outline>
		<contour>
			<point x="496" y="-4" type="line"/>
			<point x="485" y="-51"/>
			<point x="453" y="-119"/>
			<point x="407" y="-164"/>
			<point x="343" y="-186"/>
			<point x="299" y="-186" type="qcurve"/>
			<point x="281" y="-186"/>
			<point x="239" y="-179"/>
			<point x="222" y="-173" type="qcurve"/>
			<point x="255" y="-85" type="line"/>
			<point x="273" y="-93"/>
			<point x="295" y="-93" type="qcurve"/>
			<point x="329" y="-93"/>
			<point x="364" y="-50"/>
			<point x="374" y="-8" type="qcurve"/>
			<point x="438" y="262" type="line"/>
			<point x="443" y="285"/>
			<point x="454" y="333"/>
			<point x="454" y="354" type="qcurve"/>
			<point x="454" y="388"/>
			<point x="418" y="432"/>
			<point x="369" y="432" type="qcurve"/>
			<point x="349" y="432"/>
			<point x="311" y="427"/>
			<point x="295" y="423" type="qcurve"/>
			<point x="194" y="0" type="line"/>
			<point x="73" y="0" type="line"/>
			<point x="193" y="501" type="line"/>
			<point x="233" y="513"/>
			<point x="336" y="534"/>
			<point x="397" y="534" type="qcurve"/>
			<point x="489" y="534"/>
			<point x="575" y="443"/>
			<point x="575" y="367" type="qcurve"/>
			<point x="575" y="323"/>
			<point x="563" y="275" type="qcurve"/>
		</contour>
	</outline>
</glyph>
<glyph name="OE" format="2">
	<unicode hex="0152"/>
	<advance width="968"/>
	<outline>
		<contour>
			<point x="538" y="0" type="line"/>
			<point x="515" y="-4"/>
			<point x="460" y="-8"/>
			<point x="431" y="-8" type="qcurve"/>
			<point x="363" y="-8"/>
			<point x="249" y="23"/>
			<point x="167" y="90"/>
			<point x="121" y="195"/>
			<point x="121" y="268" type="qcurve"/>
			<point x="121" y="362"/>
			<point x="183" y="521"/>
			<point x="301" y="636"/>
			<point x="475" y="700"/>
			<point x="587" y="700" type="qcurve"/>
			<point x="613" y="700"/>
			<point x="660" y="697"/>
			<point x="692" y="693" type="qcurve"/>
			<point x="1070" y="693" type="line"/>
			<point x="1044" y="587" type="line"/>
			<point x="753" y="587" type="line"/>
			<point x="712" y="414" type="line"/>
			<point x="968" y="414" type="line"/>
			<point x="943" y="311" type="line"/>
			<point x="687" y="311" type="line"/>
			<point x="638" y="106" type="line"/>
			<point x="952" y="106" type="line"/>
			<point x="927" y="0" type="line"/>
		</contour>
		<contour>
			<point x="560" y="594" type="qcurve"/>
			<point x="485" y="594"/>
			<point x="370" y="541"/>
			<point x="291" y="453"/>
			<point x="251" y="336"/>
			<point x="251" y="273" type="qcurve"/>
			<point x="251" y="234"/>
			<point x="273" y="170"/>
			<point x="319" y="124"/>
			<point x="390" y="98"/>
			<point x="439" y="98" type="qcurve"/>
			<point x="459" y="98"/>
			<point x="498" y="101"/>
			<point x="514" y="103" type="qcurve"/>
			<point x="630" y="589" type="line"/>
			<point x="622" y="591"/>
			<point x="583" y="594"/>
		</contour>
	</outline>
</glyph>
<glyph name="oe" format="2">
	<unicode hex="0153"/>
	<advance width="874"/>
	<outline>
		<contour>
			<point x="288" y="-14" type="qcurve"/>
			<point x="195" y="-14"/>
			<point x="97" y="96"/>
			<point x="97" y="186" type="qcurve"/>
			<point x="97" y="244"/>
			<point x="133" y="368"/>
			<point x="207" y="470"/>
			<point x="319" y="536"/>
			<point x="395" y="536" type="qcurve"/>
			<point x="452" y="536"/>
			<point x="531" y="485"/>
			<point x="554" y="443" type="qcurve"/>
			<point x="593" y="485"/>
			<point x="695" y="536"/>
			<point x="757" y="536" type="qcurve"/>
			<point x="833" y="536"/>
			<point x="917" y="458"/>
			<point x="917" y="397" type="qcurve"/>
			<point x="917" y="334"/>
			<point x="855" y="256"/>
			<point x="756" y="212"/>
			<point x="631" y="196"/>
			<point x="567" y="194" type="qcurve"/>
			<point x="566" y="188"/>
			<point x="566" y="180" type="qcurve"/>
			<point x="566" y="89"/>
			<point x="681" y="89" type="qcurve"/>
			<point x="749" y="89"/>
			<point x="817" y="117" type="qcurve"/>
			<point x="827" y="19" type="line"/>
			<point x="803" y="8"/>
			<point x="715" y="-14"/>
			<point x="659" y="-14" type="qcurve"/>
			<point x="593" y="-14"/>
			<point x="507" y="37"/>
			<point x="484" y="78" type="qcurve"/>
			<point x="448" y="39"/>
			<point x="351" y="-14"/>
		</contour>
		<contour>
			<point x="380" y="434" type="qcurve"/>
			<point x="341" y="434"/>
			<point x="280" y="389"/>
			<point x="239" y="319"/>
			<point x="217" y="236"/>
			<point x="217" y="197" type="qcurve"/>
			<point x="217" y="147"/>
			<point x="255" y="89"/>
			<point x="303" y="89" type="qcurve"/>
			<point x="342" y="89"/>
			<point x="403" y="134"/>
			<point x="444" y="203"/>
			<point x="466" y="287"/>
			<point x="466" y="325" type="qcurve"/>
			<point x="466" y="375"/>
			<point x="428" y="434"/>
		</contour>
		<contour>
			<point x="739" y="437" type="qcurve"/>
			<point x="709" y="437"/>
			<point x="655" y="413"/>
			<point x="613" y="371"/>
			<point x="582" y="314"/>
			<point x="575" y="281" type="qcurve"/>
			<point x="695" y="285"/>
			<point x="804" y="335"/>
			<point x="804" y="385" type="qcurve"/>
			<point x="804" y="405"/>
			<point x="775" y="437"/>
		</contour>
	</outline>
	<guideline y="97"/>
</glyph>
<glyph name="Scedilla" format="2">
	<unicode hex="015E"/>
	<advance width="527"/>
	<outline>
		<contour>
			<point x="261" y="-41" type="qcurve"/>
			<point x="303" y="-62"/>
			<point x="303" y="-105" type="qcurve"/>
			<point x="303" y="-131"/>
			<point x="283" y="-168"/>
			<point x="248" y="-193"/>
			<point x="202" y="-205"/>
			<point x="176" y="-205" type="qcurve"/>
			<point x="121" y="-205"/>
			<point x="85" y="-186" type="qcurve"/>
			<point x="115" y="-118" type="line"/>
			<point x="126" y="-123"/>
			<point x="155" y="-130"/>
			<point x="172" y="-130" type="qcurve"/>
			<point x="190" y="-130"/>
			<point x="211" y="-118"/>
			<point x="211" y="-106" type="qcurve"/>
			<point x="211" y="-94"/>
			<point x="196" y="-81"/>
			<point x="179" y="-73" type="qcurve"/>
			<point x="166" y="-67" type="line"/>
			<point x="172" y="-56"/>
			<point x="193" y="-27"/>
			<point x="203" y="-13" type="qcurve"/>
			<point x="138" y="-5"/>
			<point x="55" y="29"/>
			<point x="36" y="43" type="qcurve"/>
			<point x="92" y="142" type="line"/>
			<point x="102" y="135"/>
			<point x="135" y="117"/>
			<point x="177" y="102"/>
			<point x="227" y="92"/>
			<point x="255" y="92" type="qcurve"/>
			<point x="282" y="92"/>
			<point x="335" y="102"/>
			<point x="378" y="126"/>
			<point x="404" y="167"/>
			<point x="404" y="198" type="qcurve"/>
			<point x="404" y="221"/>
			<point x="384" y="254"/>
			<point x="350" y="280"/>
			<point x="307" y="303"/>
			<point x="283" y="316" type="qcurve"/>
			<point x="257" y="329"/>
			<point x="210" y="362"/>
			<point x="174" y="404"/>
			<point x="153" y="460"/>
			<point x="153" y="498" type="qcurve"/>
			<point x="153" y="544"/>
			<point x="188" y="621"/>
			<point x="257" y="677"/>
			<point x="358" y="709"/>
			<point x="425" y="709" type="qcurve"/>
			<point x="456" y="709"/>
			<point x="513" y="699"/>
			<point x="563" y="684"/>
			<point x="601" y="666"/>
			<point x="612" y="658" type="qcurve"/>
			<point x="557" y="562" type="line"/>
			<point x="536" y="579"/>
			<point x="461" y="603"/>
			<point x="416" y="603" type="qcurve"/>
			<point x="389" y="603"/>
			<point x="340" y="592"/>
			<point x="303" y="569"/>
			<point x="282" y="532"/>
			<point x="282" y="507" type="qcurve"/>
			<point x="282" y="484"/>
			<point x="297" y="454"/>
			<point x="324" y="431"/>
			<point x="360" y="412"/>
			<point x="381" y="400" type="qcurve"/>
			<point x="412" y="383"/>
			<point x="467" y="349"/>
			<point x="509" y="305"/>
			<point x="534" y="248"/>
			<point x="534" y="208" type="qcurve"/>
			<point x="534" y="155"/>
			<point x="497" y="75"/>
			<point x="429" y="20"/>
			<point x="336" y="-11"/>
			<point x="280" y="-14" type="qcurve"/>
			<point x="275" y="-22"/>
			<point x="264" y="-36"/>
		</contour>
	</outline>
</glyph>
<glyph name="scedilla" format="2">
	<unicode hex="015F"/>
	<advance width="438"/>
	<outline>
		<contour>
			<point x="247" y="-41" type="qcurve"/>
			<point x="289" y="-62"/>
			<point x="289" y="-105" type="qcurve"/>
			<point x="289" y="-131"/>
			<point x="269" y="-168"/>
			<point x="234" y="-193"/>
			<point x="188" y="-205"/>
			<point x="162" y="-205" type="qcurve"/>
			<point x="107" y="-205"/>
			<point x="71" y="-186" type="qcurve"/>
			<point x="101" y="-118" type="line"/>
			<point x="112" y="-123"/>
			<point x="141" y="-130"/>
			<point x="158" y="-130" type="qcurve"/>
			<point x="176" y="-130"/>
			<point x="197" y="-118"/>
			<point x="197" y="-106" type="qcurve"/>
			<point x="197" y="-94"/>
			<point x="182" y="-81"/>
			<point x="165" y="-73" type="qcurve"/>
			<point x="152" y="-67" type="line"/>
			<point x="158" y="-56"/>
			<point x="178" y="-27"/>
			<point x="188" y="-13" type="qcurve"/>
			<point x="130" y="-8"/>
			<point x="59" y="20"/>
			<point x="45" y="28" type="qcurve"/>
			<point x="88" y="123" type="line"/>
			<point x="95" y="119"/>
			<point x="122" y="106"/>
			<point x="157" y="94"/>
			<point x="200" y="85"/>
			<point x="224" y="85" type="qcurve"/>
			<point x="272" y="85"/>
			<point x="328" y="116"/>
			<point x="328" y="148" type="qcurve"/>
			<point x="328" y="174"/>
			<point x="292" y="205"/>
			<point x="247" y="226" type="qcurve"/>
			<point x="223" y="237"/>
			<point x="182" y="261"/>
			<point x="152" y="293"/>
			<point x="134" y="336"/>
			<point x="134" y="366" type="qcurve"/>
			<point x="134" y="444"/>
			<point x="248" y="536"/>
			<point x="356" y="536" type="qcurve"/>
			<point x="406" y="536"/>
			<point x="485" y="515"/>
			<point x="505" y="504" type="qcurve"/>
			<point x="462" y="410" type="line"/>
			<point x="445" y="420"/>
			<point x="381" y="439"/>
			<point x="346" y="439" type="qcurve"/>
			<point x="329" y="439"/>
			<point x="296" y="433"/>
			<point x="270" y="419"/>
			<point x="253" y="394"/>
			<point x="253" y="376" type="qcurve"/>
			<point x="253" y="353"/>
			<point x="290" y="324"/>
			<point x="325" y="308" type="qcurve"/>
			<point x="358" y="293"/>
			<point x="404" y="265"/>
			<point x="434" y="230"/>
			<point x="448" y="187"/>
			<point x="448" y="157" type="qcurve"/>
			<point x="448" y="90"/>
			<point x="355" y="-1"/>
			<point x="267" y="-12" type="qcurve"/>
			<point x="254" y="-30"/>
		</contour>
	</outline>
</glyph>
<glyph name="uni0162" format="2">
	<unicode hex="0162"/>
	<advance width="582"/>
	<outline>
		<contour>
			<point x="354" y="-105" type="qcurve"/>
			<point x="354" y="-131"/>
			<point x="334" y="-168"/>
			<point x="299" y="-193"/>
			<point x="253" y="-205"/>
			<point x="227" y="-205" type="qcurve"/>
			<point x="172" y="-205"/>
			<point x="136" y="-186" type="qcurve"/>
			<point x="166" y="-118" type="line"/>
			<point x="177" y="-123"/>
			<point x="206" y="-130"/>
			<point x="223" y="-130" type="qcurve"/>
			<point x="241" y="-130"/>
			<point x="262" y="-118"/>
			<point x="262" y="-106" type="qcurve"/>
			<point x="262" y="-94"/>
			<point x="247" y="-81"/>
			<point x="230" y="-73" type="qcurve"/>
			<point x="217" y="-67" type="line"/>
			<point x="225" y="-53"/>
			<point x="252" y="-15"/>
			<point x="263" y="0" type="qcurve"/>
			<point x="230" y="0" type="line"/>
			<point x="371" y="587" type="line"/>
			<point x="165" y="587" type="line"/>
			<point x="190" y="693" type="line"/>
			<point x="729" y="693" type="line"/>
			<point x="703" y="587" type="line"/>
			<point x="497" y="587" type="line"/>
			<point x="356" y="0" type="line"/>
			<point x="341" y="0" type="line"/>
			<point x="312" y="-41" type="line"/>
			<point x="354" y="-62"/>
		</contour>
	</outline>
	<note>
		Accent changed from comma to cedilla.
	</note>
</glyph>
<glyph name="uni0163" format="2">
	<unicode hex="0163"/>
	<advance width="401"/>
	<outline>
		<contour>
			<point x="312" y="-105" type="qcurve"/>
			<point x="312" y="-131"/>
			<point x="292" y="-168"/>
			<point x="257" y="-193"/>
			<point x="211" y="-205"/>
			<point x="185" y="-205" type="qcurve"/>
			<point x="130" y="-205"/>
			<point x="94" y="-186" type="qcurve"/>
			<point x="124" y="-118" type="line"/>
			<point x="135" y="-123"/>
			<point x="164" y="-130"/>
			<point x="181" y="-130" type="qcurve"/>
			<point x="199" y="-130"/>
			<point x="220" y="-118"/>
			<point x="220" y="-106" type="qcurve"/>
			<point x="220" y="-94"/>
			<point x="205" y="-81"/>
			<point x="188" y="-73" type="qcurve"/>
			<point x="175" y="-67" type="line"/>
			<point x="182" y="-55"/>
			<point x="204" y="-23"/>
			<point x="214" y="-9" type="qcurve"/>
			<point x="154" y="1"/>
			<point x="102" y="72"/>
			<point x="102" y="127" type="qcurve"/>
			<point x="102" y="151"/>
			<point x="109" y="202"/>
			<point x="116" y="231" type="qcurve"/>
			<point x="218" y="661" type="line"/>
			<point x="344" y="681" type="line"/>
			<point x="306" y="523" type="line"/>
			<point x="477" y="523" type="line"/>
			<point x="453" y="423" type="line"/>
			<point x="282" y="423" type="line"/>
			<point x="232" y="216" type="line"/>
			<point x="227" y="194"/>
			<point x="223" y="165"/>
			<point x="223" y="153" type="qcurve"/>
			<point x="223" y="141"/>
			<point x="228" y="118"/>
			<point x="243" y="101"/>
			<point x="272" y="90"/>
			<point x="297" y="90" type="qcurve"/>
			<point x="324" y="90"/>
			<point x="374" y="104"/>
			<point x="393" y="112" type="qcurve"/>
			<point x="402" y="15" type="line"/>
			<point x="383" y="7"/>
			<point x="327" y="-9"/>
			<point x="290" y="-12" type="qcurve"/>
			<point x="270" y="-41" type="line"/>
			<point x="312" y="-62"/>
		</contour>
	</outline>
	<note>
		Accent changed from comma to cedilla.
	</note>
</glyph>
<glyph name="Tbar" format="2">
	<unicode hex="0166"/>
	<advance width="582"/>
	<outline>
		<contour>
			<point x="190" y="693" type="line"/>
			<point x="165" y="587" type="line"/>
			<point x="371" y="587" type="line"/>
			<point x="322" y="385" type="line"/>
			<point x="191" y="385" type="line"/>
			<point x="168" y="292" type="line"/>
			<point x="300" y="292" type="line"/>
			<point x="230" y="0" type="line"/>
			<point x="356" y="0" type="line"/>
			<point x="426" y="292" type="line"/>
			<point x="560" y="292" type="line"/>
			<point x="583" y="385" type="line"/>
			<point x="448" y="385" type="line"/>
			<point x="497" y="587" type="line"/>
			<point x="703" y="587" type="line"/>
			<point x="729" y="693" type="line"/>
		</contour>
	</outline>
</glyph>
<glyph name="Uogonek" format="2">
	<unicode hex="0172"/>
	<advance width="677"/>
	<outline>
		<contour>
			<point x="424" y="-189" type="line"/>
			<point x="408" y="-196"/>
			<point x="369" y="-204"/>
			<point x="347" y="-204" type="qcurve"/>
			<point x="298" y="-204"/>
			<point x="243" y="-168"/>
			<point x="243" y="-130" type="qcurve"/>
			<point x="243" y="-101"/>
			<point x="282" y="-44"/>
			<point x="318" y="-20" type="qcurve"/>
			<point x="327" y="-14" type="line"/>
			<point x="274" y="-11"/>
			<point x="199" y="22"/>
			<point x="151" y="75"/>
			<point x="129" y="147"/>
			<point x="129" y="189" type="qcurve"/>
			<point x="129" y="212"/>
			<point x="136" y="268"/>
			<point x="143" y="294" type="qcurve"/>
			<point x="238" y="693" type="line"/>
			<point x="365" y="693" type="line"/>
			<point x="266" y="280" type="line"/>
			<point x="261" y="261"/>
			<point x="255" y="220"/>
			<point x="255" y="201" type="qcurve"/>
			<point x="255" y="179"/>
			<point x="266" y="140"/>
			<point x="292" y="112"/>
			<point x="334" y="95"/>
			<point x="365" y="95" type="qcurve"/>
			<point x="438" y="95"/>
			<point x="516" y="181"/>
			<point x="536" y="267" type="qcurve"/>
			<point x="638" y="693" type="line"/>
			<point x="765" y="693" type="line"/>
			<point x="660" y="255" type="line"/>
			<point x="636" y="155"/>
			<point x="554" y="33"/>
			<point x="478" y="5" type="qcurve"/>
			<point x="464" y="0"/>
			<point x="427" y="-19"/>
			<point x="412" y="-30" type="qcurve"/>
			<point x="381" y="-53"/>
			<point x="355" y="-87"/>
			<point x="355" y="-99" type="qcurve"/>
			<point x="355" y="-118"/>
			<point x="386" y="-118" type="qcurve"/>
			<point x="398" y="-118"/>
			<point x="425" y="-112"/>
			<point x="433" y="-109" type="qcurve"/>
		</contour>
	</outline>
</glyph>
<glyph name="uogonek" format="2">
	<unicode hex="0173"/>
	<advance width="567"/>
	<outline>
		<contour>
			<point x="513" y="-189" type="line"/>
			<point x="497" y="-196"/>
			<point x="458" y="-204"/>
			<point x="436" y="-204" type="qcurve"/>
			<point x="387" y="-204"/>
			<point x="332" y="-168"/>
			<point x="332" y="-130" type="qcurve"/>
			<point x="332" y="-101"/>
			<point x="371" y="-44"/>
			<point x="407" y="-20" type="qcurve"/>
			<point x="414" y="-15"/>
			<point x="427" y="-6"/>
			<point x="433" y="-2" type="qcurve"/>
			<point x="428" y="8"/>
			<point x="420" y="31"/>
			<point x="417" y="44" type="qcurve"/>
			<point x="392" y="24"/>
			<point x="318" y="-13"/>
			<point x="269" y="-13" type="qcurve"/>
			<point x="225" y="-13"/>
			<point x="163" y="13"/>
			<point x="124" y="58"/>
			<point x="107" y="119"/>
			<point x="107" y="153" type="qcurve"/>
			<point x="107" y="197"/>
			<point x="119" y="248" type="qcurve"/>
			<point x="185" y="523" type="line"/>
			<point x="306" y="523" type="line"/>
			<point x="241" y="251" type="line"/>
			<point x="228" y="199"/>
			<point x="228" y="166" type="qcurve"/>
			<point x="228" y="150"/>
			<point x="234" y="122"/>
			<point x="249" y="101"/>
			<point x="276" y="89"/>
			<point x="296" y="89" type="qcurve"/>
			<point x="329" y="89"/>
			<point x="381" y="116"/>
			<point x="403" y="139" type="qcurve"/>
			<point x="406" y="182"/>
			<point x="417" y="227" type="qcurve"/>
			<point x="487" y="523" type="line"/>
			<point x="608" y="523" type="line"/>
			<point x="534" y="212" type="line"/>
			<point x="529" y="189"/>
			<point x="524" y="143"/>
			<point x="524" y="120" type="qcurve"/>
			<point x="524" y="91"/>
			<point x="534" y="31"/>
			<point x="546" y="3" type="qcurve"/>
			<point x="490" y="-36"/>
			<point x="444" y="-81"/>
			<point x="444" y="-99" type="qcurve"/>
			<point x="444" y="-118"/>
			<point x="475" y="-118" type="qcurve"/>
			<point x="487" y="-118"/>
			<point x="514" y="-112"/>
			<point x="522" y="-109" type="qcurve"/>
		</contour>
	</outline>
</glyph>
<glyph name="longs" format="2">
	<unicode hex="017F"/>
	<advance width="307"/>
	<outline>
		<contour>
			<point x="220" y="110" type="line"/>
			<point x="207" y="56"/>
			<point x="184" y="-28"/>
			<point x="154" y="-98"/>
			<point x="113" y="-159"/>
			<point x="82" y="-189" type="qcurve"/>
			<point x="-23" y="-173" type="line"/>
			<point x="-4" y="-149"/>
			<point x="29" y="-100"/>
			<point x="56" y="-45"/>
			<point x="79" y="20"/>
			<point x="88" y="60" type="qcurve"/>
			<point x="207" y="560" type="line"/>
			<point x="219" y="611"/>
			<point x="260" y="692"/>
			<point x="321" y="747"/>
			<point x="406" y="776"/>
			<point x="462" y="776" type="qcurve"/>
			<point x="502" y="776"/>
			<point x="567" y="759"/>
			<point x="584" y="751" type="qcurve"/>
			<point x="540" y="656" type="line"/>
			<point x="527" y="662"/>
			<point x="484" y="673"/>
			<point x="455" y="673" type="qcurve"/>
			<point x="425" y="673"/>
			<point x="383" y="656"/>
			<point x="353" y="626"/>
			<point x="334" y="583"/>
			<point x="328" y="558" type="qcurve"/>
		</contour>
	</outline>
</glyph>
<glyph name="uni0180" format="2">
	<unicode hex="0180"/>
	<advance width="569"/>
	<outline>
		<contour>
			<point x="415" y="532" type="qcurve"/>
			<point x="461" y="532"/>
			<point x="528" y="502"/>
			<point x="572" y="448"/>
			<point x="594" y="376"/>
			<point x="594" y="334" type="qcurve"/>
			<point x="594" y="265"/>
			<point x="546" y="139"/>
			<point x="457" y="44"/>
			<point x="329" y="-13"/>
			<point x="249" y="-13" type="qcurve"/>
			<point x="237" y="-13"/>
			<point x="197" y="-11"/>
			<point x="149" y="-3"/>
			<point x="99" y="11"/>
			<point x="78" y="22" type="qcurve"/>
			<point x="217" y="605" type="line"/>
			<point x="150" y="605" type="line"/>
			<point x="169" y="686" type="line"/>
			<point x="236" y="686" type="line"/>
			<point x="253" y="756" type="line"/>
			<point x="379" y="776" type="line"/>
			<point x="357" y="686" type="line"/>
			<point x="508" y="686" type="line"/>
			<point x="489" y="605" type="line"/>
			<point x="338" y="605" type="line"/>
			<point x="315" y="506" type="line"/>
			<point x="336" y="517"/>
			<point x="386" y="532"/>
		</contour>
		<contour>
			<point x="265" y="89" type="qcurve"/>
			<point x="311" y="89"/>
			<point x="388" y="128"/>
			<point x="443" y="193"/>
			<point x="473" y="278"/>
			<point x="473" y="324" type="qcurve"/>
			<point x="473" y="370"/>
			<point x="436" y="431"/>
			<point x="385" y="431" type="qcurve"/>
			<point x="362" y="431"/>
			<point x="311" y="415"/>
			<point x="289" y="398" type="qcurve"/>
			<point x="216" y="94" type="line"/>
			<point x="227" y="92"/>
			<point x="248" y="89"/>
		</contour>
	</outline>
</glyph>
<glyph name="uni0181" format="2">
	<unicode hex="0181"/>
	<advance width="769"/>
	<outline>
		<contour>
			<point x="417" y="-8" type="qcurve"/>
			<point x="366" y="-8"/>
			<point x="253" y="1"/>
			<point x="209" y="11" type="qcurve"/>
			<point x="347" y="588" type="line"/>
			<point x="290" y="583"/>
			<point x="241" y="536"/>
			<point x="239" y="491" type="qcurve"/>
			<point x="139" y="479" type="line"/>
			<point x="138" y="484"/>
			<point x="138" y="502"/>
			<point x="138" y="510" type="qcurve"/>
			<point x="141" y="580"/>
			<point x="218" y="657"/>
			<point x="339" y="693"/>
			<point x="489" y="700"/>
			<point x="566" y="700" type="qcurve"/>
			<point x="608" y="700"/>
			<point x="694" y="688"/>
			<point x="765" y="654"/>
			<point x="810" y="593"/>
			<point x="810" y="544" type="qcurve"/>
			<point x="810" y="491"/>
			<point x="751" y="397"/>
			<point x="681" y="368" type="qcurve"/>
			<point x="725" y="350"/>
			<point x="773" y="282"/>
			<point x="773" y="237" type="qcurve"/>
			<point x="773" y="120"/>
			<point x="590" y="-8"/>
		</contour>
		<contour>
			<point x="406" y="313" type="line"/>
			<point x="355" y="100" type="line"/>
			<point x="369" y="98"/>
			<point x="415" y="95"/>
			<point x="443" y="95" type="qcurve"/>
			<point x="476" y="95"/>
			<point x="548" y="105"/>
			<point x="606" y="133"/>
			<point x="645" y="185"/>
			<point x="645" y="226" type="qcurve"/>
			<point x="645" y="264"/>
			<point x="587" y="313"/>
			<point x="520" y="313" type="qcurve"/>
		</contour>
		<contour>
			<point x="430" y="410" type="line"/>
			<point x="510" y="410" type="line"/>
			<point x="546" y="410"/>
			<point x="609" y="420"/>
			<point x="656" y="445"/>
			<point x="684" y="487"/>
			<point x="684" y="518" type="qcurve"/>
			<point x="684" y="564"/>
			<point x="615" y="598"/>
			<point x="557" y="598" type="qcurve"/>
			<point x="532" y="598"/>
			<point x="487" y="597"/>
			<point x="474" y="595" type="qcurve"/>
		</contour>
	</outline>
	<guideline x="566"/>
</glyph>
<glyph name="uni0183" format="2">
	<unicode hex="0183"/>
	<advance width="585"/>
	<outline>
		<contour>
			<point x="354" y="669" type="line"/>
			<point x="315" y="506" type="line"/>
			<point x="336" y="517"/>
			<point x="386" y="532"/>
			<point x="415" y="532" type="qcurve"/>
			<point x="461" y="532"/>
			<point x="528" y="502"/>
			<point x="572" y="448"/>
			<point x="594" y="376"/>
			<point x="594" y="334" type="qcurve"/>
			<point x="594" y="265"/>
			<point x="546" y="139"/>
			<point x="457" y="44"/>
			<point x="329" y="-13"/>
			<point x="249" y="-13" type="qcurve"/>
			<point x="237" y="-13"/>
			<point x="197" y="-11"/>
			<point x="149" y="-3"/>
			<point x="99" y="11"/>
			<point x="78" y="22" type="qcurve"/>
			<point x="257" y="770" type="line"/>
			<point x="656" y="770" type="line"/>
			<point x="632" y="669" type="line"/>
		</contour>
		<contour>
			<point x="265" y="89" type="qcurve"/>
			<point x="311" y="89"/>
			<point x="388" y="128"/>
			<point x="443" y="193"/>
			<point x="473" y="278"/>
			<point x="473" y="324" type="qcurve"/>
			<point x="473" y="370"/>
			<point x="436" y="431"/>
			<point x="385" y="431" type="qcurve"/>
			<point x="362" y="431"/>
			<point x="311" y="415"/>
			<point x="289" y="398" type="qcurve"/>
			<point x="216" y="94" type="line"/>
			<point x="227" y="92"/>
			<point x="248" y="89"/>
		</contour>
	</outline>
	<guideline x="452" y="0" angle="103.5"/>
</glyph>
<glyph name="uni0184" format="2">
	<unicode hex="0184"/>
	<advance width="569"/>
	<outline>
		<contour>
			<point x="415" y="535" type="qcurve"/>
			<point x="461" y="535"/>
			<point x="528" y="504"/>
			<point x="572" y="450"/>
			<point x="594" y="377"/>
			<point x="594" y="335" type="qcurve"/>
			<point x="594" y="266"/>
			<point x="546" y="140"/>
			<point x="457" y="44"/>
			<point x="329" y="-13"/>
			<point x="249" y="-13" type="qcurve"/>
			<point x="237" y="-13"/>
			<point x="197" y="-11"/>
			<point x="149" y="-3"/>
			<point x="99" y="11"/>
			<point x="78" y="22" type="qcurve"/>
			<point x="218" y="610" type="line"/>
			<point x="161" y="692" type="line"/>
			<point x="209" y="716"/>
			<point x="321" y="762"/>
			<point x="379" y="776" type="qcurve"/>
			<point x="315" y="508" type="line"/>
			<point x="337" y="519"/>
			<point x="387" y="535"/>
		</contour>
		<contour>
			<point x="265" y="89" type="qcurve"/>
			<point x="311" y="89"/>
			<point x="388" y="128"/>
			<point x="443" y="194"/>
			<point x="473" y="279"/>
			<point x="473" y="325" type="qcurve"/>
			<point x="473" y="348"/>
			<point x="465" y="387"/>
			<point x="445" y="416"/>
			<point x="411" y="433"/>
			<point x="385" y="433" type="qcurve"/>
			<point x="363" y="433"/>
			<point x="311" y="417"/>
			<point x="289" y="400" type="qcurve"/>
			<point x="216" y="94" type="line"/>
			<point x="225" y="92"/>
			<point x="248" y="89"/>
		</contour>
	</outline>
	<guideline x="169"/>
</glyph>
<glyph name="uni0185" format="2">
	<unicode hex="0185"/>
	<advance width="627"/>
	<outline>
		<contour>
			<point x="214" y="534" type="line"/>
			<point x="156" y="617" type="line"/>
			<point x="201" y="640"/>
			<point x="322" y="687"/>
			<point x="381" y="701" type="qcurve"/>
			<point x="319" y="444" type="line"/>
			<point x="336" y="445"/>
			<point x="369" y="445"/>
			<point x="384" y="445" type="qcurve"/>
			<point x="519" y="445"/>
			<point x="639" y="349"/>
			<point x="639" y="258" type="qcurve"/>
			<point x="639" y="186"/>
			<point x="582" y="85"/>
			<point x="485" y="22"/>
			<point x="356" y="-7"/>
			<point x="285" y="-7" type="qcurve"/>
			<point x="237" y="-7"/>
			<point x="129" y="2"/>
			<point x="89" y="13" type="qcurve"/>
		</contour>
		<contour>
			<point x="238" y="104" type="line"/>
			<point x="261" y="99"/>
			<point x="309" y="99" type="qcurve"/>
			<point x="406" y="99"/>
			<point x="509" y="175"/>
			<point x="509" y="247" type="qcurve"/>
			<point x="509" y="340"/>
			<point x="365" y="340" type="qcurve"/>
			<point x="339" y="340"/>
			<point x="304" y="339"/>
			<point x="294" y="338" type="qcurve"/>
		</contour>
	</outline>
</glyph>
<glyph name="uni0186" format="2">
	<unicode hex="0186"/>
	<advance width="600"/>
	<outline>
		<contour>
			<point x="178" y="668" type="line"/>
			<point x="208" y="682"/>
			<point x="313" y="709"/>
			<point x="379" y="709" type="qcurve"/>
			<point x="438" y="709"/>
			<point x="535" y="673"/>
			<point x="605" y="606"/>
			<point x="643" y="510"/>
			<point x="643" y="449" type="qcurve"/>
			<point x="643" y="345"/>
			<point x="582" y="174"/>
			<point x="474" y="52"/>
			<point x="324" y="-15"/>
			<point x="235" y="-15" type="qcurve"/>
			<point x="163" y="-15"/>
			<point x="61" y="18"/>
			<point x="32" y="35" type="qcurve"/>
			<point x="88" y="135" type="line"/>
			<point x="116" y="118"/>
			<point x="192" y="94"/>
			<point x="241" y="94" type="qcurve"/>
			<point x="305" y="94"/>
			<point x="406" y="150"/>
			<point x="475" y="244"/>
			<point x="512" y="364"/>
			<point x="512" y="429" type="qcurve"/>
			<point x="512" y="518"/>
			<point x="433" y="598"/>
			<point x="353" y="598" type="qcurve"/>
			<point x="301" y="598"/>
			<point x="216" y="575"/>
			<point x="187" y="562" type="qcurve"/>
		</contour>
	</outline>
	<guideline x="-38"/>
</glyph>
<glyph name="uni0187" format="2">
	<unicode hex="0187"/>
	<advance width="666"/>
	<outline>
		<contour>
			<point x="600" y="30" type="line"/>
			<point x="567" y="13"/>
			<point x="465" y="-15"/>
			<point x="392" y="-15" type="qcurve"/>
			<point x="328" y="-15"/>
			<point x="228" y="24"/>
			<point x="158" y="98"/>
			<point x="121" y="202"/>
			<point x="121" y="267" type="qcurve"/>
			<point x="121" y="351"/>
			<point x="177" y="510"/>
			<point x="283" y="634"/>
			<point x="435" y="709"/>
			<point x="531" y="709" type="qcurve"/>
			<point x="558" y="709"/>
			<point x="614" y="701"/>
			<point x="637" y="693" type="qcurve"/>
			<point x="663" y="743"/>
			<point x="744" y="786"/>
			<point x="795" y="786" type="qcurve"/>
			<point x="819" y="786"/>
			<point x="864" y="775"/>
			<point x="881" y="767" type="qcurve"/>
			<point x="837" y="674" type="line"/>
			<point x="826" y="679"/>
			<point x="802" y="685"/>
			<point x="789" y="685" type="qcurve"/>
			<point x="765" y="685"/>
			<point x="732" y="665"/>
			<point x="707" y="632"/>
			<point x="687" y="586"/>
			<point x="675" y="561" type="qcurve"/>
			<point x="646" y="577"/>
			<point x="572" y="600"/>
			<point x="523" y="600" type="qcurve"/>
			<point x="460" y="600"/>
			<point x="360" y="544"/>
			<point x="289" y="453"/>
			<point x="252" y="337"/>
			<point x="252" y="277" type="qcurve"/>
			<point x="252" y="184"/>
			<point x="333" y="95"/>
			<point x="411" y="95" type="qcurve"/>
			<point x="471" y="95"/>
			<point x="555" y="122"/>
			<point x="585" y="136" type="qcurve"/>
		</contour>
	</outline>
</glyph>
<glyph name="uni0188" format="2">
	<unicode hex="0188"/>
	<advance width="494"/>
	<outline>
		<contour>
			<point x="97" y="198" type="qcurve"/>
			<point x="97" y="266"/>
			<point x="140" y="389"/>
			<point x="221" y="482"/>
			<point x="337" y="536"/>
			<point x="411" y="536" type="qcurve"/>
			<point x="423" y="536"/>
			<point x="451" y="533"/>
			<point x="459" y="531" type="qcurve"/>
			<point x="484" y="586"/>
			<point x="558" y="629"/>
			<point x="604" y="629" type="qcurve"/>
			<point x="627" y="629"/>
			<point x="665" y="620"/>
			<point x="681" y="613" type="qcurve"/>
			<point x="641" y="524" type="line"/>
			<point x="632" y="528"/>
			<point x="610" y="533"/>
			<point x="599" y="533" type="qcurve"/>
			<point x="578" y="533"/>
			<point x="548" y="512"/>
			<point x="527" y="479"/>
			<point x="510" y="436"/>
			<point x="501" y="414" type="qcurve"/>
			<point x="484" y="422"/>
			<point x="439" y="433"/>
			<point x="406" y="433" type="qcurve"/>
			<point x="363" y="433"/>
			<point x="294" y="398"/>
			<point x="246" y="338"/>
			<point x="220" y="256"/>
			<point x="220" y="210" type="qcurve"/>
			<point x="220" y="184"/>
			<point x="231" y="141"/>
			<point x="256" y="108"/>
			<point x="300" y="90"/>
			<point x="333" y="90" type="qcurve"/>
			<point x="367" y="90"/>
			<point x="430" y="108"/>
			<point x="447" y="117" type="qcurve"/>
			<point x="457" y="18" type="line"/>
			<point x="434" y="7"/>
			<point x="358" y="-14"/>
			<point x="310" y="-14" type="qcurve"/>
			<point x="255" y="-14"/>
			<point x="175" y="19"/>
			<point x="122" y="76"/>
			<point x="97" y="153"/>
		</contour>
	</outline>
</glyph>
<glyph name="uni018A" format="2">
	<unicode hex="018A"/>
	<advance width="831"/>
	<outline>
		<contour>
			<point x="872" y="427" type="qcurve"/>
			<point x="872" y="334"/>
			<point x="812" y="174"/>
			<point x="694" y="58"/>
			<point x="517" y="-8"/>
			<point x="400" y="-8" type="qcurve"/>
			<point x="358" y="-8"/>
			<point x="253" y="1"/>
			<point x="209" y="11" type="qcurve"/>
			<point x="348" y="588" type="line"/>
			<point x="291" y="583"/>
			<point x="241" y="536"/>
			<point x="239" y="491" type="qcurve"/>
			<point x="139" y="479" type="line"/>
			<point x="138" y="487"/>
			<point x="137" y="514"/>
			<point x="139" y="525" type="qcurve"/>
			<point x="147" y="586"/>
			<point x="216" y="656"/>
			<point x="326" y="691"/>
			<point x="471" y="700"/>
			<point x="556" y="700" type="qcurve"/>
			<point x="633" y="700"/>
			<point x="751" y="662"/>
			<point x="831" y="591"/>
			<point x="872" y="490"/>
		</contour>
		<contour>
			<point x="358" y="103" type="line"/>
			<point x="367" y="102"/>
			<point x="398" y="100"/>
			<point x="429" y="100" type="qcurve"/>
			<point x="501" y="100"/>
			<point x="617" y="146"/>
			<point x="698" y="231"/>
			<point x="742" y="350"/>
			<point x="742" y="423" type="qcurve"/>
			<point x="742" y="503"/>
			<point x="653" y="594"/>
			<point x="552" y="594" type="qcurve"/>
			<point x="529" y="594"/>
			<point x="491" y="594"/>
			<point x="475" y="592" type="qcurve"/>
		</contour>
	</outline>
</glyph>
<glyph name="uni018B" format="2">
	<unicode hex="018B"/>
	<advance width="623"/>
	<outline>
		<contour>
			<point x="233" y="586" type="line"/>
			<point x="258" y="693" type="line"/>
			<point x="708" y="693" type="line"/>
			<point x="544" y="13" type="line"/>
			<point x="519" y="7"/>
			<point x="464" y="0"/>
			<point x="411" y="-5"/>
			<point x="362" y="-7"/>
			<point x="343" y="-7" type="qcurve"/>
			<point x="215" y="-6"/>
			<point x="90" y="89"/>
			<point x="90" y="175" type="qcurve"/>
			<point x="90" y="234"/>
			<point x="132" y="331"/>
			<point x="217" y="401"/>
			<point x="347" y="440"/>
			<point x="434" y="440" type="qcurve"/>
			<point x="519" y="440" type="line"/>
			<point x="555" y="586" type="line"/>
		</contour>
		<contour>
			<point x="216" y="194" type="qcurve"/>
			<point x="216" y="167"/>
			<point x="236" y="130"/>
			<point x="274" y="109"/>
			<point x="326" y="100"/>
			<point x="358" y="100" type="qcurve"/>
			<point x="387" y="100"/>
			<point x="425" y="103"/>
			<point x="439" y="105" type="qcurve"/>
			<point x="494" y="336" type="line"/>
			<point x="421" y="336" type="line"/>
			<point x="322" y="336"/>
			<point x="216" y="262"/>
		</contour>
	</outline>
</glyph>
<glyph name="uni018D" format="2">
	<unicode hex="018D"/>
	<advance width="563"/>
	<outline>
		<contour>
			<point x="592" y="347" type="qcurve"/>
			<point x="592" y="298"/>
			<point x="562" y="209"/>
			<point x="508" y="134"/>
			<point x="431" y="74"/>
			<point x="385" y="55" type="qcurve"/>
			<point x="405" y="37"/>
			<point x="427" y="-5"/>
			<point x="427" y="-36" type="qcurve"/>
			<point x="427" y="-78"/>
			<point x="391" y="-136"/>
			<point x="331" y="-172"/>
			<point x="252" y="-188"/>
			<point x="210" y="-188" type="qcurve"/>
			<point x="156" y="-188"/>
			<point x="70" y="-167"/>
			<point x="40" y="-150" type="qcurve"/>
			<point x="86" y="-58" type="line"/>
			<point x="106" y="-71"/>
			<point x="180" y="-93"/>
			<point x="219" y="-93" type="qcurve"/>
			<point x="235" y="-93"/>
			<point x="269" y="-89"/>
			<point x="295" y="-77"/>
			<point x="312" y="-57"/>
			<point x="312" y="-41" type="qcurve"/>
			<point x="312" y="-24"/>
			<point x="282" y="6"/>
			<point x="237" y="38"/>
			<point x="184" y="75"/>
			<point x="139" y="126"/>
			<point x="109" y="194"/>
			<point x="109" y="241" type="qcurve"/>
			<point x="109" y="311"/>
			<point x="156" y="421"/>
			<point x="236" y="497"/>
			<point x="342" y="536"/>
			<point x="401" y="536" type="qcurve"/>
			<point x="450" y="536"/>
			<point x="523" y="505"/>
			<point x="569" y="453"/>
			<point x="592" y="384"/>
		</contour>
		<contour>
			<point x="224" y="248" type="qcurve"/>
			<point x="224" y="199"/>
			<point x="269" y="138"/>
			<point x="309" y="113" type="qcurve"/>
			<point x="386" y="144"/>
			<point x="475" y="263"/>
			<point x="475" y="334" type="qcurve"/>
			<point x="475" y="373"/>
			<point x="434" y="433"/>
			<point x="388" y="433" type="qcurve"/>
			<point x="355" y="433"/>
			<point x="295" y="409"/>
			<point x="250" y="362"/>
			<point x="224" y="293"/>
		</contour>
	</outline>
</glyph>
<glyph name="uni018E" format="2">
	<unicode hex="018E"/>
	<advance width="572"/>
	<outline>
		<contour>
			<point x="41" y="0" type="line"/>
			<point x="66" y="106" type="line"/>
			<point x="389" y="106" type="line"/>
			<point x="438" y="311" type="line"/>
			<point x="171" y="311" type="line"/>
			<point x="196" y="414" type="line"/>
			<point x="463" y="414" type="line"/>
			<point x="504" y="587" type="line"/>
			<point x="202" y="587" type="line"/>
			<point x="227" y="693" type="line"/>
			<point x="656" y="693" type="line"/>
			<point x="490" y="0" type="line"/>
		</contour>
	</outline>
</glyph>
<glyph name="uni018F" format="2">
	<unicode hex="018F"/>
	<advance width="698"/>
	<outline>
		<contour>
			<point x="110" y="216" type="qcurve"/>
			<point x="110" y="249"/>
			<point x="124" y="336"/>
			<point x="140" y="383" type="qcurve"/>
			<point x="608" y="383" type="line"/>
			<point x="611" y="402"/>
			<point x="611" y="423" type="qcurve"/>
			<point x="611" y="470"/>
			<point x="587" y="537"/>
			<point x="543" y="579"/>
			<point x="480" y="599"/>
			<point x="442" y="599" type="qcurve"/>
			<point x="385" y="599"/>
			<point x="288" y="571"/>
			<point x="254" y="556" type="qcurve"/>
			<point x="245" y="659" type="line"/>
			<point x="277" y="678"/>
			<point x="392" y="709"/>
			<point x="461" y="709" type="qcurve"/>
			<point x="530" y="709"/>
			<point x="635" y="668"/>
			<point x="704" y="597"/>
			<point x="739" y="500"/>
			<point x="739" y="444" type="qcurve"/>
			<point x="739" y="341"/>
			<point x="679" y="172"/>
			<point x="572" y="51"/>
			<point x="428" y="-15"/>
			<point x="344" y="-15" type="qcurve"/>
			<point x="233" y="-15"/>
			<point x="110" y="107"/>
		</contour>
		<contour>
			<point x="356" y="92" type="qcurve"/>
			<point x="400" y="92"/>
			<point x="473" y="122"/>
			<point x="530" y="173"/>
			<point x="572" y="241"/>
			<point x="586" y="280" type="qcurve"/>
			<point x="241" y="280" type="line"/>
			<point x="233" y="242"/>
			<point x="233" y="210" type="qcurve"/>
			<point x="233" y="153"/>
			<point x="295" y="92"/>
		</contour>
	</outline>
</glyph>
<glyph name="uni0190" format="2">
	<unicode hex="0190"/>
	<advance width="567"/>
	<outline>
		<contour>
			<point x="502" y="310" type="line"/>
			<point x="435" y="310" type="line"/>
			<point x="402" y="310"/>
			<point x="327" y="300"/>
			<point x="264" y="270"/>
			<point x="223" y="218"/>
			<point x="223" y="176" type="qcurve"/>
			<point x="223" y="132"/>
			<point x="295" y="93"/>
			<point x="352" y="93" type="qcurve"/>
			<point x="412" y="93"/>
			<point x="510" y="120"/>
			<point x="542" y="134" type="qcurve"/>
			<point x="552" y="30" type="line"/>
			<point x="520" y="14"/>
			<point x="402" y="-15"/>
			<point x="331" y="-15" type="qcurve"/>
			<point x="280" y="-15"/>
			<point x="193" y="5"/>
			<point x="130" y="49"/>
			<point x="95" y="118"/>
			<point x="95" y="167" type="qcurve"/>
			<point x="95" y="240"/>
			<point x="186" y="350"/>
			<point x="266" y="375" type="qcurve"/>
			<point x="232" y="394"/>
			<point x="199" y="455"/>
			<point x="199" y="493" type="qcurve"/>
			<point x="199" y="547"/>
			<point x="249" y="628"/>
			<point x="331" y="682"/>
			<point x="434" y="709"/>
			<point x="488" y="709" type="qcurve"/>
			<point x="516" y="709"/>
			<point x="570" y="701"/>
			<point x="618" y="687"/>
			<point x="659" y="668"/>
			<point x="674" y="658" type="qcurve"/>
			<point x="614" y="560" type="line"/>
			<point x="592" y="575"/>
			<point x="515" y="600"/>
			<point x="467" y="600" type="qcurve"/>
			<point x="404" y="600"/>
			<point x="324" y="546"/>
			<point x="324" y="491" type="qcurve"/>
			<point x="324" y="469"/>
			<point x="343" y="440"/>
			<point x="376" y="422"/>
			<point x="421" y="414"/>
			<point x="446" y="414" type="qcurve"/>
			<point x="528" y="414" type="line"/>
		</contour>
	</outline>
</glyph>
<glyph name="uni0191" format="2">
	<unicode hex="0191"/>
	<advance width="540"/>
	<outline>
		<contour>
			<point x="202" y="-9" type="line"/>
			<point x="181" y="-99"/>
			<point x="90" y="-188"/>
			<point x="7" y="-188" type="qcurve"/>
			<point x="-13" y="-188"/>
			<point x="-58" y="-178"/>
			<point x="-75" y="-170" type="qcurve"/>
			<point x="-42" y="-76" type="line"/>
			<point x="-23" y="-85"/>
			<point x="2" y="-85" type="qcurve"/>
			<point x="35" y="-85"/>
			<point x="67" y="-43"/>
			<point x="77" y="-3" type="qcurve"/>
			<point x="244" y="693" type="line"/>
			<point x="671" y="693" type="line"/>
			<point x="646" y="588" type="line"/>
			<point x="344" y="588" type="line"/>
			<point x="301" y="408" type="line"/>
			<point x="568" y="408" type="line"/>
			<point x="543" y="304" type="line"/>
			<point x="277" y="304" type="line"/>
		</contour>
	</outline>
</glyph>
<glyph name="florin" format="2">
	<unicode hex="0192"/>
	<advance width="390"/>
	<outline>
		<contour>
			<point x="203" y="19" type="line"/>
			<point x="190" y="-35"/>
			<point x="155" y="-113"/>
			<point x="104" y="-163"/>
			<point x="35" y="-187"/>
			<point x="-13" y="-187" type="qcurve"/>
			<point x="-36" y="-187"/>
			<point x="-85" y="-176"/>
			<point x="-102" y="-168" type="qcurve"/>
			<point x="-72" y="-71" type="line"/>
			<point x="-60" y="-76"/>
			<point x="-29" y="-84"/>
			<point x="-11" y="-84" type="qcurve"/>
			<point x="30" y="-84"/>
			<point x="72" y="-27"/>
			<point x="83" y="21" type="qcurve"/>
			<point x="212" y="560" type="line"/>
			<point x="224" y="611"/>
			<point x="265" y="692"/>
			<point x="326" y="747"/>
			<point x="411" y="776"/>
			<point x="467" y="776" type="qcurve"/>
			<point x="507" y="776"/>
			<point x="572" y="759"/>
			<point x="589" y="751" type="qcurve"/>
			<point x="545" y="656" type="line"/>
			<point x="532" y="662"/>
			<point x="489" y="673"/>
			<point x="460" y="673" type="qcurve"/>
			<point x="430" y="673"/>
			<point x="388" y="656"/>
			<point x="358" y="626"/>
			<point x="339" y="583"/>
			<point x="333" y="558" type="qcurve"/>
			<point x="324" y="523" type="line"/>
			<point x="499" y="523" type="line"/>
			<point x="475" y="423" type="line"/>
			<point x="300" y="423" type="line"/>
		</contour>
	</outline>
</glyph>
<glyph name="uni0193" format="2">
	<unicode hex="0193"/>
	<advance width="680"/>
	<outline>
		<contour>
			<point x="412" y="94" type="qcurve"/>
			<point x="441" y="94"/>
			<point x="487" y="100"/>
			<point x="500" y="104" type="qcurve"/>
			<point x="559" y="352" type="line"/>
			<point x="684" y="352" type="line"/>
			<point x="604" y="20" type="line"/>
			<point x="578" y="8"/>
			<point x="467" y="-14"/>
			<point x="392" y="-14" type="qcurve"/>
			<point x="326" y="-14"/>
			<point x="224" y="25"/>
			<point x="156" y="98"/>
			<point x="121" y="202"/>
			<point x="121" y="267" type="qcurve"/>
			<point x="121" y="351"/>
			<point x="177" y="510"/>
			<point x="284" y="634"/>
			<point x="439" y="709"/>
			<point x="537" y="709" type="qcurve"/>
			<point x="601" y="709"/>
			<point x="649" y="692" type="qcurve"/>
			<point x="676" y="743"/>
			<point x="757" y="786"/>
			<point x="808" y="786" type="qcurve"/>
			<point x="833" y="786"/>
			<point x="878" y="775"/>
			<point x="895" y="767" type="qcurve"/>
			<point x="851" y="674" type="line"/>
			<point x="840" y="679"/>
			<point x="816" y="685"/>
			<point x="802" y="685" type="qcurve"/>
			<point x="777" y="685"/>
			<point x="744" y="665"/>
			<point x="719" y="630"/>
			<point x="699" y="584"/>
			<point x="687" y="558" type="qcurve"/>
			<point x="661" y="574"/>
			<point x="581" y="600"/>
			<point x="530" y="600" type="qcurve"/>
			<point x="464" y="600"/>
			<point x="361" y="544"/>
			<point x="289" y="453"/>
			<point x="252" y="337"/>
			<point x="252" y="277" type="qcurve"/>
			<point x="252" y="94"/>
		</contour>
	</outline>
</glyph>
<glyph name="uni0194" format="2">
	<unicode hex="0194"/>
	<advance width="661"/>
	<outline>
		<contour>
			<point x="309" y="-86" type="qcurve"/>
			<point x="327" y="-86"/>
			<point x="350" y="-75"/>
			<point x="364" y="-57"/>
			<point x="369" y="-35"/>
			<point x="369" y="-24" type="qcurve"/>
			<point x="369" y="-3"/>
			<point x="359" y="49"/>
			<point x="349" y="81" type="qcurve"/>
			<point x="312" y="40"/>
			<point x="266" y="-21"/>
			<point x="266" y="-47" type="qcurve"/>
			<point x="266" y="-62"/>
			<point x="284" y="-86"/>
		</contour>
		<contour>
			<point x="303" y="174" type="qcurve"/>
			<point x="267" y="300"/>
			<point x="198" y="554"/>
			<point x="160" y="693" type="qcurve"/>
			<point x="286" y="693" type="line"/>
			<point x="302" y="634"/>
			<point x="328" y="528"/>
			<point x="354" y="427"/>
			<point x="380" y="325"/>
			<point x="397" y="270" type="qcurve"/>
			<point x="432" y="315"/>
			<point x="500" y="408"/>
			<point x="570" y="510"/>
			<point x="645" y="625"/>
			<point x="687" y="693" type="qcurve"/>
			<point x="819" y="693" type="line"/>
			<point x="725" y="545"/>
			<point x="539" y="280"/>
			<point x="437" y="153" type="qcurve"/>
			<point x="453" y="102"/>
			<point x="474" y="20"/>
			<point x="474" y="-12" type="qcurve"/>
			<point x="474" y="-49"/>
			<point x="450" y="-112"/>
			<point x="405" y="-159"/>
			<point x="339" y="-185"/>
			<point x="297" y="-185" type="qcurve"/>
			<point x="261" y="-185"/>
			<point x="211" y="-163"/>
			<point x="180" y="-128"/>
			<point x="167" y="-84"/>
			<point x="167" y="-62" type="qcurve"/>
			<point x="167" y="-40"/>
			<point x="181" y="6"/>
			<point x="213" y="62"/>
			<point x="265" y="130"/>
		</contour>
	</outline>
	<guideline x="324"/>
</glyph>
